<svg id="call-answer" xmlns="http://www.w3.org/2000/svg" width="20.15" height="20.105" viewBox="0 0 20.15 20.105">
  <g id="Group_1597" data-name="Group 1597" transform="translate(0 0)">
    <g id="Group_1596" data-name="Group 1596" transform="translate(0 0)">
      <path id="Path_1445" data-name="Path 1445" d="M19.7,16.3l-3.112-3.112a1.623,1.623,0,0,0-2.288.043l-1.568,1.567-.309-.172A15.6,15.6,0,0,1,8.65,11.894,15.689,15.689,0,0,1,5.918,8.116c-.058-.1-.114-.206-.169-.3L6.8,6.764l.517-.518A1.621,1.621,0,0,0,7.36,3.958L4.248.845A1.621,1.621,0,0,0,1.961.888l-.877.882.024.024A5.072,5.072,0,0,0,.385,3.069,5.285,5.285,0,0,0,.063,4.362c-.411,3.407,1.146,6.52,5.37,10.744,5.84,5.839,10.546,5.4,10.749,5.377a5.258,5.258,0,0,0,1.3-.326,5.055,5.055,0,0,0,1.27-.72l.019.017.888-.87A1.624,1.624,0,0,0,19.7,16.3Z" transform="translate(0 -0.394)" fill="#002A4D"/>
    </g>
  </g>
</svg>