<svg id="Group_2572" data-name="Group 2572" xmlns="http://www.w3.org/2000/svg" width="24.047" height="22.979" viewBox="0 0 24.047 22.979">
  <path id="Path_12139" data-name="Path 12139" d="M1194.628,521.894v8.892h-5.155v-8.3c0-2.084-.745-3.505-2.61-3.505a2.82,2.82,0,0,0-2.645,1.885,3.549,3.549,0,0,0-.171,1.257v8.659h-5.156s.069-14.051,0-15.505h5.156v2.2c-.011.017-.025.034-.033.05h.033v-.05a5.119,5.119,0,0,1,4.646-2.562c3.393,0,5.935,2.216,5.935,6.978ZM1173.5,507.806a2.686,2.686,0,1,0-.068,5.358h.035a2.687,2.687,0,1,0,.033-5.358Zm-2.61,22.98h5.153V515.281h-5.153Zm0,0" transform="translate(-1170.58 -507.806)" fill="#002a4d"/>
</svg>
