<svg xmlns="http://www.w3.org/2000/svg" width="37.417" height="34.713" viewBox="0 0 37.417 34.713">
  <g id="Group_3171" data-name="Group 3171" transform="translate(-708.399 -4737.194)">
    <path id="Path_16209" data-name="Path 16209" d="M10.725,28.037V40.423a7.387,7.387,0,0,0,7.387,7.387H29.454a7.387,7.387,0,0,0,7.387-7.387V28.037" transform="translate(703.326 4723.098)" fill="none" stroke="#fff" stroke-width="2"/>
    <path id="Path_16210" data-name="Path 16210" d="M2.351,8.2,17.636,1.209a2.315,2.315,0,0,1,1.916,0l15.5,7.007a2.314,2.314,0,0,1,.166,4.133l-15.382,8.5a2.317,2.317,0,0,1-2.239,0l-15.4-8.513A2.314,2.314,0,0,1,2.351,8.2Z" transform="translate(708.4 4737.209)" fill="none" stroke="#fff" stroke-width="2"/>
    <line id="Line_812" data-name="Line 812" y2="8.789" transform="translate(744.814 4752.232)" fill="none" stroke="#fff" stroke-width="2"/>
  </g>
</svg>
