<svg xmlns="http://www.w3.org/2000/svg" xmlns:xlink="http://www.w3.org/1999/xlink" width="282.627" height="51.824" viewBox="0 0 282.627 51.824">
  <defs>
    <clipPath id="clip-path">
      <rect id="Rectangle_206" data-name="Rectangle 206" width="68.922" height="51.824" fill="#fff"/>
    </clipPath>
  </defs>
  <g id="Group_3167" data-name="Group 3167" transform="translate(-219.002 -337.296)">
    <g id="Group_1886" data-name="Group 1886" transform="translate(219.002 337.296)">
      <g id="Group_1796" data-name="Group 1796" transform="translate(0 0)">
        <g id="Group_1795" data-name="Group 1795" transform="translate(0 0)">
          <g id="Group_1182" data-name="Group 1182" clip-path="url(#clip-path)">
            <path id="Path_12177" data-name="Path 12177" d="M39.869,43.4a12.811,12.811,0,0,0,.617,1.369l.714,1.316a5.739,5.739,0,0,1,.574,1.459,1.842,1.842,0,0,1-.009.828,1.294,1.294,0,0,1-.425.674,1.723,1.723,0,0,0,0-1.381,13.064,13.064,0,0,0-.651-1.311,9.054,9.054,0,0,1-.617-1.411,3.791,3.791,0,0,1-.2-1.541" transform="translate(-11.387 -12.4)" fill="#fff"/>
            <path id="Path_12178" data-name="Path 12178" d="M62.412,40.12c-1.321-.107-2.729.929-3.907,2.3-.214.271-.686.9-1.343,1.821-.043.064-.086.136-.129.2l-.079.093c-.386.543-.821,1.164-1.307,1.871A5.158,5.158,0,0,1,52,48.884a5,5,0,0,1-3.314-.821c-.664-.521-1.071-.371-.7.3.329.671,2.664,1.9,4.964,1.529a4.56,4.56,0,0,0,2.414-1.307.418.418,0,0,1,.329.114c.45.479.45,1.75-2.443,2.421s-5.529-1.529-5.529-1.529-.521.929-5.007,1.343a8.854,8.854,0,0,1-6.786-2.05,8.681,8.681,0,0,1-6.786,2.05c-4.45-.414-4.971-1.343-4.971-1.343s-2.636,2.2-5.521,1.529-2.9-1.943-2.45-2.421a.4.4,0,0,1,.293-.114,4.66,4.66,0,0,0,2.45,1.307c2.3.371,4.636-.857,4.971-1.529.371-.671-.036-.821-.707-.3a4.975,4.975,0,0,1-3.293.821,3.609,3.609,0,0,1-1.221-.329,5.94,5.94,0,0,1-2.464-2.15C14.619,44.049,13.5,42.549,13.29,42.3c-1.171-1.307-2.543-2.279-3.8-2.179a2.463,2.463,0,0,0-2.45,2.236A2.207,2.207,0,0,0,9.3,44.484a2.281,2.281,0,0,0,1.814-.864,7.664,7.664,0,0,1,2.379,3.4,33.58,33.58,0,0,1,2.779,7.721,1.676,1.676,0,0,0,.443,3.279h.193c.293,1.307.55,2.393.7,3.136a11.354,11.354,0,0,0,.664,2.129S17.833,61.527,25.4,60.3a64.6,64.6,0,0,1,21.107,0c7.564,1.229,7.121,2.986,7.121,2.986a10.018,10.018,0,0,0,.629-2.129c.186-.743.443-1.829.743-3.171a1.619,1.619,0,0,0,1.336-1.643,1.7,1.7,0,0,0-.743-1.414,32.837,32.837,0,0,1,2.779-7.907,8.361,8.361,0,0,1,2.379-3.4,2.281,2.281,0,0,0,1.814.864,2.184,2.184,0,0,0,2.264-2.129,2.429,2.429,0,0,0-2.414-2.236M8.64,43.1c-.221,0-.407-.107-.407-.257,0-.193.186-.3.407-.3s.407.107.407.3c0,.15-.186.257-.407.257m6.229,5.264c-.557-.529-1.036-2.693-2.6-4.557a5.189,5.189,0,0,0-3.486-1.971c-.143,0,.707-1.493,2.45-.264a14.31,14.31,0,0,1,4.007,5.336c.407,1.229.186,1.979-.371,1.457m29,3.021a5.474,5.474,0,0,0,1.571-.357c.007-.007.014-.021.021-.021s0,.007-.021.021c-.086.086-.086.614-.086.614a7.9,7.9,0,0,1-1.821.15c-1.257,0-.443-.371.336-.407m-6.6-.714c.593.193,1.707.564,1.707.564l.257.743-2.964-.036L36.083,50.3c.221-.107.629.186,1.186.371m-4.193.6a.484.484,0,0,1,.136-.021,5.44,5.44,0,0,0,.907-.429,6.019,6.019,0,0,0,.629-.521l-.071,1.679s-1.2-.029-1.586,0c-.086.029-.021-.686-.014-.707m-7.343-.186a13.723,13.723,0,0,0,1.964.371,13.872,13.872,0,0,0,4.157-.114l.107.564a36.976,36.976,0,0,0-6.229.893Zm-5.007,4.179c-.664.3-1.814.779-2.707,1.193-.886.371-1.629.636-1.743.114-.107-.564.079-.821.593-1.086a13.453,13.453,0,0,1,2.671-.371c.743-.071,1.45.036,1.186.15M34.3,58.806c-1.671.036-3.193.114-4.6.221l-1.15-1.043-.671,1.229c-1.629.186-3,.414-4.15.636l2.186-1.936-2.671-1.571a22.159,22.159,0,0,1,3.821-1.121l1.486,1.943,1.3-2.421c.957-.114,1.964-.186,3.036-.229h2.821l-3.3,2.279L35.34,58.77a10.109,10.109,0,0,1-1.036.036m1.629-.521-2.15-1.493,2.15-1.529,2.193,1.529Zm9.943-.857a17.017,17.017,0,0,1,1.914,2.307,18.644,18.644,0,0,0-3.85-.629l-.629-1.121-1.071.971c-1.486-.114-3.379-.186-5.679-.186L39.5,56.791,36.19,54.513c2.229.079,4.264.229,5.936.414l1.186,2.236,1.486-1.9c1.557.221,2.929.521,2.964.521,1.6.257-.779.521-1.886,1.643m9.307-.936a.547.547,0,0,1-.743.45s-.186-.114-2.371-1.043c-2.229-.9-7.421-2.057-15.393-2.093a84.416,84.416,0,0,0-14.007,1.079c.171-.136,1.821-1.336,7.186-1.9,5.671-.636,16.872-.107,20.172.821a24.045,24.045,0,0,1,4.15,1.493c.893.486,1.114.671,1.007,1.193M59.6,43.806c-1.521,1.864-2.043,4.029-2.6,4.557s-.743-.229-.336-1.457a14.008,14.008,0,0,1,4.007-5.336c1.743-1.229,2.6.264,2.45.264A5.235,5.235,0,0,0,59.6,43.806m3.671-.707c-.221,0-.407-.107-.407-.257,0-.193.186-.3.407-.3s.407.107.407.3c0,.15-.186.257-.407.257" transform="translate(-2.011 -11.46)" fill="#fff"/>
            <path id="Path_12179" data-name="Path 12179" d="M40.589,4.685s.869-.511,1.221.75A1.068,1.068,0,0,1,40.66,6.961a8.69,8.69,0,0,0-.071-2.276" transform="translate(-11.597 -1.309)" fill="#fff"/>
            <path id="Path_12180" data-name="Path 12180" d="M68.922,20.717C58.665,18.281,51.265,10.681,45.693,10.681c-4.729,0-5.664,4.079-7.157,8.65C37.407,22.781,34.8,22,34.8,20.059c0-3.836,3.236-4.857,3.236-9.864,0-3.75-.971-5.886-3.343-7.279s-3.764-.886-3.764-.886a3.609,3.609,0,0,0-2.721-2c-.429-.093-1.286.029-.821.321s.421.393.786,1.364a5.258,5.258,0,0,1-.829.657c-.557.371-2.471.586-3.671,1.664s-3.879,3.043-4.907,3.736-1.25.857-.479.95c4.421.521,5.493-.714,7.593-.714s1.464.35,2.843.35S31.164,6.9,32.1,6.9s2.164.071,2.164,3.243S27.8,18.609,26,18.609c-1.771,0-3.014-2.271-3.179-4.614-.179-2.614.279-4.414-1.507-4.414-2.843,0-8.629,4.964-11.35,8.243C7.486,20.809,2.95,24.667,0,25.345a3.716,3.716,0,0,0,2.136.757,3.685,3.685,0,0,0,.8.15,4.166,4.166,0,0,0,.729-.014,3.563,3.563,0,0,1-.871.286,3.678,3.678,0,0,0,1.229.164,3.9,3.9,0,0,0,1.229-.236,3.468,3.468,0,0,1-1.129.514,3.6,3.6,0,0,0,1.243.079,3.9,3.9,0,0,0,1.286-.336,5.486,5.486,0,0,0,.529-.293,3.305,3.305,0,0,1-1.514.921,3.656,3.656,0,0,0,1.25.036,4,4,0,0,0,1.264-.4,4.755,4.755,0,0,0,.986-.679.149.149,0,0,0-.029.043,3.312,3.312,0,0,1-1.75,1.329,3.466,3.466,0,0,0,1.243-.014,3.994,3.994,0,0,0,1.257-.436A4.627,4.627,0,0,0,11,26.352c.043-.043.079-.093.114-.136a2.309,2.309,0,0,1-.179.35,3.354,3.354,0,0,1-1.707,1.379,3.488,3.488,0,0,0,1.243-.05,3.858,3.858,0,0,0,1.243-.479,4.579,4.579,0,0,0,1.086-.893,2.352,2.352,0,0,0,.243-.3,3.428,3.428,0,0,1-.236.529,3.33,3.33,0,0,1-1.664,1.421,3.633,3.633,0,0,0,1.236-.079,3.914,3.914,0,0,0,1.229-.514,4.4,4.4,0,0,0,1.064-.936,2.9,2.9,0,0,0,.257-.329,4.066,4.066,0,0,1-.229.55,3.361,3.361,0,0,1-1.621,1.479,3.676,3.676,0,0,0,1.236-.121,4.2,4.2,0,0,0,1.214-.55,4.692,4.692,0,0,0,1.029-.964,2.194,2.194,0,0,0,.193-.257,3.9,3.9,0,0,1-.186.479,3.332,3.332,0,0,1-1.579,1.536,3.684,3.684,0,0,0,1.236-.164,4.138,4.138,0,0,0,1.193-.593,4.578,4.578,0,0,0,1-1c-.021.064-.05.136-.079.207a3.338,3.338,0,0,1-1.507,1.593A3.5,3.5,0,0,0,18.05,28.3a3.94,3.94,0,0,0,1.171-.643A4.857,4.857,0,0,0,19.893,27a3.36,3.36,0,0,1-1.336,1.486,3.526,3.526,0,0,0,1.207-.279,3.784,3.784,0,0,0,1.129-.707c.086-.071.164-.15.25-.236a3.4,3.4,0,0,1-1.007,1.121A3.483,3.483,0,0,0,21.322,28a3.759,3.759,0,0,0,1.05-.771,3.4,3.4,0,0,1-.793,1.093,3.516,3.516,0,0,0,1.129-.521,3.893,3.893,0,0,0,.843-.771,3.362,3.362,0,0,1-.521,1.229,3.564,3.564,0,0,0,.979-.764,4.248,4.248,0,0,0,.55-.764c-.043,2.071-.25,5.143.936,7.114,1.321,2.193,2.893,2.714,2.514,3.171a2.886,2.886,0,0,1-3.05,1.079s5.621,1.879,7.864-3.686A5.151,5.151,0,0,0,36.564,38.3c3.3.714,3.807-.679,4.721-.529,1.957.329,1.693-.507,2.679-.264a2.78,2.78,0,0,1-1.293-2.257c-.264-1.8.286-5.821-2.343-9.057-.336-.414-.286-.7.021-.893.036.071.064.143.107.214a4.609,4.609,0,0,0,.886,1.1,3.854,3.854,0,0,0,1.121.721,3.49,3.49,0,0,0,1.2.3,3.354,3.354,0,0,1-1.393-1.7,2.871,2.871,0,0,1-.171-.971,2.839,2.839,0,0,0,.121.257,6.438,6.438,0,0,0,.357.607,4.319,4.319,0,0,0,.929,1.007,3.9,3.9,0,0,0,1.157.65,3.56,3.56,0,0,0,1.221.236,3.4,3.4,0,0,1-1.486-1.6c-.036-.1-.071-.193-.107-.286a2.729,2.729,0,0,1-.114-.521c.029.043.05.093.086.143a5.141,5.141,0,0,0,.386.557,4.271,4.271,0,0,0,2.164,1.5,3.858,3.858,0,0,0,1.229.164,3.522,3.522,0,0,1-1.571-1.5c-.043-.093-.086-.186-.121-.279a2.638,2.638,0,0,1-.136-.4.391.391,0,0,1,.05.064,5.765,5.765,0,0,0,.414.521,4.345,4.345,0,0,0,.993.821,4.145,4.145,0,0,0,1.229.507,3.879,3.879,0,0,0,1.243.107,3.618,3.618,0,0,1-1.65-1.407c-.05-.086-.1-.171-.143-.264s-.093-.2-.136-.3l.014.014a4.883,4.883,0,0,0,1.443,1.207,4.442,4.442,0,0,0,1.257.429,3.883,3.883,0,0,0,1.25.043,3.681,3.681,0,0,1-1.721-1.3c-.05-.079-.107-.164-.157-.25-.043-.064-.071-.136-.107-.2a5.2,5.2,0,0,0,.407.386,4.886,4.886,0,0,0,1.029.65,4.578,4.578,0,0,0,1.271.357,4.065,4.065,0,0,0,1.25-.014,3.769,3.769,0,0,1-1.771-1.2c-.064-.079-.121-.157-.179-.236-.021-.043-.05-.079-.071-.121a2.967,2.967,0,0,0,.371.3,4.284,4.284,0,0,0,1.029.571,4.645,4.645,0,0,0,1.286.293,4.03,4.03,0,0,0,1.25-.071,3.859,3.859,0,0,1-1.821-1.1c-.064-.079-.129-.15-.186-.229a.3.3,0,0,1-.036-.05,2.821,2.821,0,0,0,.336.236,4.482,4.482,0,0,0,1.021.493,4.654,4.654,0,0,0,1.3.229,4.025,4.025,0,0,0,1.25-.121,4.007,4.007,0,0,1-1.864-1.007c-.064-.064-.129-.136-.186-.2.093.064.193.121.293.179a4.964,4.964,0,0,0,1.014.414,4.6,4.6,0,0,0,1.307.171,4.462,4.462,0,0,0,1.243-.164,4.167,4.167,0,0,1-1.893-.921c-.05-.043-.086-.086-.136-.129a2.568,2.568,0,0,0,.243.121,4.621,4.621,0,0,0,1,.35,5.153,5.153,0,0,0,1.314.121,4.711,4.711,0,0,0,1.236-.207,4.29,4.29,0,0,1-1.921-.85,1.048,1.048,0,0,1-.093-.071c.064.029.129.064.2.093a5.284,5.284,0,0,0,.979.286,5.116,5.116,0,0,0,1.314.071,4.683,4.683,0,0,0,1.236-.243,4.561,4.561,0,0,1-1.943-.771l-.021-.021a1.1,1.1,0,0,0,.136.057,5.37,5.37,0,0,0,2.271.257,4.83,4.83,0,0,0,1.221-.271,4.687,4.687,0,0,1-1.857-.657c.007,0,.014.007.029.007a5.268,5.268,0,0,0,.921.186,5.441,5.441,0,0,0,1.321-.014,5.012,5.012,0,0,0,1.221-.3,4.845,4.845,0,0,1-1.779-.55,5.613,5.613,0,0,0,.836.121,5.738,5.738,0,0,0,1.314-.036,5.3,5.3,0,0,0,1.221-.321,5,5,0,0,1-1.479-.379ZM25.95,5.016c-.536-.107-.664-.357-.629-.421a.823.823,0,0,1,.829-.45c.536.121,1.086.386,1.293.393s-.957.586-1.493.479M7.1,23.5a14.074,14.074,0,0,0,2.557-2.064,29.64,29.64,0,0,0,2.136-2.486c.693-.864,1.364-1.743,2.107-2.579a13.4,13.4,0,0,1,2.471-2.243c-1.543,1.6-2.743,3.429-4.129,5.179a18.51,18.51,0,0,1-2.279,2.457A9.083,9.083,0,0,1,7.1,23.5m1.086,1.536a15.866,15.866,0,0,0,3.386-2.979c1.007-1.121,1.929-2.321,2.821-3.536s1.771-2.457,2.707-3.664c.471-.6.95-1.193,1.479-1.757a10.968,10.968,0,0,1,.843-.786,3.354,3.354,0,0,1,.979-.593,6.087,6.087,0,0,0-1.607,1.564c-.464.593-.893,1.214-1.329,1.836-.857,1.25-1.707,2.514-2.607,3.743a31.4,31.4,0,0,1-2.957,3.5,12.046,12.046,0,0,1-3.714,2.671m2.3.479a13.539,13.539,0,0,0,2.8-2.579c.821-.964,1.586-1.986,2.321-3.021s1.471-2.093,2.25-3.121c.393-.514.8-1.014,1.236-1.493a7.862,7.862,0,0,1,.714-.664,2.618,2.618,0,0,1,.829-.507,4.881,4.881,0,0,0-1.321,1.357c-.379.507-.736,1.036-1.086,1.571-.7,1.064-1.407,2.143-2.15,3.193a25.868,25.868,0,0,1-2.464,2.993,9.807,9.807,0,0,1-3.129,2.271m3.493-.171A11.01,11.01,0,0,0,16.007,23.1c.586-.814,1.129-1.671,1.657-2.536s1.064-1.736,1.643-2.586a15.091,15.091,0,0,1,.914-1.25,5.62,5.62,0,0,1,.529-.564,2.049,2.049,0,0,1,.643-.436,2.213,2.213,0,0,0-.521.543,6.426,6.426,0,0,0-.421.629c-.271.429-.514.871-.764,1.314-.493.893-.993,1.779-1.529,2.657a20.376,20.376,0,0,1-1.8,2.507,7.413,7.413,0,0,1-2.379,1.964m4.379-1.557a5.625,5.625,0,0,1-1.893,1.586A9.322,9.322,0,0,0,18,23.517c.443-.664.857-1.357,1.264-2.057s.821-1.4,1.271-2.086a12.306,12.306,0,0,1,.729-1,5.153,5.153,0,0,1,.421-.457l.243-.207.271-.15a3.647,3.647,0,0,0-.707.971c-.193.35-.379.714-.564,1.071-.371.721-.757,1.443-1.171,2.15a16.338,16.338,0,0,1-1.4,2.036m4.029-3.679-.293.9c-.193.6-.407,1.193-.65,1.786a12.075,12.075,0,0,1-.843,1.729,4.392,4.392,0,0,1-1.271,1.464,9.254,9.254,0,0,0,.871-1.664l.714-1.743c.243-.586.479-1.171.764-1.743a8.13,8.13,0,0,1,.457-.85,2.249,2.249,0,0,1,.636-.736,3.429,3.429,0,0,0-.386.857m4.007,8.007.007.386.036.371.057.764c.043.25.079.5.114.757l.057.379.086.371.164.75c.114.507.279.993.4,1.507-.236-.464-.479-.936-.671-1.421a13.076,13.076,0,0,1-.471-1.5,11.585,11.585,0,0,1-.357-3.136,11.281,11.281,0,0,1,.55-3.121,8.275,8.275,0,0,1,1.493-2.757,12.78,12.78,0,0,0-1.064,2.886,14.71,14.71,0,0,0-.4,3.007c-.014.25,0,.507,0,.757m4.5-3.307A18.539,18.539,0,0,0,30.407,28a18.755,18.755,0,0,0,.036,3.229c.029.543.129,1.071.193,1.614s.214,1.064.3,1.614a14.918,14.918,0,0,1-.571-1.55,14.228,14.228,0,0,1-.536-4.95,13.4,13.4,0,0,1,.636-3.271,10.4,10.4,0,0,1,1.457-2.979,17.925,17.925,0,0,0-1.029,3.1m-.743-3.521a14.785,14.785,0,0,0-1.171,2.8c-.079.243-.129.493-.193.736l-.093.371-.064.371-.136.75c-.029.25-.057.507-.086.757l-.043.386-.021.379-.036.771c-.014.514.014,1.029,0,1.55-.107-.507-.221-1.021-.279-1.536a12.856,12.856,0,0,1-.071-1.571,11.936,11.936,0,0,1,.471-3.129,10.824,10.824,0,0,1,1.343-2.864,8.176,8.176,0,0,1,2.15-2.279,12.863,12.863,0,0,0-1.771,2.507m3.264-5.3A23.776,23.776,0,0,1,29.9,18.867l-.029-.05A23.508,23.508,0,0,0,33.2,15.788a12.228,12.228,0,0,0,2.393-3.729A6.8,6.8,0,0,0,35.8,7.8a5.792,5.792,0,0,0-.964-1.921,4.6,4.6,0,0,0-.764-.771,2.182,2.182,0,0,0-.979-.464V4.581a2.1,2.1,0,0,1,1.121.314,4.464,4.464,0,0,1,.921.721,5.277,5.277,0,0,1,1.207,2.014,6.325,6.325,0,0,1,.264,1.157,7.3,7.3,0,0,1,0,1.186,7.908,7.908,0,0,1-.586,2.257,12.792,12.792,0,0,1-2.607,3.757m9.779,8.086a6.882,6.882,0,0,1-1.121-.9,13.033,13.033,0,0,1-.95-1.043,5.994,5.994,0,0,0-.95-1,2.69,2.69,0,0,1,1.271.679c.364.307.7.629,1.029.95a16.413,16.413,0,0,0,2.071,1.829,3.421,3.421,0,0,1-1.35-.514m3.571-1.021a11.52,11.52,0,0,1-1.857-1.036c-.579-.4-1.136-.821-1.679-1.257a8.992,8.992,0,0,0-1.714-1.15,4.671,4.671,0,0,1,1.964.786c.607.357,1.179.757,1.757,1.143a22.483,22.483,0,0,0,3.579,2.079,6.634,6.634,0,0,1-2.05-.564m2.886-.779a15.993,15.993,0,0,1-2.386-1.286c-.75-.493-1.479-1.014-2.193-1.536a10.734,10.734,0,0,0-2.257-1.379,6.577,6.577,0,0,1,2.5,1c.779.457,1.514.957,2.264,1.429A25.724,25.724,0,0,0,52.25,23a9.222,9.222,0,0,1-2.6-.729m3.721-.6a23.972,23.972,0,0,1-3.243-1.521c-1.043-.586-2.05-1.214-3.057-1.836a15.113,15.113,0,0,0-3.136-1.607,10.082,10.082,0,0,1,3.357,1.214c1.057.55,2.079,1.157,3.114,1.721a34.491,34.491,0,0,0,6.429,2.907,14.6,14.6,0,0,1-3.464-.879m3.179-1.021a29.975,29.975,0,0,1-3.893-1.793c-1.257-.679-2.471-1.407-3.693-2.136-.607-.357-1.221-.714-1.843-1.036a10.857,10.857,0,0,0-1.957-.807,12.422,12.422,0,0,1,4.014,1.45c1.271.65,2.507,1.357,3.75,2.021A40.094,40.094,0,0,0,60.7,21.709a19.035,19.035,0,0,1-4.15-1.057m1.2-2.179c-1.679-.743-3.314-1.579-4.957-2.379a45.589,45.589,0,0,0-4.986-2.229,8.765,8.765,0,0,0-2.621-.55,3.109,3.109,0,0,0-1.3.207,2.751,2.751,0,0,0-1.071.807,2.561,2.561,0,0,1,1.007-.943,3.332,3.332,0,0,1,1.357-.357,8.19,8.19,0,0,1,2.764.414,33.763,33.763,0,0,1,5.107,2.129l4.893,2.493A48.361,48.361,0,0,0,62.95,20.3a29.179,29.179,0,0,1-5.2-1.829" transform="translate(0 0)" fill="#fff"/>
          </g>
        </g>
      </g>
    </g>
    <text id="Old_hall" data-name="Old hall" transform="translate(301.629 375.524)" fill="#fff" font-size="33" font-family="GrandCentral-Light, GrandCentral" font-weight="300" letter-spacing="0.1em"><tspan x="0" y="0">Old hall</tspan></text>
  </g>
</svg>
