<svg xmlns="http://www.w3.org/2000/svg" width="26.307" height="25.096" viewBox="0 0 26.307 25.096">
  <g id="Group_3084" data-name="Group 3084" transform="translate(-10.536 -10.159)">
    <g id="Group_1230" data-name="Group 1230" transform="translate(10.536 10.159)">
      <path id="Path_1056" data-name="Path 1056" d="M25.442,16.255a.865.865,0,0,1,.865.865h0v3.115a5.019,5.019,0,0,1-5.019,5.019H5.019A5.019,5.019,0,0,1,0,20.235H0V17.12a.865.865,0,0,1,1.731,0h0v3.115a3.288,3.288,0,0,0,3.288,3.288H21.288a3.288,3.288,0,0,0,3.288-3.288h0V17.12A.865.865,0,0,1,25.442,16.255ZM13.154.159a.865.865,0,0,1,.864.808l0,.057V15.3l3.736-3.487a.865.865,0,0,1,1.179,0l.044.044a.865.865,0,0,1,0,1.179l-.044.044-5.187,4.841q-.023.022-.048.043l-.013.011L13.656,18l-.022.015-.023.015-.022.013-.035.019-.014.007-.032.015-.022.01-.029.011-.025.009-.023.007-.032.009a.85.85,0,0,1-.087.018l-.022,0-.058.006-.057,0h0a.87.87,0,0,1-.132-.01l-.041-.007a.864.864,0,0,1-.764-.215L7.025,13.08a.865.865,0,1,1,1.181-1.265l4.083,3.811V1.024A.865.865,0,0,1,13.154.159Z" transform="translate(0 -0.159)" fill="#44484b"/>
    </g>
  </g>
</svg>
