<svg id="Group_2575" data-name="Group 2575" xmlns="http://www.w3.org/2000/svg" width="25.383" height="25.384" viewBox="0 0 25.383 25.384">
  <path id="Path_4" data-name="Path 4" d="M1115.569,507.945H1104.2a7.013,7.013,0,0,0-7.005,7v11.374a7.013,7.013,0,0,0,7.005,7h11.373a7.013,7.013,0,0,0,7-7V514.95a7.012,7.012,0,0,0-7-7Zm4.753,18.379a4.758,4.758,0,0,1-4.753,4.753H1104.2a4.758,4.758,0,0,1-4.753-4.753V514.95a4.758,4.758,0,0,1,4.753-4.753h11.373a4.758,4.758,0,0,1,4.753,4.753Zm0,0" transform="translate(-1097.191 -507.945)" fill="#002a4d"/>
  <path id="Path_5" data-name="Path 5" d="M1114.942,519.157a6.541,6.541,0,1,0,6.541,6.54,6.548,6.548,0,0,0-6.541-6.54Zm0,10.829a4.288,4.288,0,1,1,4.289-4.288,4.293,4.293,0,0,1-4.289,4.288Zm0,0" transform="translate(-1102.251 -513.005)" fill="#002a4d"/>
  <path id="Path_6" data-name="Path 6" d="M1131.386,515.676a1.651,1.651,0,1,0,1.167.483,1.658,1.658,0,0,0-1.167-.483Zm0,0" transform="translate(-1111.879 -511.434)" fill="#002a4d"/>
</svg>
