<svg xmlns="http://www.w3.org/2000/svg" width="112.463" height="11.682" viewBox="0 0 112.463 11.682">
  <g id="Group_2922" data-name="Group 2922" transform="translate(-1208.731 -6451.492)">
    <path id="Path_3910" data-name="Path 3910" d="M31.9,1.545h3.207v8.7h1.374v-8.7h3.207V.4H31.9Z" transform="translate(1213.364 6451.55)" fill="#fff"/>
    <path id="Path_3911" data-name="Path 3911" d="M43.665,2.749a2.673,2.673,0,0,0-2.291,1.145V0H40V10.307h1.26V6.07a1.924,1.924,0,0,1,2.061-2.061A1.813,1.813,0,0,1,45.154,6.07v4.237h1.26V5.726A2.6,2.6,0,0,0,43.665,2.749Z" transform="translate(1214.541 6451.492)" fill="#fff"/>
    <path id="Path_3912" data-name="Path 3912" d="M50.55,2.4A3.555,3.555,0,0,0,47,6.179a3.646,3.646,0,0,0,3.665,3.779,3.693,3.693,0,0,0,2.978-1.374h.229l-.8-.687-.115.115a2.567,2.567,0,0,1-2.176.916,2.461,2.461,0,0,1-2.405-2.176h5.612V6.294C53.986,4,52.612,2.4,50.55,2.4ZM48.374,5.721A2.335,2.335,0,0,1,50.55,3.545a2.25,2.25,0,0,1,2.176,2.176Z" transform="translate(1215.558 6451.841)" fill="#fff"/>
    <path id="Path_3913" data-name="Path 3913" d="M62.388,7.773A3.693,3.693,0,0,1,59.41,9.148a3.745,3.745,0,0,1-3.665-3.894A3.745,3.745,0,0,1,59.41,1.36a4.076,4.076,0,0,1,2.978,1.26l.115.115.916-.916L63.3,1.7A5.079,5.079,0,0,0,59.525.1,4.877,4.877,0,0,0,54.6,5.254a4.915,4.915,0,0,0,4.925,5.039,5.2,5.2,0,0,0,3.894-1.718l.115-.115-1.145-.687Z" transform="translate(1216.662 6451.507)" fill="#fff"/>
    <path id="Path_3914" data-name="Path 3914" d="M68.554,6.723a1.924,1.924,0,0,1-2.061,2.061A1.813,1.813,0,0,1,64.66,6.723V2.6H63.4V7.181a2.737,2.737,0,0,0,2.863,2.978,2.673,2.673,0,0,0,2.291-1.145V9.93h1.26V2.6h-1.26Z" transform="translate(1217.94 6451.87)" fill="#fff"/>
    <path id="Path_3915" data-name="Path 3915" d="M74.794,2.4A2.911,2.911,0,0,0,72.16,4V2.629H70.9v7.33h1.26V6.981c0-1.947,1.031-3.092,2.749-3.092h.229V2.515h-.115A.355.355,0,0,0,74.794,2.4Z" transform="translate(1219.029 6451.841)" fill="#fff"/>
    <rect id="Rectangle_557" data-name="Rectangle 557" width="1.26" height="7.33" transform="translate(1295.427 6454.47)" fill="#fff"/>
    <rect id="Rectangle_558" data-name="Rectangle 558" width="1.489" height="1.374" transform="translate(1295.313 6451.721)" fill="#fff"/>
    <path id="Path_3916" data-name="Path 3916" d="M82.079,2.4A3.767,3.767,0,0,0,78.3,6.294a3.74,3.74,0,0,0,3.779,3.779,3.862,3.862,0,0,0,3.894-3.894A3.914,3.914,0,0,0,82.079,2.4ZM84.6,6.294a2.5,2.5,0,0,1-2.52,2.634,2.568,2.568,0,0,1-2.52-2.634,2.522,2.522,0,1,1,5.039,0Z" transform="translate(1220.104 6451.841)" fill="#fff"/>
    <path id="Path_3917" data-name="Path 3917" d="M91.454,6.723a1.924,1.924,0,0,1-2.061,2.061A1.813,1.813,0,0,1,87.56,6.723V2.6H86.3V7.181a2.737,2.737,0,0,0,2.863,2.978,2.544,2.544,0,0,0,2.291-1.145V9.93h1.26V2.6h-1.26Z" transform="translate(1221.267 6451.87)" fill="#fff"/>
    <path id="Path_3918" data-name="Path 3918" d="M96.636,5.607h0c-.916-.229-1.718-.573-1.718-1.145s.458-.916,1.26-.916a3.694,3.694,0,0,1,2.061.687l.115.115.573-1.031L98.812,3.2a5.447,5.447,0,0,0-2.634-.8,2.273,2.273,0,0,0-2.52,2.176c0,1.374,1.374,1.832,2.405,2.061.916.229,1.718.573,1.718,1.145s-.573,1.031-1.374,1.031A4.212,4.212,0,0,1,94,7.9l-.115-.115L93.2,8.7l.115.115a4.364,4.364,0,0,0,2.978,1.26,2.33,2.33,0,0,0,2.634-2.291C98.926,6.294,97.552,5.95,96.636,5.607Z" transform="translate(1222.269 6451.841)" fill="#fff"/>
    <g id="Group_977" data-name="Group 977" transform="translate(1208.731 6455.615)" opacity="0.35">
      <path id="Path_3925" data-name="Path 3925" d="M0,3.8H.687L2.863,7.007,5.039,3.8h.687V9.755H5.039V4.945L2.863,8.152h0L.687,4.945v4.81H0Z" transform="translate(0 -3.571)" fill="#fff"/>
      <path id="Path_3926" data-name="Path 3926" d="M6.1,8.307h0c0-.916.8-1.489,1.832-1.489a4.922,4.922,0,0,1,1.374.229V6.818c0-.8-.458-1.145-1.26-1.145a2.72,2.72,0,0,0-1.374.344l-.229-.573a3.326,3.326,0,0,1,1.6-.344,1.673,1.673,0,0,1,1.374.458,1.564,1.564,0,0,1,.458,1.26V9.566H9.307V8.879a2.166,2.166,0,0,1-1.6.8A1.526,1.526,0,0,1,6.1,8.307Zm3.207-.344V7.505a4.117,4.117,0,0,0-1.26-.229c-.916,0-1.374.344-1.374.916h0c0,.573.458.916,1.145.916C8.62,9.108,9.307,8.65,9.307,7.963Z" transform="translate(0.886 -3.382)" fill="#fff"/>
      <path id="Path_3927" data-name="Path 3927" d="M10.4,7.608h0a2.114,2.114,0,0,1,2.061-2.291,2.145,2.145,0,0,1,1.718.916V3.6h.687V9.784h-.687V8.868A1.975,1.975,0,0,1,12.461,9.9,2.185,2.185,0,0,1,10.4,7.608Zm3.779,0h0a1.665,1.665,0,0,0-1.6-1.718,1.476,1.476,0,0,0-1.489,1.6h0a1.551,1.551,0,1,0,3.092.115Z" transform="translate(1.511 -3.6)" fill="#fff"/>
      <path id="Path_3928" data-name="Path 3928" d="M15.3,7.391h0A2.184,2.184,0,0,1,17.361,5.1a2.112,2.112,0,0,1,2.061,2.291V7.62H15.987a1.593,1.593,0,0,0,1.489,1.489,1.9,1.9,0,0,0,1.374-.573l.458.344a2.491,2.491,0,0,1-1.832.8A2.2,2.2,0,0,1,15.3,7.391Zm3.55-.344c-.115-.8-.573-1.489-1.374-1.489A1.42,1.42,0,0,0,16.1,7.047Z" transform="translate(2.222 -3.382)" fill="#fff"/>
      <path id="Path_3929" data-name="Path 3929" d="M22.887,8.868v.916H22.2V3.6h.687V6.349a1.975,1.975,0,0,1,1.718-1.031,2.114,2.114,0,0,1,2.061,2.291h0A2.114,2.114,0,0,1,24.605,9.9,1.842,1.842,0,0,1,22.887,8.868Zm3.092-1.26h0a1.578,1.578,0,0,0-1.489-1.718,1.665,1.665,0,0,0-1.6,1.718h0a1.555,1.555,0,1,0,3.092,0Z" transform="translate(3.225 -3.6)" fill="#fff"/>
      <path id="Path_3930" data-name="Path 3930" d="M30.265,5.1h.687L29.12,9.681c-.344.916-.8,1.26-1.489,1.26a2.158,2.158,0,0,1-.916-.229l.229-.573a1.453,1.453,0,0,0,.687.115c.344,0,.687-.229.916-.8L26.6,5.1h.687l1.6,3.665Z" transform="translate(3.864 -3.382)" fill="#fff"/>
    </g>
  </g>
</svg>
