<svg xmlns="http://www.w3.org/2000/svg" width="38.597" height="32.42" viewBox="0 0 38.597 32.42">
  <g id="Group_3168" data-name="Group 3168" transform="translate(-119.811 -4732.845)">
    <path id="Path_16204" data-name="Path 16204" d="M12.852,5.478v14.8a3.474,3.474,0,0,0,2.191,3.229l10.925,4.345V7.807a3.475,3.475,0,0,0-2.247-3.251L17.555,2.227A3.475,3.475,0,0,0,12.852,5.478Z" transform="translate(112.928 4731.871)" fill="none" stroke="#fff" stroke-linecap="square" stroke-linejoin="round" stroke-width="2"/>
    <path id="Path_16205" data-name="Path 16205" d="M63.35,5.478v14.8a3.475,3.475,0,0,1-2.191,3.229L50.234,27.857V7.807a3.475,3.475,0,0,1,2.247-3.251l6.166-2.329A3.475,3.475,0,0,1,63.35,5.478Z" transform="translate(88.875 4731.871)" fill="none" stroke="#fff" stroke-linecap="square" stroke-linejoin="round" stroke-width="2"/>
    <path id="Path_16206" data-name="Path 16206" d="M2,23.727V42.151a5.223,5.223,0,0,0,5.222,5.223H33.374A5.223,5.223,0,0,0,38.6,42.151V23.727" transform="translate(118.811 4716.892)" fill="none" stroke="#fff" stroke-width="2"/>
  </g>
</svg>
