<svg id="Group_2574" data-name="Group 2574" xmlns="http://www.w3.org/2000/svg" width="28.878" height="23.458" viewBox="0 0 28.878 23.458">
  <path id="Path_7" data-name="Path 7" d="M1043.717,511.076a11.848,11.848,0,0,1-3.4.936,5.967,5.967,0,0,0,2.608-3.28,11.805,11.805,0,0,1-3.772,1.437,5.922,5.922,0,0,0-10.24,4.054,6.156,6.156,0,0,0,.151,1.349,16.819,16.819,0,0,1-12.214-6.188,5.924,5.924,0,0,0,1.832,7.9,5.837,5.837,0,0,1-2.678-.739v.072a5.94,5.94,0,0,0,4.749,5.816,6.115,6.115,0,0,1-1.559.2,5.974,5.974,0,0,1-1.119-.1,5.945,5.945,0,0,0,5.534,4.115,11.909,11.909,0,0,1-7.359,2.528,12.68,12.68,0,0,1-1.41-.079,16.765,16.765,0,0,0,9.085,2.66c10.891,0,16.849-9.024,16.849-16.848l-.018-.767a11.956,11.956,0,0,0,2.962-3.068Zm0,0" transform="translate(-1014.839 -508.301)" fill="#002a4d"/>
</svg>
