<svg id="Group_2729" data-name="Group 2729" xmlns="http://www.w3.org/2000/svg" width="32.325" height="30.836" viewBox="0 0 32.325 30.836">
  <path id="Path_1056" data-name="Path 1056" d="M31.262,19.937A1.063,1.063,0,0,1,32.325,21h0v3.828A6.167,6.167,0,0,1,26.158,31H6.167A6.167,6.167,0,0,1,0,24.828H0V21a1.063,1.063,0,1,1,2.127,0h0v3.828a4.041,4.041,0,0,0,4.041,4.041H26.158A4.041,4.041,0,0,0,30.2,24.828h0V21A1.063,1.063,0,0,1,31.262,19.937ZM16.163.159a1.063,1.063,0,0,1,1.061.993l0,.07V18.765l4.591-4.285a1.063,1.063,0,0,1,1.449,0l.054.054a1.063,1.063,0,0,1,0,1.449l-.054.054-6.374,5.949q-.029.027-.059.052l-.016.013-.038.029-.027.019-.028.018-.027.017-.043.024-.017.009-.04.019-.028.012-.035.014-.031.011-.028.009-.039.011a1.043,1.043,0,0,1-.107.023l-.027,0-.071.007-.07,0h0A1.069,1.069,0,0,1,16,22.263l-.05-.009a1.062,1.062,0,0,1-.938-.265l-6.38-5.955a1.063,1.063,0,1,1,1.451-1.555L15.1,19.163V1.222A1.063,1.063,0,0,1,16.163.159Z" transform="translate(0 -0.159)" fill="#fff"/>
</svg>
