<svg xmlns="http://www.w3.org/2000/svg" width="38.618" height="36.615" viewBox="0 0 38.618 36.615">
  <g id="Group_3169" data-name="Group 3169" transform="translate(-123.197 -4447.252)">
    <path id="Path_16207" data-name="Path 16207" d="M30.008,29.7a5.91,5.91,0,0,1-5.91,5.91H6.91A5.91,5.91,0,0,1,1,29.7V6.91A5.91,5.91,0,0,1,6.91,1H24.1a5.91,5.91,0,0,1,5.91,5.91" transform="translate(123.197 4447.252)" fill="none" stroke="#fff" stroke-linecap="square" stroke-linejoin="round" stroke-width="2"/>
    <line id="Line_807" data-name="Line 807" x2="7.636" transform="translate(130.864 4457.873)" fill="none" stroke="#fff" stroke-linecap="square" stroke-linejoin="round" stroke-width="2"/>
    <line id="Line_808" data-name="Line 808" x2="7.773" transform="translate(130.864 4465.908)" fill="none" stroke="#fff" stroke-linecap="square" stroke-linejoin="round" stroke-width="2"/>
    <line id="Line_809" data-name="Line 809" x2="14.828" transform="translate(130.864 4473.945)" fill="none" stroke="#fff" stroke-linecap="square" stroke-linejoin="round" stroke-width="2"/>
    <circle id="Ellipse_84" data-name="Ellipse 84" cx="7.846" cy="7.846" r="7.846" transform="translate(138.382 4454.678)" fill="none" stroke="#fff" stroke-width="2"/>
    <line id="Line_810" data-name="Line 810" x2="7.31" transform="translate(139.662 4462.524)" fill="none" stroke="#fff" stroke-linecap="square" stroke-linejoin="round" stroke-width="4"/>
    <line id="Line_811" data-name="Line 811" x2="7.196" y2="7.196" transform="translate(153.205 4466.75)" fill="none" stroke="#fff" stroke-linecap="square" stroke-linejoin="round" stroke-width="2"/>
  </g>
</svg>
