<svg id="Group_2574" data-name="Group 2574" xmlns="http://www.w3.org/2000/svg" width="32.378" height="26.301" viewBox="0 0 32.378 26.301">
  <path id="Path_7" data-name="Path 7" d="M1047.218,511.413a13.278,13.278,0,0,1-3.814,1.05,6.692,6.692,0,0,0,2.924-3.678,13.237,13.237,0,0,1-4.229,1.611,6.64,6.64,0,0,0-11.48,4.545,6.912,6.912,0,0,0,.169,1.513,18.857,18.857,0,0,1-13.694-6.939,6.642,6.642,0,0,0,2.054,8.863,6.543,6.543,0,0,1-3-.829v.081a6.66,6.66,0,0,0,5.324,6.521,6.856,6.856,0,0,1-1.748.225,6.7,6.7,0,0,1-1.255-.116,6.666,6.666,0,0,0,6.2,4.614,13.352,13.352,0,0,1-8.25,2.835,14.224,14.224,0,0,1-1.581-.088,18.8,18.8,0,0,0,10.186,2.982c12.211,0,18.892-10.118,18.892-18.89l-.02-.86a13.4,13.4,0,0,0,3.321-3.44Zm0,0" transform="translate(-1014.839 -508.301)" fill="#fff"/>
</svg>
