<svg xmlns="http://www.w3.org/2000/svg" width="83.764" height="70.134" viewBox="0 0 83.764 70.134">
  <g id="Group_2459" data-name="Group 2459" transform="translate(-687.152 -1237.654)">
    <path id="Path_16234" data-name="Path 16234" d="M12.852,9.676V42.347a7.668,7.668,0,0,0,4.835,7.126l24.11,9.59V14.815A7.669,7.669,0,0,0,36.838,7.64L23.231,2.5A7.67,7.67,0,0,0,12.852,9.676Z" transform="translate(686.765 1237.207)" fill="none" stroke="#fff" stroke-linecap="square" stroke-linejoin="round" stroke-width="3"/>
    <path id="Path_16235" data-name="Path 16235" d="M79.179,9.676V42.347a7.668,7.668,0,0,1-4.834,7.126l-24.111,9.59V14.815A7.669,7.669,0,0,1,55.193,7.64L68.8,2.5A7.669,7.669,0,0,1,79.179,9.676Z" transform="translate(678.801 1237.207)" fill="none" stroke="#fff" stroke-linecap="square" stroke-linejoin="round" stroke-width="3"/>
    <path id="Path_16236" data-name="Path 16236" d="M2,23.727v40.66A11.526,11.526,0,0,0,13.525,75.913H71.238A11.526,11.526,0,0,0,82.764,64.387V23.727" transform="translate(686.652 1230.375)" fill="none" stroke="#fff" stroke-width="3"/>
  </g>
</svg>
