<svg id="Group_2575" data-name="Group 2575" xmlns="http://www.w3.org/2000/svg" width="28.46" height="28.46" viewBox="0 0 28.46 28.46">
  <path id="Path_4" data-name="Path 4" d="M1117.8,507.945h-12.752a7.863,7.863,0,0,0-7.854,7.854v12.753a7.862,7.862,0,0,0,7.854,7.854H1117.8a7.863,7.863,0,0,0,7.854-7.854V515.8a7.862,7.862,0,0,0-7.854-7.854Zm5.329,20.607a5.335,5.335,0,0,1-5.329,5.329h-12.752a5.335,5.335,0,0,1-5.329-5.329V515.8a5.335,5.335,0,0,1,5.329-5.329H1117.8a5.335,5.335,0,0,1,5.329,5.329Zm0,0" transform="translate(-1097.191 -507.945)" fill="#fff"/>
  <path id="Path_5" data-name="Path 5" d="M1115.735,519.157a7.333,7.333,0,1,0,7.334,7.333,7.341,7.341,0,0,0-7.334-7.333Zm0,12.141a4.808,4.808,0,1,1,4.809-4.808,4.814,4.814,0,0,1-4.809,4.808Zm0,0" transform="translate(-1101.506 -512.26)" fill="#fff"/>
  <path id="Path_6" data-name="Path 6" d="M1131.587,515.676a1.851,1.851,0,1,0,1.309.542,1.857,1.857,0,0,0-1.309-.542Zm0,0" transform="translate(-1109.715 -510.92)" fill="#fff"/>
</svg>
