<svg xmlns="http://www.w3.org/2000/svg" width="81.062" height="75.101" viewBox="0 0 81.062 75.101">
  <g id="Group_2458" data-name="Group 2458" transform="translate(-387.732 -1235.928)">
    <path id="Path_16209" data-name="Path 16209" d="M10.725,28.037v27.3A16.282,16.282,0,0,0,27.007,71.618h25A16.282,16.282,0,0,0,68.287,55.336v-27.3" transform="translate(388.76 1237.91)" fill="none" stroke="#fff" stroke-width="3"/>
    <path id="Path_16210" data-name="Path 16210" d="M3.978,16.878,37.667,1.462a5.1,5.1,0,0,1,4.224-.008L76.058,16.9a5.1,5.1,0,0,1,.367,9.111l-33.9,18.735a5.107,5.107,0,0,1-4.934,0L3.634,25.981A5.1,5.1,0,0,1,3.978,16.878Z" transform="translate(388.233 1236.457)" fill="none" stroke="#fff" stroke-width="3"/>
    <line id="Line_812" data-name="Line 812" y2="26.942" transform="translate(465.088 1261.852)" fill="none" stroke="#fff" stroke-width="3"/>
  </g>
</svg>
