<svg xmlns="http://www.w3.org/2000/svg" width="48.733" height="75.691" viewBox="0 0 48.733 75.691">
  <g id="Group_1762" data-name="Group 1762" transform="translate(0 1.611) rotate(-2)">
    <path id="Path_12213" data-name="Path 12213" d="M495.692,364.237c1.8-1.447,4.019-3.453,5.729-4.966a10.577,10.577,0,0,1,1.307-1.458l.2.1.393-.467c.223-.124-.311.35.06.107l.077-.253c.086.021,1.165-1.039.531-.228q.865-.8,1.687-1.655c.371-.368.09-.341.532-.715.127-.04-.115.177-.029.2,1.34-1.12,1.089-1.729,2.26-2.839l-.072.119c.146-.239.505-.616.487-.642-.3.01-.111.29-.538.566-.1-.152.345-.514.223-.582a3.1,3.1,0,0,0,.581-.721c.451-.348.917-1.006,1.3-1.233a4.586,4.586,0,0,1,.578-1.043c.374-.237.039.163.442-.249l-.021-.138c.31-.355.285-.279.313-.235.322-.388.155-.415.6-.862l-.144.337a11.433,11.433,0,0,1,.815-1.024c.039.049-.13.249-.264.386.346-.177.328-.513.456-.655-.069.016-.359.361-.3.123.21-.244.305-.632.541-.74l-.135.341a3.391,3.391,0,0,1,.616-.954c-.019.038.014.038.021.064a9.188,9.188,0,0,1,1.11-1.479l-.057.128c.141-.258.16-.443.257-.566-.287.3-.247.19-.349.162.454-.341.322-.791.918-1.451.039.045-.025.261-.219.423a1.7,1.7,0,0,1-.183.954c.163-.3.374-.635.385-.524l-.072-.18.306-.419c-.034-.131-.377.238-.158-.186.266-.462.3-.133.29-.244.37-.634.039-.341.475-.9a.849.849,0,0,1-.128.238c.335-.383.665-1.047.91-1.061a.312.312,0,0,1-.085.281l-.02-.023c-.191.542.225-.407.276-.165-.109-.026.306-.6.5-.861l-.157.018c.288-1.085.174.183.708-.73.286-.613-.162.2-.016-.2a6.361,6.361,0,0,0,.743-1.05c.137-.131.392-.418.523-.374.17-.369.7-1.012.693-1.281-.439.54-.229.665-.8,1.259l.007-.26c.308-.465.606-1.117.839-1.427-.062.054-.108.067-.108.011a12.458,12.458,0,0,1,.776-1.622c.156-.028-.089.352-.244.642a7.612,7.612,0,0,0,.685-1.1c.116.018-.263.448-.218.576.134-.252.268-.5.39-.762,0,.006.012.007.019.01-.1-.193.322-.567.523-1.053a5.676,5.676,0,0,0,.652-2.041c.124-.143.188-.171.193-.082-.2.237-.126.216-.133.332.169-.382.56-.741.52-.5.249-.619-.189.173-.058-.216l.414-.81c-.129.057-.288.334-.141-.118.154-.365.255-.529.49-.991.007.086.2-.088.018.259a1.571,1.571,0,0,0,.3-.74c-.313.481.323-.879.018-.551l.306-.486c-.054.118-.006.156-.1.323.191-.092.155-.442.224-.628a4.629,4.629,0,0,1,.383-.669,1.557,1.557,0,0,1,.325-.63c.074-.262-.075-.053-.087-.142.114-.284.235-.563.34-.85.088-.02.311-.02.29.121.054-.353-.166-.194.02-.686.039.336.335-.623.356-.151a5.1,5.1,0,0,0,.557-1.562c-.028-.318-.208.481-.314.417.336-1.306.027-1.467.292-2.411l-.084.243a3.258,3.258,0,0,0,.026-.91c.1.194.533-.616.585-1.647-.065-.091-.2.554-.3.375l.046-.669c.016-.048.034.028.044.115-.011-.6.254-1.117.079-1.3l.206-.622-.088.249c-.071-.085-.109-.764-.161-.9a4.052,4.052,0,0,1-.079-1.334c-.042.132-.133.447-.239-.086.261-.039-.148-1.14-.026-1.153-.043-.219-.1-.615-.2-.612l.153-.007c-.208.006-.442-.767-.718-1.321.323.014-.291-.611-.182-.968-.2-.03-.588-.935-.778-.951-.253-.4-.079-.448-.091-.584l-.179-.15a8.689,8.689,0,0,0-.82-1.452l-.435-.284-.053-.191c-.084-.033-.365-.326-.251-.094l-.162-.207c-.158.107-.268-.256-.686-.586-.059-.109,0-.115.091-.048-.175-.194-.03-.175-.081-.323.093.163-.881-.46-.462.109-.02.084-.341-.17-.5-.373l.011-.227-.337-.094a5.363,5.363,0,0,1-.567-.689c.242.22.751.281.131-.312a5.747,5.747,0,0,0,.756.523c-.123-.128-.177-.2.072-.059-.521-.431-.233-.084-.726-.53.129-.084.026-.246-.368-.676l.246.374a.191.191,0,0,1-.088-.027c.109.123.128.172.114.237-.1-.09-.69-.383-.709-.524.337.613-.982-.634-.759-.246-.085-.018-.434-.312-.423-.4.49.27-.2-.4-.069-.418-.183-.1.257.364.01.228a2.48,2.48,0,0,1-.488-.582l.122.065-.346-.373c-.11,0,.3.408-.086.142-.074-.1-.457-.369-.408-.4.235.062.2-.146.519.088-.259-.206-1.081-.848-.842-.474l-.3-.251c.151.2.611.724-.009.246l.024-.019-.494-.254-.137-.209c-.018.035-.106.007-.263-.12-.014-.068-.153-.2-.1-.238-.467-.358-.477-.267-.564-.281-.267-.192-.346-.292-.171-.268-.345-.293-.995-.745-1.205-.987-.536-.3.085.1-.263-.026a7.2,7.2,0,0,0-2.543-1.639c.136.331-.253-.112-.514,0,.23.03-.787-.573.039-.248l-.5-.209c-.286-.272.854.3.417-.1-.565-.255-1.029-.179-1.682-.5.284-.08-.55-.119-.326-.23a1.583,1.583,0,0,1,.553.125l-.111-.073c-1.3-.447-.433.054-1.146-.024-.806-.165-.611-.263-.644-.349a2.689,2.689,0,0,0-.771-.081c.523-.025.917.244.667.305a2.294,2.294,0,0,0-1.44-.109,8.835,8.835,0,0,1,1.842.473c.154-.016.178-.209.787.042-.414-.038,0,.1.1.153-.091-.128.443.089.638.128.142.133-.433.077.161.331l.2-.166c.225.128-.159.109.359.269-.313,0,.014.188-.673-.036a6.77,6.77,0,0,0,1.9.652c-.067-.02-.087,0-.154-.016a2.39,2.39,0,0,1,.564.225c.364.258-.356-.081-.285.03.212.108.419.226.624.346.009.013.01.018.007.022.178.068.344.142.369.225a3.5,3.5,0,0,0-.48-.049c.241.078.479.165.717.257-.108.019.451.434-.026.2.318.183.623.387.933.583l-.011.176c.23.13.253.111.007-.086.289.237,1.506.77,1.167.89a20.073,20.073,0,0,1,1.841,1.256c-.713-.4.608.717-.1.23.346.366.53.305.851.535.243.286.024.293-.319.083l.4.244-.026.017.367.2c.28.337-.025.172.3.475l.159-.039.179.254c-.048-.118.173.029.421.234l-.025.018.311.24c-.344-.2.249.258.053.211.247.225.251.231.712.62l-.016-.138c.632.476-.062.117.391.561l.044-.1c.537.758,1.181,1.017,1.551,1.6-.279-.269-.3-.114-.274-.128.423.4,1.024,1.121,1.483,1.521.008.268.022.326.315.862.261.355.31.4.466.469.181.391.673,1.029.575,1.108.124.044.169.342.346.513l-.02.065.078-.08c.115.774.661,1.107.716,1.9l-.065-.115.133.29c-.029.062-.094-.053-.155-.048a12.573,12.573,0,0,1,.357,1.416l.012-.3a2.258,2.258,0,0,1,.212.848c-.247-.558.072.485-.041.594-.021-.1-.057-.2-.085-.305.08.42.055.425.165.377.08.558-.161.4-.019.9,0-.123-.013-.244-.019-.365.048-.113.168.145.169.393-.015.059-.059.236-.075.048.057.442,0,1.108.017,1.305-.044.239-.114.155-.137.025.043.95-.05.423-.045,1.38l-.058-.024.021.334-.2.442.1-.153a3.763,3.763,0,0,1-.141.865l-.056-.161c-.126.879-.364.964-.459,1.809-.032.051-.022-.082-.016-.151-.091.79-.3.523-.392,1.323-.012-.055-.074.015-.089-.022l-.058.359-.1-.064.07.334-.191.168.006.151c-.339.283-.38.851-.732,1.276l.172-.028c-.209,1.363-1.372,2.735-1.981,4.247l-.094-.079-.174.665c-.244.281.006-.24-.1-.166-.262.673.026.348-.319,1.112-.274.34,0-.17.042-.373a15.619,15.619,0,0,1-1.121,2.231c.007.018.01.058.03.036a13.873,13.873,0,0,1-.865,1.567c-.04-.039.023-.168.086-.3a2.331,2.331,0,0,0-.325.583l.02-.239c-.24.372-.585,1.156-.738,1.18.066-.023.132.042-.064.369-.253.094-.477.927-.882,1.4a3.5,3.5,0,0,1,.162-.365,2.3,2.3,0,0,0-.371.773l-.018-.109-.67,1.267c-.269.077-.726,1.136-.783.982-.289.42.3-.311-.036.237-.159.1-.293.505-.376.416l.026-.065-.243.38.062-.3c-.194.337-.256.639-.194.705-.251.273-.522.722-.7.8l.057-.128c-.564.868-1.253,1.2-1.564,1.979-.051.037-.067.016.007-.086l-.391.5.021-.173-.531.917-.04-.047c-.441.537-1.068,1.428-1.631,2.124l.063-.121c-.546.815-.639.694-1.04,1.29a.172.172,0,0,1,.028-.075l-.4.5.045-.146c-.207.448-1.017.919-.741.769a3.753,3.753,0,0,0-.383.743c-.455.533-.17.079-.492.373a7.418,7.418,0,0,1-.822.987l-.035-.05c-.21.242-.314.417-.612.752l.07-.117c-.4.62-.746.547-.947,1.146-.238.2-.626.629-.69.528-.583.7-1.055,1.229-1.656,1.906-.24-.038-.132.143-.606.44l.1.048c-.916.894-2.149,1.718-3.183,2.671l-.1-.053-.134.274c-.575.493-1.251,1.038-1.9,1.552s-1.251,1.03-1.733,1.392a7.814,7.814,0,0,1-1.19,1.112l.043-.052a13.636,13.636,0,0,1-1.943,1.519,1.01,1.01,0,0,1,.008-.134c-.033.158-.093.1-.1.055a.274.274,0,0,0,.008.112c-.042.116-.067.053-.078,0a.407.407,0,0,1,.017-.185.213.213,0,0,1-.118.025.13.13,0,0,1,.025-.05l-.05.023a.657.657,0,0,1,.094-.13.065.065,0,0,1-.03-.012c-.009-.01-.01,0-.028-.027l-.069-.128a1.77,1.77,0,0,0-.3-.44c.028-.06-.077-.513.055-.179-.169-.578-.3-1.191-.434-1.821l.019.3c-.094.062-.289-.488-.306-.8.169.374.152,0,.191-.184-.113-.251-.041.248-.127.121a4.6,4.6,0,0,1-.32-1.195l.084.189c-.136-.442,0-.688-.106-1.129-.167-.381-.154-.692-.313-.572-.159-.569.072-.248.049-.438a2.619,2.619,0,0,1-.189-1.191c-.326-.262-.23-1.572-.472-1.645l.025-.5c-.061,0-.211-.07-.313-.449-.011-.375.108-.309.146-.432l-.267-.2c-.193-2.132-.893-4.856-1.134-7.185-.239-1.014-.582-2.284-.769-3.486l.053.128-.158-1.2.058.881a6.317,6.317,0,0,1-.194-.7,37.746,37.746,0,0,0-.731-4.673c-.43-1,.1-.73-.249-1.7.038.082.079.107.117.179-.265-1.061-.406-1.636-.723-2.685.267.084-.115-.7.031-.621l-.115-.073c.025-.248-.036-.811.049-.741l-.194-.453.1-.055a7.315,7.315,0,0,1-.158-2.307,26.431,26.431,0,0,1-.4-5.873,5.086,5.086,0,0,1-.066-1.266l.15-.457a4.319,4.319,0,0,1-.009-1.326c.014,0,.022.021.026.051a7.742,7.742,0,0,0,.081-1.3c.075-.488.222-.949.312-.781-.206-.084.214-1.016.214-1.016l.253-1.063c.166-.68.439-1.65.837-2.808a31.9,31.9,0,0,1,4.21-8.2,21.756,21.756,0,0,1,3.5-3.8,16.626,16.626,0,0,1,4.113-2.557,16.079,16.079,0,0,1,3.985-1.109,20.653,20.653,0,0,1,2.975-.156c.212-.062.774,0,.6-.17.43.082.569.309.68.234-.552-.226.261-.2-.272-.486l.376.08c.1-.049-.526-.062-.4-.164l-.154.155a1.778,1.778,0,0,1-.541-.265,2.086,2.086,0,0,1-1.187.032c.064,0,.127,0,.19.011-.556-.052-.33-.156-.444-.2l.125.012-.471-.137c.357.1.974-.007.658-.024-.678-.112.171.062-.341.041-.316-.017-.221-.112-.2-.17-.192-.017-.384-.009-.576-.016.021-.088.383.016.151-.083-.245.025-.488.046-.729.091-.147-.231-.783.14-1.132-.034.521-.1-.054-.072.021-.151-.431.053-.862.112-1.286.207-.128-.007.324-.134.132-.086-.254-.014-.387.132-.516.155-.124-.033-.944.234-.948.091-.883.165-.3.28-1.109.475-.134-.049.612-.242.234-.206-.267.106-.534.212-.793.337a.62.62,0,0,1,.41-.3c-1.117.357-1.991.645-2.822,1a8.177,8.177,0,0,0-2.413,1.528c-.3.116.122-.2.256-.389-1.143,1.108-1.857,1.294-2.783,2.3l.05.078a20.562,20.562,0,0,0-3.8,4.994l.179-.19a10.182,10.182,0,0,1-.412,1.038c-.063.027-.056-.313-.3.252.086-.1.232-.314.236-.225a18.985,18.985,0,0,0-1.765,3.457,40.473,40.473,0,0,0-1.509,4.526,41.961,41.961,0,0,0-.929,6.173,36.934,36.934,0,0,0,.076,6.141c-.054-.6.186-.358.17.094-.266,1.261.269,2.111.178,3.377a54.072,54.072,0,0,0,1.066,6.248l-.1.057a2.986,2.986,0,0,0,.156.7l-.03,0c.092.764.356,1.663.384,2.106l.122.007c.09.448-.049.249.1.7l-.061,0,.207.518c-.213-.016.211,1.271.184,1.647.142.575.433,1.662.557,2.551a12.792,12.792,0,0,0,.207,1.962c.282,1.336.688,3.244.992,4.954l.126-.057.1.443c-.03,0-.034.063-.062,0-.081.374.252,1.016.233,1.392.074-.249-.045-.315-.093-.569-.01-.378.187-.054.222.451l-.031,0,.137.322c-.1.058-.081.374-.175.434.324,1.458.709,2.416.98,3.932-.148-.13.26,1.077,0,.817.269.889.13-.184.36.2.05.253.162.507.1.568-.074-.109-.077.231-.14.03l.146.6c0,.061-.059-.066-.087-.13.384,1.2.327,2.221.783,3.371.094.065-.112-.47-.016-.4a4.722,4.722,0,0,1,.337,1.1,3.144,3.144,0,0,0,.1.428,5.945,5.945,0,0,0,.406.911c-.088-.1-.166-.209-.253-.319.328.56.5.736.97,1.632.027.267-.532-.6-.791-1.06.311.714,1.343,2.09,1.088,1.536a6.133,6.133,0,0,1,.508.79c.033.046.056.137.094.143l.125-.049c.083-.033.166-.067.259-.113.012-.043-.62.276-.208-.035l.762-.41a6.432,6.432,0,0,0,.908-.572l1.544-1.109c.012.028.083.032.037.084.412-.5.525-.237,1.183-.8" transform="translate(-481.745 -293.115)" fill="#fff"/>
    <path id="Path_12253" data-name="Path 12253" d="M506.4,335.878a19.571,19.571,0,0,0,4.335-.493,3.646,3.646,0,0,1,1.028-.495l.107.185.312-.178c.158.013-.243.125.024.118l.081-.166c.055.078.862-.3.367.075a12.165,12.165,0,0,0,1.27-.583c.28-.135.078-.233.4-.362.091.017-.085.1-.023.151a1.629,1.629,0,0,0,.855-.7,2.557,2.557,0,0,1,.712-.776l-.044.073c.087-.147.327-.336.307-.363-.23-.078-.052.2-.354.286-.1-.153.209-.3.105-.391.206-.093.225-.258.354-.392.305-.143.559-.531.818-.621a1.738,1.738,0,0,1,.233-.66c.254-.1.073.128.309-.1l-.053-.1c.169-.2.168-.152.2-.116.166-.229.02-.272.27-.526l-.026.219a4.645,4.645,0,0,1,.384-.62c.045.038-.031.16-.1.241.236-.086.12-.323.189-.4-.054,0-.2.2-.225.048.11-.142.072-.394.24-.443l-.01.218c.113-.362-.01-.234.225-.585,0,.024.024.025.039.044.012-.3.274-.55.453-.9l-.007.079c.038-.158-.011-.276.03-.35-.146.177-.148.109-.247.085.277-.194.007-.485.281-.877.053.03.075.163-.035.258.1.218.226.3.178.6.041-.184.1-.39.152-.318l-.126-.118c.039-.1.083-.179.115-.255-.077-.082-.241.137-.206-.121.059-.283.212-.076.161-.145.088-.388-.1-.216.085-.546,0,.04,0,.118-.027.143.162-.227.2-.63.417-.639.028.053.081.08.03.171l-.026-.014c.032.331.048-.249.183-.1-.1-.015.044-.369.114-.529l-.132.015c-.163-.656.221.1.346-.457.028-.372-.072.122-.088-.116a1.743,1.743,0,0,0,.262-.65c.074-.084.182-.27.318-.255,0-.227.21-.648.106-.8-.188.347.063.4-.213.794l-.1-.151c.083-.294.091-.69.18-.887-.033.037-.069.049-.092.018a4.741,4.741,0,0,1,.016-.987c.127-.039.072.2.057.383.131-.256.053-.28.139-.7.108-.01-.037.284.055.345l.022-.472a.085.085,0,0,0,.021,0c-.166-.085.053-.355.016-.65.038-.686-.2-.8-.349-1.166.046-.1.091-.133.136-.09-.076.168-.016.137.031.194-.017-.227.161-.509.236-.383-.07-.369-.086.137-.152-.086l-.018-.5c-.084.067-.091.243-.18-.009a5.31,5.31,0,0,1-.065-.6c.049.035.123-.107.147.108.015-.142-.012-.36-.11-.429-.03.32-.16-.493-.261-.239l.017-.318c.013.07.073.066.077.172.117-.113-.09-.243-.123-.345,0-.113-.04-.395,0-.43a.462.462,0,0,1-.047-.387c-.067-.134-.089.013-.143-.016l-.129-.48c.063-.049.247-.155.3-.092-.133-.158-.235.007-.327-.263.194.106-.026-.4.221-.232a1.523,1.523,0,0,0-.284-.862c-.173-.1.056.286-.061.316-.337-.651-.647-.543-.844-1.026l.034.135c-.211-.254-.182-.23-.358-.346.179,0,.157-.516-.158-.959-.086,0,.039.332-.106.319l-.2-.286c0-.028.038-.01.077.019-.22-.231-.18-.592-.374-.568l-.012-.392v.16c-.079,0-.319-.26-.386-.3a.9.9,0,0,1-.375-.586c0,.087-.008.291-.211.1.183-.154-.327-.5-.229-.578-.076-.086-.161-.286-.244-.225l.121-.089c-.17.123-.454-.18-.7-.38.251-.156-.267-.226-.2-.509-.176.1-.468-.332-.62-.243-.193-.151-.058-.27-.067-.357l-.134-.019c-.037-.149-.383-.46-.568-.671l-.306-.021-.03-.119c-.058.01-.241-.1-.174.031l-.1-.091c-.119.143-.188-.069-.458-.162-.035-.061,0-.088.068-.073-.112-.081-.009-.124-.036-.219.051.094-.591-.008-.336.272-.023.078-.225,0-.32-.1l.024-.182-.23.061c-.188-.091-.206-.229-.338-.336.15.083.5-.063.112-.3a1.791,1.791,0,0,0,.483.132c-.076-.056-.107-.1.055-.076-.328-.148-.156.022-.462-.149.094-.117.037-.211-.206-.41l.144.21a.112.112,0,0,1-.058.012c.067.058.077.09.063.148-.06-.037-.446-.047-.45-.154.185.376-.618-.152-.493.082-.054.016-.271-.091-.258-.168.311.039-.113-.253-.023-.323-.116-.014.151.207,0,.186a.834.834,0,0,1-.3-.3l.079.007-.214-.182c-.072.047.179.231-.062.154-.044-.059-.286-.132-.255-.181.152-.041.133-.2.338-.13-.165-.072-.694-.293-.541-.07l-.193-.091c.1.109.386.37,0,.211l.015-.025-.314-.011-.089-.12c-.012.037-.066.049-.166.007-.01-.052-.1-.1-.071-.157-.3-.107-.3-.026-.355,0-.171-.048-.225-.1-.118-.154a5.2,5.2,0,0,1-.784-.324c-.338-.019.058.045-.154.1-.213-.327-1.061-.337-1.611-.334.133.234-.153.018-.262.22.123-.069-.514-.2-.031-.242a2.758,2.758,0,0,0-.3.02c-.207-.129.5-.09.189-.266-.35.011-.558.257-.96.219.115-.175-.3.087-.225-.1.076-.074.192-.062.306-.088l-.075-.025c-.769.06-.194.219-.56.39-.434.118-.378-.035-.425-.105a.755.755,0,0,0-.4.159c.24-.193.531-.047.43.08-.248-.137-.646.2-.727.307.66-.039.421-.155,1.038-.106.063-.077.017-.232.379-.229-.2.119.03.087.094.1-.081-.088.234-.071.337-.117.1.067-.182.237.162.243l.05-.229c.139.028-.049.163.238.1-.15.123.049.169-.327.232.455.158.684-.124,1.054-.184-.038.012-.044.041-.081.054a.6.6,0,0,1,.325-.04c.228.077-.2.079-.139.146l.374.037a.024.024,0,0,1,.007.017c.1-.021.2-.019.223.039a1.49,1.49,0,0,0-.255.166c.134-.037.269-.06.406-.09-.054.065.29.179.011.184.188.019.374.062.561.091l.009.156c.137.011.149-.018,0-.077.174.076.905-.008.714.246a4.577,4.577,0,0,1,1.126.271c-.437-.036.367.347-.063.234.207.161.321.039.517.1.145.139,0,.235-.2.2l.245.04-.016.025.223.017c.16.171-.026.154.166.276l.105-.095.1.142c-.022-.081.109-.041.26.028l-.017.025.187.08c-.212-.03.146.118.019.154a3.02,3.02,0,0,0,.43.228v-.105c.392.139-.053.122.221.3l.038-.1c.3.4.734.346.955.646-.179-.1-.2.034-.185.012a6.43,6.43,0,0,0,.971.536c0,.189-.008.242.2.488.182.14.216.151.33.132.133.189.513.39.444.485.1-.03.136.148.275.177l-.011.051.056-.091c.134.434.58.365.715.8l-.067-.03.146.091c-.014.051-.082.021-.131.058.181.184.34.387.508.582l-.042-.165c.115.114.266.131.341.313-.322-.133.165.2.1.319l-.134-.1c.147.17.147.17.217.09.211.208-.032.281.225.422l-.115-.153c.012-.082.166-.026.245.077.007.034.026.133-.046.064.171.16.323.479.417.536.045.121-.04.128-.1.09.359.35.105.194.446.559l-.054.025.149.106.017.268.022-.112a1.266,1.266,0,0,1,.23.383l-.113-.024c.256.375.119.52.4.856,0,.033-.055-.016-.082-.04.283.305-.011.327.284.629-.036-.012-.056.042-.085.037l.115.146-.116.029.215.076-.077.145.078.045c-.141.248.08.456-.009.748l.132-.082c.484.562.174,1.482.355,2.238l-.119-.006.157.316c-.084.177-.107-.1-.165-.044.081.342.18.137.221.545-.077.208-.088-.073-.132-.17a3.17,3.17,0,0,1,.015,1.215c.016.007.035.026.043.012a4.1,4.1,0,0,1-.1.876c-.053-.015-.052-.086-.053-.156-.021.1-.078.231-.035.326l-.086-.121c-.051.21-.035.639-.163.663.05-.016.136.011.091.195-.2.063-.035.519-.2.792-.032-.046.01-.264-.007-.2a.65.65,0,0,0-.016.433l-.06-.058c-.027.237-.062.474-.1.712-.2.047-.185.648-.294.56-.09.239.146-.176.059.136-.1.056-.064.288-.171.235l0-.037-.068.215-.06-.174a.4.4,0,0,0,.093.406c-.126.15-.175.413-.306.45v-.074c-.157.5-.628.652-.622,1.093-.028.02-.053,0-.025-.052l-.145.276-.044-.105-.118.517-.049-.034-.642,1.12.012-.069c-.184.439-.3.337-.447.647a.063.063,0,0,1,0-.044l-.184.239,0-.088c-.036.262-.532.376-.36.344-.038.132-.134.334-.105.412-.221.239-.111,0-.286.113-.168.158-.126.264-.4.431l-.035-.049c-.1.1-.147.19-.3.328l.029-.061c-.177.317-.435.1-.493.472-.137.048-.349.213-.4.1a6.164,6.164,0,0,1-.943.694c-.143-.152-.08.046-.359.042l.058.09a13.684,13.684,0,0,1-1.9.383l-.039-.1-.105.138a15.593,15.593,0,0,1-2.181.13,1.542,1.542,0,0,1-.768.124l.032-.013a4.7,4.7,0,0,1-1.624-.149c.043-.036-.007-.076.061-.094-.153.087-.323-.065-.439-.093l.121.107a.426.426,0,0,1-.443-.174l-.273.039c-.013-.015-.034-.037-.032-.054l-.058.041-.091-.169c-.068.016-.4-.058-.542.03-.009-.052-.225-.164-.04-.128-.294-.106-.575-.248-.862-.374l.118.1c-.023.1-.315.06-.429-.051.211,0,.075-.129.033-.234-.14,0,.063.131-.022.156a1.013,1.013,0,0,1-.56-.2l.1.007c-.213-.067-.221-.277-.415-.369-.214-.012-.3-.159-.352.02-.264-.112-.034-.161-.1-.223-.159.009-.471-.24-.462-.35-.276.141-.585-.493-.753-.35l-.118-.237a.255.255,0,0,1-.326.033c-.1-.162-.007-.218-.014-.3l-.23.1a25.665,25.665,0,0,1-2.4-2.612,7.8,7.8,0,0,1-1.21-1.267l.063.035c-.108-.167-.211-.337-.31-.51l.177.407a1.349,1.349,0,0,1-.267-.247c-.327-.593-.725-1.344-1.052-1.851-.383-.29.117-.308-.165-.639.031.028.069.032.1.056-.187-.4-.268-.664-.476-1.174.257.037-.042-.351.1-.317l-.107-.036c.05-.129.046-.419.123-.383l-.147-.231.1-.029c-.021-.32-.144-.992.067-1.159a6.32,6.32,0,0,1,.123-2.8,1.185,1.185,0,0,1,.037-.6l.179-.18c.023-.211-.058-.479.086-.643a.04.04,0,0,1,.023.033c.048-.216.183-.388.154-.625.1-.226.257-.42.332-.3-.184-.105.24-.463.24-.463s.352-.7,1.014-1.824a22.843,22.843,0,0,1,2.659-3.844,7.26,7.26,0,0,1,1.8-1.461,6.07,6.07,0,0,1,2.05-.681c1.453-.225,2.921-.132,3.775-.284.126-.082.442-.1.346-.235.243,0,.319.2.383.108-.309-.124.146-.244-.146-.425l.207.011c.053-.064-.29.034-.217-.088l-.09.179a.512.512,0,0,1-.287-.186c-.167.048-.307.287-.652.118l.1,0c-.3-.041-.163-.151-.22-.192l.066.011-.237-.132c.18.091.519-.013.353-.028-.349-.107.085.059-.186.043-.167-.015-.106-.109-.09-.167l-.3-.035c.022-.087.2.032.089-.077l-.39.044c-.045-.231-.422.06-.574-.165.279-.03-.017-.078.033-.147-.226-.016-.452-.028-.679-.035-.063-.035.183-.059.078-.053-.125-.071-.212.044-.281.042-.058-.067-.508-.007-.49-.152-.472-.093-.191.194-.626.129-.064-.088.343-.041.145-.123-.151.016-.3.041-.45.07a.255.255,0,0,1,.248-.153c-.622-.012-1.129-.066-1.636-.052a2.787,2.787,0,0,0-1.53.444c-.2-.016.077-.122.158-.243-.731.529-1.232.425-1.837.92l.046.077a8.518,8.518,0,0,0-2.477,2.4l.13-.074a2.918,2.918,0,0,1-.228.563c-.053,0-.082-.218-.236.074.065-.039.17-.134.183-.076a20.78,20.78,0,0,0-2.5,3.756,25.931,25.931,0,0,0-1.283,3.142,11.225,11.225,0,0,0-.528,3.433c0-.334.217-.184.16.063-.382.682.072,1.168-.139,1.85a16.252,16.252,0,0,1,.139,1.745,4.154,4.154,0,0,0,.49,1.843l-.092.059c.022.213.113.245.2.444l-.03.007a9.6,9.6,0,0,0,.651,1.2l.11-.048c.153.222,0,.17.2.359l-.053.027.267.191c-.189.1.4.585.445.8a10.944,10.944,0,0,1,.961,1.072c-.027.143.374.6.6.925.533.541,1.323,1.284,2.039,1.942l.075-.114.2.156c-.021.021-.006.054-.044.04.051.247.479.337.584.533-.026-.174-.128-.123-.241-.215-.122-.18.113-.156.294.066l-.023.02.195.061c-.048.1.061.242.016.339.7.479,1.266.653,1.99,1.13-.137.058.556.286.307.376.5.177,0-.185.283-.2.127.071.288.091.277.17-.083.011.049.165-.065.127l.318.146c.023.027-.06.022-.1.015.692.2,1.105.653,1.758.765.071-.053-.235-.1-.164-.16.662.068.491.327,1.112.4l-.151.063a.78.78,0,0,1,.609.093c.026.132-.292.02-.46.03.216.071.775.184.634.034.27.02.342.145.477.207.01-.028-.228-.132-.063-.152a6.2,6.2,0,0,0,1.34.306c-.007.029.018.076-.022.087.375-.119.309.145.809.157" transform="translate(-483.297 -294.997)" fill="#fff"/>
    <path id="Path_12293" data-name="Path 12293" d="M504.2,328.507a22.7,22.7,0,0,0,2.211.647,1.037,1.037,0,0,1,.617-.073l-.015.211.194-.035c.065.076-.147.015-.028.116l.09-.117c0,.078.47.111.137.221.243.035.489.056.736.074.165.012.1-.172.282-.114.035.063-.066.04-.053.116.555.166.624-.406,1.121-.35l-.039.032c.08-.064.24-.078.239-.109-.09-.2-.075.126-.241.02,0-.179.176-.118.151-.252.12.049.174-.058.268-.084.185.079.409-.04.565.062.07-.077.118-.264.284-.321.161.1.007.137.192.135l0-.107c.142-.028.13.006.141.053.15-.044.073-.178.277-.185l-.066.134a1.158,1.158,0,0,1,.374-.165c.02.057-.058.084-.12.09.164.1.15-.132.21-.139-.035-.035-.171,0-.15-.12.1-.016.127-.215.243-.135l-.052.138c.147-.166.039-.165.265-.238-.007.013.01.033.016.054.071-.181.293-.172.481-.287l-.02.046c.055-.078.044-.181.088-.2-.136.017-.124-.027-.188-.1.23.054.094-.289.348-.364.033.049.027.145-.066.137.035.2.112.324.018.481.065-.089.149-.177.17-.1l-.07-.151c.045-.04.09-.062.126-.09-.043-.1-.2-.061-.129-.2.089-.136.168.081.142.009.128-.183-.04-.19.152-.276-.006.024-.02.069-.043.069.158-.042.244-.262.411-.146.014.047.051.093,0,.119l-.018-.023c-.025.217.075-.123.157.042-.081-.07.092-.2.174-.249l-.107-.063c-.046-.479.159.179.339-.086.075-.2-.076.033-.055-.114.1-.086.225-.049.309-.237a.369.369,0,0,1,.3.013c.03-.131.281-.26.21-.395-.211.1-.012.251-.3.339l-.062-.134c.109-.127.183-.332.281-.4a.078.078,0,0,1-.083-.034c.086-.223.014-.346.164-.513.12.037.035.139-.011.224.162-.071.091-.123.233-.3.1.041-.08.13,0,.2l.094-.237.019.01c-.137-.116.106-.16.133-.321.155-.331-.038-.48-.088-.708.063-.03.109-.028.142.009-.1.051-.044.059-.012.105.032-.115.254-.182.3-.092.021-.2-.111.032-.12-.1l.1-.243c-.1,0-.146.077-.164-.071a1.717,1.717,0,0,1,.1-.3c.036.034.144,0,.107.1a.17.17,0,0,0,.017-.234c-.123.132,0-.276-.169-.2l.123-.133c-.012.035.045.053.013.1.146-.01,0-.137,0-.194.038-.049.08-.191.134-.192a.155.155,0,0,1,.1-.184c-.011-.08-.086-.022-.125-.052.024-.082.034-.168.051-.253.076,0,.287.006.309.05-.055-.11-.216-.067-.188-.215.133.1.138-.184.295-.039.123-.075.139-.332.106-.475-.111-.094-.074.146-.193.128-.024-.391-.339-.418-.291-.689l-.032.071c-.071-.169-.055-.15-.158-.244.145.045.4-.212.335-.493-.077-.016-.126.169-.247.132l-.04-.179c.011-.014.037,0,.058.025-.069-.155.162-.33-.019-.353l.185-.2-.08.081c-.076-.012-.128-.19-.163-.223a.288.288,0,0,1,0-.368c-.052.045-.169.152-.225.017.234-.052.014-.319.135-.346-.016-.058.027-.181-.072-.16l.146-.031c-.2.043-.259-.166-.344-.312.279-.054-.073-.167.138-.321-.192.036-.178-.252-.34-.218-.054-.115.115-.172.16-.226l-.09-.027c.056-.094-.033-.322-.038-.481l-.21-.047.045-.078c-.048,0-.123-.086-.146,0l-.025-.068c-.167.081-.092-.065-.228-.153a.063.063,0,0,1,.09-.041c-.032-.064.065-.083.1-.148-.015.063-.416-.057-.392.148-.058.048-.162-.017-.169-.091l.121-.12-.192.021c-.076-.078-.009-.173-.039-.257.054.068.375,0,.248-.2.083.094.193.1.256.135-.02-.046-.019-.076.081-.046-.142-.134-.119,0-.233-.146.131-.072.142-.142.092-.305l-.022.161a.092.092,0,0,1-.046,0c.012.046,0,.07-.043.109-.02-.031-.273-.072-.215-.148-.09.279-.327-.159-.375.017-.047.009-.123-.088-.072-.142.179.054.07-.19.166-.232-.068-.019-.016.16-.108.133-.062-.064-.029-.171-.023-.24l.045.013-.032-.151c-.072.027-.017.184-.126.106,0-.046-.1-.123-.056-.157.118-.016.2-.136.284-.063-.062-.07-.263-.285-.3-.1l-.067-.086c0,.093.032.307-.123.157l.024-.018-.183-.04.016-.1a.065.065,0,0,1-.1-.012c.024-.04,0-.091.051-.128-.11-.118-.161-.053-.206-.041-.069-.057-.069-.1.024-.132-.071-.1-.233-.245-.235-.362-.166-.067,0,.045-.137.05.077-.281-.324-.455-.553-.6-.092.22-.073-.028-.243.1.09-.017-.081-.3.138-.2l-.124-.075c0-.161.242.082.237-.146-.13-.1-.372.031-.471-.152.148-.089-.149-.048,0-.16.067-.022.1.025.151.049l-.008-.046c-.259-.257-.2.088-.41.064-.188-.105-.067-.2-.034-.269-.01-.045-.115-.087-.186-.085.165,0,.145.222.036.271.026-.2-.256-.194-.341-.166.142.333.17.128.283.459.064-.024.159-.165.254,0-.133,0-.049.078-.041.118.031-.1.117.039.182.04-.01.089-.212.112-.1.245l.163-.156c.032.067-.123.11.021.156-.132.044-.095.154-.266.068.061.282.33.135.52.189-.023,0-.044.02-.067.02.067-.02.117.027.165.052.055.114-.137.016-.153.081l.146.117a.03.03,0,0,1-.007.016c.056.011.1.028.079.081a1.7,1.7,0,0,0-.219.073l.245.019c-.065.039.029.2-.107.146l.228.174-.088.123c.067.028.09.008.044-.061.044.09.487.129.238.295.246.075.259.172.494.328-.24-.067.019.293-.172.168.032.138.176.053.256.119.008.114-.134.172-.237.128l.125.05-.025.016.129.03c0,.135-.105.11-.054.211l.121-.061-.016.107c.031-.058.1-.024.149.039l-.025.016.076.067c-.121-.035.027.091-.076.108a.709.709,0,0,0,.15.185l.061-.072c.177.122-.105.079-.027.219l.082-.065c-.032.29.293.282.276.49-.067-.074-.16.007-.133-.006.1.111.188.331.369.41-.114.117-.149.149-.147.316.054.1.073.1.169.1,0,.119.141.277.043.322.091-.008.018.1.109.125l-.038.027.095-.045c-.147.254.228.266.095.511l-.037-.023.063.065c-.04.025-.076,0-.135.015.035.118.052.24.075.36l.059-.09c.029.073.14.1.1.2-.188-.109.026.121-.091.169l-.056-.068c.033.1.028.1.132.073.059.132-.181.131-.049.238l-.01-.091a.114.114,0,0,1,.159.075c-.014.017-.053.067-.073.023.06.1.031.275.074.318a.084.084,0,0,1-.133.024c.114.222-.01.105.1.331h-.06l.076.075-.123.118.076-.043c.012.074.055.121.023.21l-.089-.034c.057.212-.144.239-.033.443-.017.013-.044-.02-.056-.036.126.194-.161.127-.01.324-.028-.014-.068,0-.091-.007l.045.09-.118-.021.165.089-.128.035.052.04c-.239.055-.08.206-.278.292l.152.008c.242.374-.323.645-.318,1.023l-.109-.047.078.192c-.116.042-.077-.083-.143-.081,0,.174.146.13.1.317-.114.056-.066-.066-.086-.123-.023.179-.063.457-.192.532.013.011.028.027.037.025-.013.128-.13.244-.194.358-.045-.032-.034-.063-.027-.1-.03.036-.1.068-.072.131l-.061-.095c-.071.07-.1.281-.207.23.044.016.115.072.063.139-.176-.071-.081.228-.243.277-.023-.04.03-.124.011-.1-.079.023-.048.125-.043.208l-.044-.061-.137.3c-.159-.086-.187.233-.267.122-.086.071.125-.007.035.105-.08-.03-.069.114-.145.023l0-.021-.066.073-.032-.128a.287.287,0,0,0,.041.276c-.105,0-.163.11-.257.049l.007-.04c-.148.183-.474-.051-.5.2-.019-.007-.034-.033-.011-.046l-.114.066-.019-.093a2.362,2.362,0,0,1-.121.219l-.025-.053c-.133.05-.317.169-.481.247l.015-.037c-.149.163-.194.016-.312.121,0-.016,0-.024.007-.028l-.123.041.012-.064c-.062.149-.306-.1-.222,0-.039.07-.118.154-.121.228-.143.033-.049-.068-.146-.1-.1.015-.108.113-.257.08l0-.059c-.064.02-.1.067-.2.081l.026-.03c-.146.135-.2-.159-.309.1-.067-.047-.19-.007-.184-.126a2.418,2.418,0,0,1-.55.131c-.011-.2-.044.011-.15-.117l0,.105c-.287-.016-.555-.336-.857-.369l.018-.1-.089.1-.941-.421c-.1.015-.276.077-.385-.019l.019-.006a1.311,1.311,0,0,1-.677-.328c.037-.029.031-.069.071-.077-.114.066-.133-.075-.179-.106l.013.1c-.12.048-.153-.1-.14-.184l-.16.023a.092.092,0,0,1,.007-.048l-.049.032.031-.147c-.041.007-.188-.056-.306.012.019-.043-.043-.142.039-.107-.1-.105-.208-.2-.3-.31l.016.083a.129.129,0,0,1-.221-.042c.123,0,.107-.1.133-.185-.081,0-.027.1-.089.123-.1,0-.243-.086-.239-.146l.063,0c-.1-.042,0-.207-.072-.272-.121-.008-.107-.109-.229.024-.116-.072.058-.117.043-.16-.109.015-.177-.164-.118-.239-.249.107-.137-.323-.326-.213l.045-.159c-.051.031-.172.091-.239.032.008-.1.106-.143.144-.2l-.216.076c-.044-.507-.441-.969-.393-1.479a1.464,1.464,0,0,1-.261-.657l.032.022a1.416,1.416,0,0,1,.03-.237,1.16,1.16,0,0,0-.081.179c-.032-.048-.087-.083-.083-.134a1.994,1.994,0,0,0,.111-.907c-.218-.24.244-.091.09-.311.021.021.055.035.077.054-.042-.217-.05-.339-.119-.6.228.108.045-.143.163-.079l-.09-.054c.077-.027.143-.133.2-.089l-.078-.146.1.033c.058-.123.114-.444.341-.421a3.1,3.1,0,0,1,.64-1.324c-.04-.1.026-.222.073-.32l.166-.029c.024-.11-.047-.292.076-.328a.054.054,0,0,1,.021.027c.037-.1.148-.146.111-.292.072-.092.192-.134.263-.037-.158-.136.165-.166.164-.161a4.746,4.746,0,0,1,.6-.533,2.814,2.814,0,0,1,.6-.342,2.6,2.6,0,0,1,.764-.172c.626-.064,1.58.053,2.492.073a5.168,5.168,0,0,0,2.107-.272c.071-.093.234-.137.193-.266.125-.021.153.167.191.068-.152-.091.089-.256-.051-.406l.105-.01c.031-.069-.151.063-.106-.066l-.057.186a.239.239,0,0,1-.137-.155c-.088.063-.175.313-.344.174l.054,0c-.152-.015-.075-.136-.1-.172l.034.007L510.5,314c.087.077.268-.053.183-.054-.172-.08.04.053-.1.056-.086,0-.047-.1-.035-.158l-.151-.015c.018-.088.1.019.051-.081l-.2.066c0-.228-.221.077-.277-.146.144-.032,0-.077.031-.146l-.336-.036c-.027-.035.1-.056.045-.052-.054-.071-.111.039-.145.032-.02-.065-.249-.034-.218-.18-.212-.132-.123.174-.322.059-.014-.095.171,0,.091-.1h-.224c.026-.04.063-.139.143-.108-.575-.2-.818-.73-1.409-.678-.07-.116.066-.065.132-.128-.432.095-.574-.3-.969-.3l-.009.089a3.32,3.32,0,0,0-1.977.01l.1.035c-.071.109-.216.165-.309.246-.033-.035.013-.209-.17-.1.053.013.146.014.137.063a2.5,2.5,0,0,0-1.229.441,9.145,9.145,0,0,0-1.193.94,15.634,15.634,0,0,0-1.943,2.868c.07-.146.231.018.129.1-.489.128-.214.55-.595.774-.154.647-.694,1.176-.523,1.937l-.106,0c-.064.1,0,.136,0,.245l-.029-.007c-.091.253.021.575-.043.72l.119.012c0,.151-.1.078-.033.233l-.059,0,.121.178c-.209-.01,0,.425-.078.552a3.784,3.784,0,0,1,.23.824c-.09.074-.007.424.012.657.164.414.425.98.662,1.473l.113-.073.077.118c-.026.013-.03.037-.053.026-.077.172.2.264.183.4.065-.124-.04-.091-.077-.164,0-.136.16-.1.188.061l-.027.013.118.049c-.082.067-.069.173-.15.241.278.383.618.512.88.9-.121.041.249.23.035.3.249.159.091-.146.283-.148.05.06.146.081.1.143-.06.007-.046.134-.1.1.045.044.1.081.145.122,0,.024-.049.015-.073.01.356.182.4.574.753.7.067-.041-.092-.1-.025-.145.36.1.146.305.476.411l-.115.042c.128.006.215-.039.306.128-.044.117-.175,0-.276-.009.095.075.359.225.345.081.136.051.123.165.17.234.018-.024-.069-.137.032-.14a2.407,2.407,0,0,0,.587.441c-.016.025-.023.072-.049.075.245-.048.1.179.355.273" transform="translate(-484.807 -296.454)" fill="#fff"/>
  </g>
</svg>
