<svg id="Group_2572" data-name="Group 2572" xmlns="http://www.w3.org/2000/svg" width="26.962" height="25.765" viewBox="0 0 26.962 25.765">
  <path id="Path_12139" data-name="Path 12139" d="M1197.542,523.6v9.969h-5.78v-9.3c0-2.336-.834-3.93-2.926-3.93a3.161,3.161,0,0,0-2.966,2.114,3.976,3.976,0,0,0-.191,1.409v9.709H1179.9s.078-15.754,0-17.384h5.781v2.463c-.012.019-.028.038-.038.056h.038v-.056a5.739,5.739,0,0,1,5.209-2.872c3.8,0,6.654,2.485,6.654,7.824Zm-23.692-15.8a3.012,3.012,0,1,0-.076,6.007h.039a3.013,3.013,0,1,0,.037-6.007Zm-2.927,25.765h5.778V516.187h-5.778Zm0,0" transform="translate(-1170.58 -507.806)" fill="#002A4D"/>
</svg>
