<svg id="linkedin-logo" xmlns="http://www.w3.org/2000/svg" width="20.125" height="19.231" viewBox="0 0 20.125 19.231">
  <path id="LinkedIn" d="M20.125,21.348v7.44H15.812V21.847c0-1.744-.624-2.934-2.185-2.934a2.36,2.36,0,0,0-2.213,1.578,2.952,2.952,0,0,0-.143,1.052v7.247H6.955s.058-11.758,0-12.976H11.27v1.839c-.009.014-.02.029-.028.042h.028v-.042a4.284,4.284,0,0,1,3.888-2.144C18,15.508,20.125,17.363,20.125,21.348ZM2.442,9.558a2.249,2.249,0,1,0-.057,4.485h.029a2.249,2.249,0,1,0,.028-4.485ZM.256,28.789H4.57V15.813H.256Z" transform="translate(0 -9.558)" fill="#fff"/>
</svg>
