<svg xmlns="http://www.w3.org/2000/svg" width="22.213" height="18.052" viewBox="0 0 22.213 18.052">
  <path id="Path_16612" data-name="Path 16612" d="M22.214,50.093a9.113,9.113,0,0,1-2.617.718,4.571,4.571,0,0,0,2-2.521A9.123,9.123,0,0,1,18.706,49.4a4.561,4.561,0,0,0-7.766,4.157A12.938,12.938,0,0,1,1.548,48.79a4.562,4.562,0,0,0,1.41,6.084A4.539,4.539,0,0,1,.894,54.3c0,.019,0,.038,0,.057A4.56,4.56,0,0,0,4.549,58.83a4.562,4.562,0,0,1-2.058.078,4.562,4.562,0,0,0,4.257,3.165,9.143,9.143,0,0,1-5.66,1.951A9.223,9.223,0,0,1,0,63.96a12.9,12.9,0,0,0,6.986,2.048A12.878,12.878,0,0,0,19.953,53.041q0-.3-.013-.59A9.258,9.258,0,0,0,22.214,50.093Z" transform="translate(-0.001 -47.956)" fill="#fff"/>
</svg>
