<svg xmlns="http://www.w3.org/2000/svg" width="17.953" height="22.244" viewBox="0 0 17.953 22.244">
  <path id="Path_12274" data-name="Path 12274" d="M481.367,292.374a5.567,5.567,0,0,1-1.2-1.843,5.6,5.6,0,0,1,0-4.208,5.568,5.568,0,0,1,1.2-1.843,5.265,5.265,0,0,1,5.866-1.2,5.582,5.582,0,0,1,2.983,3.062,5.713,5.713,0,0,1,0,4.179,5.425,5.425,0,0,1-1.187,1.828l-3.845,3.947Zm7.224-12.464a9.02,9.02,0,0,0-3.393-.7,8.659,8.659,0,0,0-6.347,2.684,9.015,9.015,0,0,0-1.965,3.033,9.535,9.535,0,0,0,0,6.994,9.017,9.017,0,0,0,1.965,3.033l6.333,6.5,6.361-6.529a8.985,8.985,0,0,0,1.979-3.047,9.5,9.5,0,0,0,0-6.907,8.983,8.983,0,0,0-1.979-3.047,8.76,8.76,0,0,0-2.954-2.017" transform="translate(-476.221 -279.214)" fill="#fff"/>
</svg>
