<svg xmlns="http://www.w3.org/2000/svg" width="20.429" height="20.372" viewBox="0 0 20.429 20.372">
  <path id="Path_16613" data-name="Path 16613" d="M415.578,337.794l-4.405-4.405a8.178,8.178,0,0,0,2.008-5.442,8.4,8.4,0,0,0-8.422-8.422,8.31,8.31,0,0,0-8.422,8.357A8.41,8.41,0,0,0,410.2,334.3l4.405,4.405a.626.626,0,0,0,.907,0A.583.583,0,0,0,415.578,337.794Zm-10.819-2.786a7.126,7.126,0,1,1,7.126-7.126A7.106,7.106,0,0,1,404.759,335.008Z" transform="translate(-395.837 -319.023)" fill="#fff" stroke="#fff" stroke-width="1"/>
</svg>
