<svg xmlns="http://www.w3.org/2000/svg" width="614.012" height="1064.984" viewBox="0 0 614.012 1064.984">
  <path id="Subtraction_9" data-name="Subtraction 9" d="M422.979,1062.338v-.006l-2.035-5.562c-4.344-12.025-4.344-23.149,0-34.012l.707-1.786,11.074,4.871-9.742,36.489ZM370,1036.249h0c-1.9,0-3.81-1.807-6.188-5.86-2.949-4.956-7.553-15.55-10.709-27.1a82.162,82.162,0,0,1-2.885-15.407c-.354-5.018.188-8.775,1.6-11.175a6.183,6.183,0,0,1,5.657-3.269c2.328,0,5.127.993,8.317,2.947l1,.635-3.423,24.056,1.388.71L367.7,985.1l2.746-.122.985.848c3.254,3.685,3.115,31.515.636,48.825l-.177,1.234Zm-15.847-54.941h0v.075l.068,5.172-.064-5.247Zm122.093,46.4v-.021l2.381-3.406c5.507-8.11,5.36-13.442,5.176-20.195v-.024a70.852,70.852,0,0,1,.361-11.484l.831-1.287,4.991-3.181h.034l6.511,3.7-3.145,17.182,6.075-14.744,8.35,9.5-.365,1.033c-4.9,12.811-13.989,20.31-27.007,22.3l-4.19.627Zm-41.429-4.424h0v0a65.584,65.584,0,0,1-4.762-4.53c-.662-.671-1.305-1.325-1.9-1.9l-.459-.552-.019-.021c-3.792-4.552-6.53-7.836-9.558-7.836-2.735,0-5.665,2.768-9.505,8.976a21.5,21.5,0,0,1-6.289-8.56,13.442,13.442,0,0,1-.357-8.264c1.2-4.381,4.495-8.585,9.543-12.153a42.334,42.334,0,0,1,16.242-6.86l2.558-.758,3.987-10.493c-.192.109-.376.217-.564.32-.094.053-.184.107-.278.158l-.011.006a32.266,32.266,0,0,1-5.755,2.83l-.459.241c-10.916,5.79-14.591,7.746-21,7.746a59.06,59.06,0,0,1-6.778-.475c.1,12.937-1.121,14.661-5.657,21.08l-.105.151c-1.027,1.453-2.189,3.1-3.551,5.168l-7.372-.658,2.5-3.637-11.314-31.547-11.469-.567c2.783-9.656,6.552-16.242,11.529-20.133,4.017-3.145,8.918-4.611,15.426-4.611a101.352,101.352,0,0,1,10.9.82l.323.034.207.021.019,0a104.767,104.767,0,0,0,11.352.829c6,0,10.788-1.044,15.083-3.282,2.626-1.091,4.9-3.041,7.3-5.1a33,33,0,0,1-7.361,3.36,40.4,40.4,0,0,1-13.432,2.342,61.338,61.338,0,0,1-13.538-1.854l-.707-.154-.03-.008a53.267,53.267,0,0,0-11.5-1.688,24.11,24.11,0,0,0-11.183,2.689c-4.228,2.127-8.523,5.558-13.131,10.5-5.759-2.958-10.837-4.109-18.126-4.109H344.59c.271-.238.553-.481.85-.739.211-.187.429-.377.658-.571,4.378-3.808,10.995-9.564,17.946-14.495,8.347-5.92,14.805-8.926,19.2-8.926a8.322,8.322,0,0,1,1.561.143c12.548,2.461,23.5,3.7,32.552,3.7a81.316,81.316,0,0,0,9.844-.563,38.209,38.209,0,0,0,12.052-3.382,26.26,26.26,0,0,0,8.113-6.174c4.45-4.986,7.388-11.74,10.792-19.564a182.491,182.491,0,0,1,11.412-22.94,133.722,133.722,0,0,1,21.824-27.119c3.084-2.811,11.533-7.19,20.474-11.823l.034-.021c14.372-7.452,30.663-15.9,30.159-20.575-.12-1.164-1.317-2.061-3.543-2.664a112.328,112.328,0,0,1-27.38,17.178,69.075,69.075,0,0,1-27.15,6.05,49.179,49.179,0,0,1-17.126-2.977,47.885,47.885,0,0,1-15.253-9.227c-9.836-8.735-17.239-21.868-22-39.033,3.81.226,7.139.629,10.077.983l.105.011.023,0a70.949,70.949,0,0,0,8.049.7c3.98,0,6.534-1.023,8.554-3.422,2.227-2.647,3.893-7.094,5.413-14.423a36.249,36.249,0,0,1-12.417,2.783c-5.086,0-8.553-2.073-10.6-6.329-1.783-3.7-2.257-8.571-2.671-12.869l-.008-.045v-.015c-.365-3.776-.711-7.341-1.873-9.513l-2.58.021c-2.881,13.412-2.031,22.733,2.614,28.489a16.88,16.88,0,0,0,7.218,5.106,32.026,32.026,0,0,0,11.363,1.805h.6c-4.032,1.411-9.317,3.034-14.463,3.034a17.832,17.832,0,0,1-13.564-5.613c-.124-.219-.282-.445-.451-.682l-.038-.057a8.263,8.263,0,0,1-1.049-1.79l-4.694,4.771,6.564,29.816.775,1.409-.73,1.053-8.866,26.4c-2.686-5.6-4.01-11.816-4.164-19.537-.139-6.992.7-14.653,1.572-22.761l.06-.541c.387-3.576.786-7.273,1.128-11.136l-8.076-2.417a102.762,102.762,0,0,1-5.5,39.717,94.666,94.666,0,0,1-28.914,41.3c8.08-15.571,13.91-35.427,16.859-57.417a240.575,240.575,0,0,0,.613-59.443c-1.038-3.073-3.212-24.6-1.614-48.718a189.4,189.4,0,0,1,6.067-37.97c3.777-13.559,9.114-24.463,15.87-32.4,3.957-4.558,8.234-9.918,12.714-15.94,6.579-8.334,11.683-15.37,16.065-22.141a152.75,152.75,0,0,0,12.435-22.948,103.819,103.819,0,0,0,8.245-52.179l-16.009,46.609c-4.8,13.9-12.894,26.349-20.936,37.727-3.017,4.311-6.206,8.671-9.291,12.886l-.226.3-.026.04c-8.034,10.97-16.343,22.318-22.591,34.04a103.667,103.667,0,0,0-7.685,18.09,72.925,72.925,0,0,0-3.318,19.332c-.282,10.512-.034,22.72.207,34.528l.008.186c.451,21.909.876,42.6-1.843,52.782-1.956,10.8-5.225,20.509-9.2,27.334a29.041,29.041,0,0,1-6.139,7.714,10.214,10.214,0,0,1-6.477,2.743,7.317,7.317,0,0,1-2.381-.412c2.531-11.092,1.429-30.971-.478-40.341l-3.321-1.389a102.866,102.866,0,0,0,.064,15.9l.008.079a122.137,122.137,0,0,1,.241,14.237c-4.781,10.768-9.389,19.006-13.71,24.483-4.277,5.432-8.309,8.208-11.976,8.251a114.453,114.453,0,0,1-1.384-12.168v-.011c-.369-5.46-.489-7.3-5.187-13.69l4.465-25.28-6.6-1.72L309.8,807.477,294.217,828.2l-.2.024a1.2,1.2,0,0,1-.989-.469c-1.4-1.769.143-8.483,1.779-15.586l0-.025.124-.535c.226-.976.459-1.982.685-2.977,1.655-7.424,3.227-15.582.914-18.478a2.972,2.972,0,0,0-2.437-1.1,7.708,7.708,0,0,0-2.844.658c4.017,14.91-1.275,31.611-16.189,51.06,1.779-2.655,4.07-14.936,3.607-28.141a76.638,76.638,0,0,0-3.336-20.647c-2.34-7.247-5.834-13.01-10.389-17.124a53.612,53.612,0,0,1-.361,30.07,44.36,44.36,0,0,1-6.767,13.14A45.357,45.357,0,0,1,246.45,828.7l-20.018-47.674-6.278-3.537a89.4,89.4,0,0,1,.982,16.96c-.346,5.687-1.64,9.866-3.859,12.407A9.315,9.315,0,0,1,209.9,810c-3.844,0-8.727-1.637-14.512-4.872.354-2.529-1.181-5.312-4.559-8.277-3.434-3.013-8.775-6.218-15.881-9.525.275-.614.542-1.206.8-1.783l.312-.69c3.19-7.128,5.3-11.84,11.548-17.438l-5.89-.281c-1.17,1.17-2.283,2.37-3.363,3.529l-.03.028c-3.37,3.62-6.549,7.037-11.187,9.511l6.045-19.843c-5.217,1.048-8.339,3.4-9.825,7.4-1.335,3.6-1.219,8.215-1.1,13.1l0,.032a86.98,86.98,0,0,1-.147,10.207,80.04,80.04,0,0,1-8.7,11.279c-2.9,3.311-5.778,4.92-8.8,4.92-3.972,0-8.219-2.721-12.977-8.323l.064-.993c.451-7.3.7-11.315-.2-14.8s-3.051-6.482-7.192-11.462l-17.893,9.538-4.894-8.6c10.848-8.675,20.214-17.156,30.133-26.136l.79-.714c3.468-3.137,7.053-6.384,10.675-9.6l-3.739-2.141L116.1,757.009l-14.978-21.474-24.2,5.359c3.6-3.62,7.357-7.857,11.337-12.347,6.962-7.868,14.166-16,22.065-22.622,9.024-7.567,17.288-11.656,25.269-12.494l7.03,6.753c.982.211,1.979.422,2.949.624l.429.089.023.008c2.219.467,4.318.9,6.233,1.362,7.655,1.553,14.508,3.139,20.556,4.537l.1.021c16.069,3.7,28.76,6.625,43.054,6.625,12.83,0,25.962-2.432,41.323-7.654,1.542-1.164,3.186-2.442,4.882-3.757,11.16-8.665,25.047-19.449,37.693-21.045,2.475,5.617,5.386,11.339,7.512,15.518.771,1.451,1.561,2.922,2.325,4.341l.267.5.094.171c.959,1.782,1.933,3.589,2.889,5.408-.967-1.831-1.948-3.661-2.911-5.457l-.023-.043c-.937-1.747-1.783-3.322-2.629-4.923-2.373-4.637-5.1-10.047-7.519-15.518a25.38,25.38,0,0,1,3.054-.187,18.873,18.873,0,0,1,11.3,3.593c3.724,2.715,6.921,7.019,9.5,12.8l2.46-7.61L312.806,676.71l-3.476-1.34-5.127-9.464,5.127,9.474-9.1-3.518c-1.373.366-2.592.654-3.72.886v0a72.141,72.141,0,0,1-15.2,1.73A46.783,46.783,0,0,1,256.595,668a45.34,45.34,0,0,1-16.054-17.077,65.639,65.639,0,0,1-7-20.057A90.054,90.054,0,0,1,232.4,607.91a104.153,104.153,0,0,1,4.581-23.709,99.9,99.9,0,0,1,10.141-22.328,55.734,55.734,0,0,1,.47,17.207,34.144,34.144,0,0,1-6.394,15.614,38.6,38.6,0,0,0,16.569-10.783,65.15,65.15,0,0,0,11.412-17.254,72.952,72.952,0,0,0,5.8-18.616c.974-5.986.888-11.124-.241-14.864.545,1.743,6.278,2.958,13.932,2.958,7.876,0,18.284-1.37,23.874-5.221-16.558-4.886-18-11.194-19.661-18.5-.117-.49-.229-.989-.346-1.485-1.106,5.736-1.031,8.967.275,11.516s3.867,4.4,7.749,7.186l.023.019.572.409c.722.522,1.475,1.065,2.279,1.66-2.629.2-4.95.426-7,.631l-.1.009c-3.242.32-6.041.6-8.6.6a24.334,24.334,0,0,1-7.929-1.219,46.51,46.51,0,0,1-9.6-4.716l-2.558,1.845a19.831,19.831,0,0,1,3.175,10,39.9,39.9,0,0,1-1.17,12.157,46.815,46.815,0,0,1-5.834,13.854c-2.719,4.277-5.917,7.452-9.234,9.18L252,543.437l-5.093,1.509a70.214,70.214,0,0,1-7.312,19.025,60.126,60.126,0,0,1-12.883,16.161c3.329-6.269,6.406-13.866,9.663-21.906l.03-.075c5.274-13.027,10.731-26.5,18.2-37.023a47.527,47.527,0,0,1,12.808-12.862,30.56,30.56,0,0,1,16.821-4.974c7.44,0,15.8,2.525,24.833,7.5,5.924,2.367,12.251,4.807,18.367,7.166l.76.294.019.008c31.344,12.078,63.757,24.564,71.513,37.3l6.94,58.911,4.694-5.771-4.1-67.682c4.965,2.619,9.678,4.057,13.274,4.057a10.729,10.729,0,0,0,2.261-.219,8.227,8.227,0,0,0,5.541-4.72c1.452-3.18,1.636-7.671.534-13.348a77.863,77.863,0,0,0-6.44-18.314,126.527,126.527,0,0,0-23.486-33.9c-10.8-11.119-22.366-18.606-33.447-21.653a90.318,90.318,0,0,0,13.752-25.4c2.667-7.785,4.367-16.34,5.514-27.737l-4.1-1.445a22.108,22.108,0,0,1-.4,10.013,73.546,73.546,0,0,1-4.77,13.414c-4.187,9.3-10.705,20.705-19.921,34.869-2.983-3.584-4.713-8.571-5.3-15.253-.523-5.994-.1-12.788.3-19.362.8-12.965,1.625-26.362-4.288-35.536l-2.528.055c1.666,6.389,2.152,14.391,1.411,23.134a118.05,118.05,0,0,1-5.492,26.473A103.213,103.213,0,0,1,328.1,460.585c-5.052,7.627-10.716,13.367-16.84,17.052L304.621,413.6l-5.138-1c-.418,4.392-.658,8.758-.888,12.978v.056c-.873,15.938-1.7,30.993-11.664,46.144l.29-41.076-3.378-2.485c-.97,19.057-7.606,37.038-20.285,54.962l-6.774-40.277-8.527-4.558-1.042,5.769A21.972,21.972,0,0,1,252.1,458.4a36.881,36.881,0,0,1-3.968,15.055c-4.574,9.668-12.033,18.655-18.672,26.319l2.313-21.265-5.157-1.031-3.686,29.9c-1.016-6.308-1.561-11.665-2.046-16.389v-.032c-.722-7.054-1.29-12.62-3.02-18.269-1.873-6.11-4.935-11.686-9.926-18.085l-5.138.1a35.73,35.73,0,0,1,5.375,12.421,37.934,37.934,0,0,1,.534,12.289c-.9,8.17-3.976,16.353-6.951,24.268l0,.017c-3.073,8.177-6.252,16.638-6.917,24.892a33.084,33.084,0,0,1-11.047-13.51c-2.4-5.11-3.863-10.779-5.277-16.259l-.023-.094c-1.576-6.107-3.2-12.423-6.116-17.941a32.492,32.492,0,0,0-5.507-7.652,31.334,31.334,0,0,0-8.456-6.094q.564.941,1.117,1.858c7.425,12.319,12.781,21.212,10.314,28.7-1.727,5.225-7.3,9.619-17.532,13.824a11.627,11.627,0,0,0-2.212-4.271c-1.561-2.546-4.273-4.793-8.072-6.678l-1.516,2.353a98.712,98.712,0,0,1-6.353,8.532l4.4-5.283,8.471.452.715,9.611-22.008,10.891-2.279-2.783,9.588-11.526c-6.985,8.066-14.508,13.3-23.009,16.006l-1.9-2.969,1.994-2.031.019-.017a102.2,102.2,0,0,0,9.9-10.791c3.408-4.533,5.24-8.643,5.6-12.566l.158-1.873,15.9,1.841c-5.319-2.512-12.213-3.838-19.954-3.838a81.956,81.956,0,0,0-14.459,1.362c-2.742-4.682-3.637-7.976-2.821-10.359.955-2.79,4.224-4.1,8.016-5.617l.008,0h0c4.849-1.943,10.882-4.36,14.361-10.862L95.387,483.238a48.238,48.238,0,0,1,2.55,17.229c-.2,6.118-1.595,11.3-3.9,14.584a8.489,8.489,0,0,1-7.151,4.038,11.511,11.511,0,0,1-4.04-.81l1.358-10.8A119,119,0,0,0,71.494,493.2L46.958,501.73c-.008-1.051-.023-2.084-.045-3.135v-.021c-.1-5.771-.192-11.222,1.305-17.376,8.689-4.351,15.6-5.534,24.352-7.032l.218-.036,1.023-5.068c-16.693,2.449-27.139,4.264-31.4,10.412-2.795,4.026-3.092,9.966-.978,19.848a24.18,24.18,0,0,1-8.279,1.741,10.853,10.853,0,0,1-9.415-4.8l4.533-18.045a34.252,34.252,0,0,0-11.217-5.879A64.289,64.289,0,0,0,3.9,469.522c5.522-.094,10.588-2.453,15.49-7.222,4.228-4.117,7.609-9.3,10.6-13.864,2.5-3.838,4.664-7.145,6.729-8.892A7.789,7.789,0,0,1,41.91,437.7c3.16,0,6.68,1.462,10.758,3.156l.519.211c.448.183.907.373,1.365.56,4.623,1.911,10.073,3.949,16.231,3.949a26.557,26.557,0,0,0,6.079-.69l-.03-4.669L58.359,436.8l5.116-6.154,30.972,10.8a212.27,212.27,0,0,0,54.575-25.1,250.089,250.089,0,0,0,34.707-25.559l-6.5-16.828,6.808-51.6-2.215-1.409-12.037,43.715c-3.536-2.391-6.033-6.078-7.421-10.953a46.485,46.485,0,0,1-1.253-15.433c.677-11.089,3.833-23.125,6.131-31.915l0-.017c1.915-7.3,3.291-12.568,2.076-12.982-5.18,12.249-17.592,42.163-21.06,55.3l-.606-54.007c3.735-16.423,7.624-36.118,8.2-57.692l-3.728-1.366-3.178,16.206-1.794,2.576-27.417,48.173.26,20.509a89.066,89.066,0,0,1-12.1-26.234,87.3,87.3,0,0,1-2.93-25.318c.4-16.572,4.822-32.51,9.088-47.919l.008-.019.011-.04c5.774-20.868,11.232-40.574,5.992-59.258l-6.267.789a12.655,12.655,0,0,1,1.948,6.094,12.4,12.4,0,0,1-1.407,6.608,11.359,11.359,0,0,1-4.747,4.684,18.017,18.017,0,0,1-8.6,1.9c-5.195,0-11.476-1.528-18.679-4.541-3.325-8.032-2.494-12.232-1.832-15.607.8-4.1,1.388-7.064-5.469-14.241L83.606,133c-.241-.273-.489-.552-.737-.833-2.735-3.077-5.559-6.25-9.437-6.25h-.143c-7.7,6.936-14.075,10.457-18.965,10.457a7.873,7.873,0,0,1-7.075-4.053c-2.039-3.331-2.821-8.611-2.212-14.857a51.489,51.489,0,0,1,5.089-17.6L33.417,88.849c3.577-6.37,6.853-10.783,10.009-13.5a13.074,13.074,0,0,1,8.8-3.586c3.521,0,7.113,1.411,11.269,3.047l.594.232c.534.209,1.083.424,1.644.637C71.061,77.716,77,79.6,84.4,79.6A50.9,50.9,0,0,0,98.851,77.39C92.708,75.6,86,74.326,79.51,73.094l-.06-.011-.015,0c-11.179-2.122-22.742-4.313-32.288-9.234L53.868,40.42a302.747,302.747,0,0,1,33.116,1.643c7.809.95,13.537,2.35,17.5,4.271,7.651,3.7,8.441,9.18,9.453,16.114.752,5.217,1.61,11.121,5.39,17.923,4.4,7.912,11.882,15.375,22.885,22.821-.083-5.557-3.98-9.905-8.11-14.508l-.011-.011a48.131,48.131,0,0,1-6.9-9.052l-1.238-10.847q1.473.3,2.832.58l.828.17c7.861,1.605,12.608,2.574,15.512,4.064a7.148,7.148,0,0,1,4.54,5.366c.6,2.617.519,6.25.391,11.746v.021l-.008.249c-.083,3.61-.184,8.106-.105,13.544,15.155,14.906,27.056,30.635,38.57,45.852l0,.006c21.015,27.766,40.857,53.992,77.181,71.044-4.356,2.958-8.35,5.609-12.748,8.517l-.011.011c-16.468,10.9-28.369,18.782-37.005,30.138-8.915,11.731-14.1,26.972-17.329,50.971l-14.406,29.328,1.971,36,6.876-6.943,9.246,35.937,3.72.656a51.55,51.55,0,0,1,3.077-27.3,81.058,81.058,0,0,1,14.937-23.88,129.525,129.525,0,0,1,21.143-19.149,141.191,141.191,0,0,1,21.681-13.116,137.46,137.46,0,0,0-5.371,19.452,165.015,165.015,0,0,0-3.028,22.625c-.771,12.07-.421,29.184,5.608,42.159l3.735,1.129a118.806,118.806,0,0,1,6.526-34.517c4.5-12.319,11.1-21.785,19.624-28.133-4.416,5.737-8.106,19.724-9.874,37.422-1.655,16.6-1.177,32.207,1.2,39.77l6.293,2.1,10.2-35.12c4.175-4.26,7.956-8.213,11.3-11.7l.011-.013c10.878-11.362,19.469-20.338,29.471-27.571a102.533,102.533,0,0,1,16.69-9.8,158.882,158.882,0,0,1,22.14-8.258l1.117-5.082-33.4,11.569c-11.852,4.045-24.021,13.129-35.192,26.277a142.061,142.061,0,0,0-22.648,36.983,149.25,149.25,0,0,1-1.151-25.039,100.05,100.05,0,0,1,2.987-20.515,76.161,76.161,0,0,1,6.428-16.6,70.786,70.786,0,0,1,9.178-13.284c6.142-7.039,13.947-13.261,23.851-19.021a266.216,266.216,0,0,1,26.59-12.975l.038-.017c9.539-4.223,18.544-8.209,25.758-13,8.08-5.372,12.89-11.066,15.136-17.924-16.964,15.356-31.863,21.024-50.731,28.2l-.124.051c-6.741,2.564-13.711,5.214-21.516,8.581-6.278,2.623-12.808,7.047-19.4,13.155a135.008,135.008,0,0,0-17.547,20.212c-10.325,14.359-19.033,31.336-23.3,45.411-1.708-8.349-3.434-19.4-1.662-30.884a57.775,57.775,0,0,1,5.138-16.479A66.675,66.675,0,0,1,282.556,315.2c6.3-2.983,12.695-5.5,18.875-7.936l.06-.024c4.6-1.815,9.362-3.691,14.026-5.739-14.681,2.48-25.638,4.942-35.534,7.995a127.41,127.41,0,0,0-31.22,14.007,101.589,101.589,0,0,0-26.206,24.022,127.223,127.223,0,0,0-11,17.009,169.21,169.21,0,0,0-9.483,21.014c-.245-20.63,2.558-33.527,9.351-43.12,6.56-9.27,16.622-15.264,30.554-23.554l.045-.024.09-.058c4.484-2.668,9.562-5.69,14.967-9.1-14.869,2.653-25.536,6.5-35.67,12.86-9.562,6.007-18.258,13.847-31.946,27.127A80.26,80.26,0,0,1,200.252,322,103.492,103.492,0,0,1,220.1,298.97,161.264,161.264,0,0,1,247.033,280.1a259.093,259.093,0,0,1,32.059-15.209c20.447-8.151,43.87-15.149,71.618-21.391,25.552-5.747,50.027-9.762,68.5-12.617,2.979-.435,6.1-.884,9.261-1.334,16.889-2.425,31.476-4.518,41.816-6.779,6.786-1.366,17.844-7.16,28.166-14.753a111.811,111.811,0,0,0,14.67-12.8,53.815,53.815,0,0,0,10.032-14.054,171.426,171.426,0,0,1-29.824,25.079,107.226,107.226,0,0,1-15.783,8.733,44.45,44.45,0,0,1-13.936,3.93c-17.528,3.4-31.638,5.935-44.408,7.993-12.27,2.009-24.25,3.838-33.879,5.308l-.026,0c-32.066,4.9-59.762,9.138-82.82,16.174-26.131,8.283-49.181,19.375-68.511,32.968a169.584,169.584,0,0,0-28.279,24.713c-1.384,1.5-2.152,2.331-2.389,2.331a.062.062,0,0,1-.06-.032c-.079-.122.068-.642.478-1.69a101.653,101.653,0,0,1,7.154-23.562,93.627,93.627,0,0,1,11.585-19.287,103.1,103.1,0,0,1,15.065-15.539,128.49,128.49,0,0,1,17.607-12.321c24.732-14.525,53.612-21.87,76.816-27.773l.019-.006h.015c4.307-1.1,8.381-2.135,12.21-3.16-.519,1.053-.986,2.018-1.411,2.9-2.129,4.432-3.2,6.655-5.228,7.846-2.05,1.208-5.116,1.306-10.8,1.389l.733,4.967a40.785,40.785,0,0,0,15.809,3.005,61.8,61.8,0,0,0,20.4-3.763,88.479,88.479,0,0,0,19.052-9.564A83.048,83.048,0,0,0,397.9,199.032a42.212,42.212,0,0,0,8.727-13.38A254.368,254.368,0,0,1,389.3,226.14c8.4-3.32,19.9-7.867,29.7-15.087a54.937,54.937,0,0,0,10.953-9.692,46.031,46.031,0,0,0,7.88-13.18l-2.182-3.55a90.36,90.36,0,0,1-16.742,19.247c-5.4,4.722-11.476,8.469-16.682,10.28,3.032-3.682,8.689-17.826,16.374-40.906v-1.087l-6.285-.234A244.854,244.854,0,0,1,386.756,199.5c-8.053,7.265-14.643,11.558-18.548,12.1,5.714-9.472,11.642-20.231,15.806-38.315l-1.854,0c-3.051,8.8-7.275,20.014-12.883,28.721a39.406,39.406,0,0,1-8.892,10.152,17.794,17.794,0,0,1-10.874,3.953,15.431,15.431,0,0,1-2.915-.269c11.886-23.686,25.525-43.695,30.272-49.669a7.762,7.762,0,0,0-2.58-2.485c-4.51,3.863-8.6,9.888-12.556,15.712l-.03.036c-4.307,6.348-8.76,12.911-13.853,16.9a11.947,11.947,0,0,1-7.527,2.417,26.736,26.736,0,0,1-9.641-2.255l-.053-.023c-.309-.121-.568-.228-.771-.3a23.2,23.2,0,0,1-9.106-4.467,16.857,16.857,0,0,1-5.191-6.749,8.17,8.17,0,0,1,.425-7.661c4.66,4.867,10.126,7.331,16.238,7.331,8.061,0,15.591-4.264,20.485-7.844,5.537-4.055,10.013-8.954,11.574-11.7.466-.829.636-1.4.485-1.654.229-.739,1.674-1.1,4.427-1.1,3.709,0,9.5.639,16.2,1.377.527.057,1.057.119,1.591.175l2.862.315a262.036,262.036,0,0,0,27.47,1.862h1.159c7.489-.1,13.624-.993,18.758-2.74,6.135-3.418,11.36-9.251,15.1-16.877a53.378,53.378,0,0,0,5.428-22.19,37.182,37.182,0,0,0,13.575,7.326,58,58,0,0,0,17.269,2.579c10.536,0,20.21-2.734,27.244-7.693a29.35,29.35,0,0,0,9.1-10.143,31.584,31.584,0,0,0,3.543-14.8c13.534,17-19.161,54.124-43.031,81.224l-.015.015c-1.328,1.505-2.407,2.732-3.389,3.851l12-43.691-2.592-1.033-15.523,30.383-23.2,29.094c.169-3.133.29-6.207.4-9.176v-.011c.692-18.1,1.29-33.729,13.692-51.465l-1.2-4.336a51.25,51.25,0,0,0-8.55,11.217,53.751,53.751,0,0,0-4.849,11.87c-2.276,8.091-2.919,16.7-3.547,25.028-.843,11.192-1.711,22.763-6.432,33.889l5.883-.057,20.635-27.973,4.841-.036,6.067,17.939c1.031-11.548,13.552-26.364,26.815-42.046C516.8,154,527.476,141.381,533.415,129.471c3.209-6.444,4.74-12.061,4.687-17.163a21.534,21.534,0,0,0-1.542-7.885,23.421,23.421,0,0,0-4.773-7.265,39.252,39.252,0,0,0-5.86-14.768c-2.5-3.685-6.737-8.081-12.687-8.081H513.1c5.311,5.92,8.648,11.991,9.934,18.047a25.2,25.2,0,0,1-1.6,15.758,28.877,28.877,0,0,1-5.511,8.13,35.56,35.56,0,0,1-8.016,6.265,41.136,41.136,0,0,1-20.293,5.455,34.46,34.46,0,0,1-22.027-7.586,36.069,36.069,0,0,1-8.531-10.18,50.713,50.713,0,0,1-5.492-15.057l-3.705.42c1.512,7.086,2.61,14.177,3.773,21.687l.034.192.173,1.115a47.406,47.406,0,0,1-1.73,19.437,35.954,35.954,0,0,1-7.361,13.133c-5.059,5.709-10.886,8.313-14.406,8.36a78.913,78.913,0,0,1-9.866.846c-7.865-.111-18.277-.972-28.343-1.8h-.011c-9.753-.808-18.969-1.568-24.965-1.568h-.82c-2.584.032-4.762.358-14.734,3.371,3.871-12.624,8.339-21.751,13.282-27.123.88.277,1.82.582,2.874.929l.053.015c5.627,1.828,11.442,3.716,18.078,3.716,10.494,0,21.346-4.775,34.158-15.019l1.016-.71c6.669-8.941,7.38-24.1,2.1-45.047-.41.219-.79.437-1.159.646l-.132.073a13.007,13.007,0,0,1-2.321,1.157c-10.581,5.717-19.748,8.5-28.027,8.5-8.4,0-15.9-2.789-24.3-9.04a19.729,19.729,0,0,1-5.706-10.363,41.23,41.23,0,0,1-.67-13.517c.955-9.3,4.424-18.735,8.843-24.037,12.435-4.722,34.545-5.98,45.649-5.98,1.644,0,2.844.043,3.566.079l1.817-.057-1.783,2.54-2.9,5.449c-.545,3.757.448,6.576,3.047,8.615a9.51,9.51,0,0,0,4.239,1.355h.177l4.773-.422c1.057,7.578,5.4,14.5,12.232,19.5a41.037,41.037,0,0,0,24.118,7.607,43.759,43.759,0,0,0,17.393-3.6,48.7,48.7,0,0,0,16.321-11.646l8.911,1.019,1.35-3.616c-6.4-4.8-15.877-9.24-26.706-12.507a120.477,120.477,0,0,0-33.714-5.253,66.946,66.946,0,0,0-20.026,2.742c-.591.038-1.091.055-1.52.055-2.742,0-4.363-.62-4.826-1.847-.609-1.605.681-4.228,3.946-8.019a134.258,134.258,0,0,1,12.142-11.852c15,.6,30.942,1.187,46.5,1.187a430.23,430.23,0,0,0,49.444-2.529,255.935,255.935,0,0,0,48.173-9.984c1.678-.561,3.28-1.136,4.7-1.647l.034-.011c1.55-.556,3.145-1.131,4.8-1.681l-9.422,13.421L567.836,31.579l12.432-3.759,16.144-5.191L580.448,41.151l-.346.735h.346l12.905-1.943-5.089,10.5c-2.313.317-4.171.6-6.135.9l-.056.009-1.482.228c-14.158,1.453-22.493,2.472-29.147,6.555-6.387,3.921-11.281,10.546-18.706,25.314l1.516,2.12c9.464-16.117,18.386-24.922,26.518-26.168,5.654-1.091,12.435-2.316,19.887-3.139,10.652-.773,21.23-1.236,32.341-1.413v2.476c-8,5.7-18.939,6.389-30.513,7.122l-.865.057c-.286.017-.576.038-.865.055-8.523.458-17.333.931-24.668,3.5L541.141,82.272l.124,7.222A48.277,48.277,0,0,0,553.377,78.9a22.212,22.212,0,0,1,7.914-6.578c.414-.028.843-.043,1.32-.043a11.328,11.328,0,0,1,7.647,2.706,27.348,27.348,0,0,1,4.747,5.907l.03.045a37.648,37.648,0,0,0,3.344,4.552c-.15,1.432-.256,3.55-.365,5.792-.628,12.7-1.791,36.318-14.2,36.5l-1.095,2.529,2.656,2.508a24.647,24.647,0,0,0,11.266-8.023,27.692,27.692,0,0,0,4.672-10.9,89.815,89.815,0,0,0,1.711-11.309l.008-.077,0-.017c.685-6.338,1.4-12.892,4.284-18.38a21.991,21.991,0,0,1,6.244-7.4,32.192,32.192,0,0,1,11.172-5.236c-4.314,27.308-6.906,43.191-9.994,52.1-2.949,8.513-6.3,11.024-13.188,13.736a80.064,80.064,0,0,1-8.681,3.292l-.1.036c-3.235,2.212-6.165,5.566-9,8.8l-.045.055a51.877,51.877,0,0,1-6.613,6.76l-.068.079c-.263,0-.7-3.279-1.422-8.7-1.418-10.653-3.8-28.489-7.989-46.38l-4.785-2.395c.752,6.387,1.591,12.741,2.479,19.466l.158,1.18c3.555,26.882,7.233,54.678,5.3,81.086-1.042,14.271-3.607,26.718-7.843,38.057a102.982,102.982,0,0,1-8.444,17.487,99.724,99.724,0,0,1-12.18,16.108c-10.389,11.345-21.192,21.949-31.641,32.2-15.211,14.94-29.58,29.049-41.809,44.386a178.672,178.672,0,0,0-16.321,23.935,129.561,129.561,0,0,0-11.393,26.592c-5.127,17.533-6.1,36.4-2.99,57.69-9.716-13.161-15.508-29.009-17.7-48.445-1.851-16.428-1.185-35.317,2.106-59.448L384.762,371.37a51.606,51.606,0,0,1,1.347-17.687,77.8,77.8,0,0,1,7.041-17.851c5.894-11.068,14.685-22.676,26.872-35.5,19.161-19.9,43.407-39.459,64.8-56.716l.03-.021c9.216-7.435,17.927-14.457,25.905-21.231l-4.826-2.506c-1.978,1.556-5.2,3.895-9.276,6.853l-.263.19-.038.028c-17.344,12.588-49.632,36.02-76.429,63.72a248.226,248.226,0,0,0-19.842,23.36,136.571,136.571,0,0,0-14.579,24.178,70.928,70.928,0,0,0-6.586,24.1A46.256,46.256,0,0,0,383.07,385.4l8.388-8.73c-.034,15.69.448,27.492,1.531,37.147,1.332,11.867,3.6,20.645,6.917,26.846.421.854.933,1.946,1.527,3.213l.192.416c4.232,9.067,12.1,25.94,20.413,31.4a9.742,9.742,0,0,0,5.236,1.385h.233c-2.584-6.246-4.356-13.225-5.747-22.629a139.651,139.651,0,0,1-.29-24.79,135.049,135.049,0,0,1,6.094-29.06,155.025,155.025,0,0,1,12.571-28.438,169.88,169.88,0,0,1,18.664-26.6,178.194,178.194,0,0,1,24.359-23.554c14.561-11.658,31.224-25.913,44.37-43.235A140.724,140.724,0,0,0,543.3,252.7a148.419,148.419,0,0,0,10.461-31.575c2.712-15.424,3.686-33.514,3.058-56.927l6.315,4.646c1.617-2.566,3.028-5.019,4.168-6.988l.026-.051a73.464,73.464,0,0,1,6.206-9.632,20.3,20.3,0,0,1,8.049-6.222,45.113,45.113,0,0,1,9.588-2.627,86.171,86.171,0,0,1-1.313,24.785,127.6,127.6,0,0,1-7.625,24.63,193.765,193.765,0,0,1-9.539,20.95l-.06.115c-.835,1.656-1.783,3.533-2.678,5.344l-7.188,13.423-.339-27.732c-3.393,11.213-3.619,21.165-3.852,31.7-.086,3.795-.177,7.718-.41,11.891-2.073,10.727-6.774,20.477-11.758,30.8l-.007.009-.049.109c-2.456,5.095-5,10.367-7.166,15.731-5.179,13.538-8.663,28.7-12.029,43.365l-.019.09c-1.945,8.456-3.957,17.2-6.267,25.52-1.061-2.382-2.039-5.04-2.987-7.607-2.592-7-5.522-14.927-10.588-19.592l.26-.62c4.619-11.158,9.4-22.693,9.313-32.958l-5.187,1.854a100.954,100.954,0,0,1-7.948,23.308c-3.573,7.727-7.876,15.445-12.037,22.908l-.023.043c-7.9,14.194-16.065,28.875-19.469,43.8l3.724,2.172,23.75-47.463a339,339,0,0,1,15.738,39.685c3.927,12.042,7.406,24.706,11.277,41.059l19.522,190.986a76.937,76.937,0,0,0,18.514,27.349,54.892,54.892,0,0,0,11.258,8.079,39.5,39.5,0,0,0,11.45,4.085,34.2,34.2,0,0,0,6.342.61A26.716,26.716,0,0,0,613,653.992V679.5a95.3,95.3,0,0,1-25.236,5.391c-2.938.275-5.928.416-8.9.416a134.243,134.243,0,0,1-34.18-4.946c1.331-.62,3.148-6.369,4.228-13.372,1.313-8.543,1.313-17.046,0-23.328a21.877,21.877,0,0,0-4.153-9.63A10.907,10.907,0,0,0,536.356,630c11.709,16.278,6.007,36.572-.03,58.054-3.152,11.205-6.41,22.786-7.335,34.309a67.069,67.069,0,0,0,.647,17.2,53,53,0,0,0,5.947,16.841,34.723,34.723,0,0,0,24.8,9.747c11.266,0,21.564-4.434,28.222-8.151a32.925,32.925,0,0,0,5.823-3.616c2.471,2.3,4.852,4.362,7.154,6.352,4.7,4.059,8.757,7.567,11.416,11.311v20.6c-.561,1.049-1.2,2.154-1.9,3.28-.993,7.582-.4,13.677,1.9,19.763v60.782a50.786,50.786,0,0,1-7.087-17.8c-1.433-7.537-1.271-15.675.485-24.873a25.773,25.773,0,0,0-7.316,10.945,63.125,63.125,0,0,0-3.412,17.593,185.489,185.489,0,0,1,11.059,41.824,127.687,127.687,0,0,1,1.162,23.151A78.929,78.929,0,0,1,604,949.05c-.079-.5-.162-1.159-.256-1.929l-.015-.1,0-.043a89.62,89.62,0,0,0-3.152-15.848c-2.362-7.465-5.785-12.767-10.171-15.761a31.224,31.224,0,0,0-4.1-2.1c1.027-7.066-1.535-15.959-3.152-20.636-2.249-6.5-5.353-12.626-7.542-14.9a305.057,305.057,0,0,1,4.111,50.472c-.154,16.572-2.2,28.321-5.751,33.075.113-7.782.041-13.789-1.963-20.253-2.088-6.714-6.278-13.747-13.579-22.8l-.278-27.728-4.126.021-2.313,20.2-7.023-4.236c.5,3.207,1.1,6.6,1.629,9.589l0,.026c1.757,9.99,3.573,20.323,3.476,30.238a57.821,57.821,0,0,1-1.851,14.5,41.908,41.908,0,0,1-6.225,13.378c-.44-1.694-.884-3.442-1.317-5.14l-.019-.088c-2.261-8.891-4.6-18.086-8.2-26.646-4.077-9.7-9.219-17.073-15.712-22.543l-1.407,11.124c4.95,2.776,8.948,10.041,10.968,19.929a69.961,69.961,0,0,1,1.354,14.587,61.614,61.614,0,0,1-1.783,14.439c-1.49,5.845-3.788,10.512-6.827,13.86a16.477,16.477,0,0,1-12.428,5.7c-1.523-4.931-2.926-8.745-4.833-11.333a9.192,9.192,0,0,0-7.963-3.987c-2.836,0-6.41.859-10.916,2.629l-.1-10.049-3.7-1.066c-.26,10.425-4.63,17.372-13.007,20.643l-8.949-9.263c-.339,2.969-.421,6.02-.5,8.969v.1c-.229,8.884-.466,18.068-7.5,27.019ZM323.394,733.756a32.467,32.467,0,0,1-2.065,16.464A32.378,32.378,0,0,0,323.394,733.756Zm-32.119-80.1a99.041,99.041,0,0,0,3.449,13.911c.594,1.867,1.162,3.529,1.738,5.059-.647-1.76-1.23-3.459-1.726-5.048A99.369,99.369,0,0,1,291.275,653.659Zm54.093,346.67v0l-2-4.5c-6.534-14.589-6.631-26.9-.3-37.624l.519-.9,15.046-.213-6.91,14.9-3.521,2.7.09,3.2c.214,5.792.444,11.776-1.426,17.758l-1.5,4.688ZM123.376,829.709v0l-9.554-12.545-5.014-9.184L104.9,790.231l6.308-8.986,10.355-3.2-1.275,3.316a30.5,30.5,0,0,0-1.869,15.72l.617-3.35,5.029-12.946,4.348,24.059L123.379,829.7Zm58.092-7.13h0l-14.335-1.148,14.128-7.563.387-3.205-8.283,5.924-22.509,1.592,29.806-21.815,9.667,3.529,1.915,8.417,20.891,3.772-31.668,10.493ZM88.887,803.021v0L76.73,775.8c-.376-2.583-.688-4.631-.94-6.272-.2-1.249-.327-2.116-.444-2.9-1.328-8.388-1.779-11.211,1.67-20.975l.346-.929L91.569,741.5,86.9,755.044l-.685,10.5L97.049,740.5l1.945,2.231c.775.889,1.621,1.779,2.437,2.636l.041.051.169.175.075.083c3.509,3.7,7.139,7.523,6.556,11.665-.346,2.289-1.952,4.319-4.781,6.033l-7.241,8.351,2.832,10.229-10.2,21.062Zm66.134-107.995h0c-1.832,0-4.4-1.368-10.573-5.624l-2.106-1.445,19.62-14.363-2.746,6.256c-1.463,3.359-1.294,6.781-1.174,9.281v.038l.008.106v.009c.1,2.2.166,3.787-.9,4.9l-.553.563ZM613,572.018c-5.74-15.718-13.1-32.663-20.218-49.048l0-.011-.7-1.62c-2.091-4.812-4.251-9.787-6.319-14.629-5.3-12.907-11.307-27.807-15.625-41.334-4.585-14.356-6.891-25.957-7.041-35.472,3.792,7.169,6.342,13.041,8.809,18.72l.015.026a199.772,199.772,0,0,0,13.462,26.724c.9,1.277,1.809,2.6,2.776,4.01l.26.384c2.829,4.13,6.346,9.274,10.78,14.872a299.6,299.6,0,0,1-13.925-31.157,348.668,348.668,0,0,1-14.06-46.826,236.393,236.393,0,0,1-5.77-48c6.925,8.937,14.03,18.629,19.146,28.962,11.8,21.41,19.07,45.473,22.873,75.73l2.227,1.053a167.311,167.311,0,0,0-7.3-47.194c-3.991-13.189-9.55-26.535-18.025-43.263-.568-1.223-1.185-2.547-1.892-4.049l-.011-.023c-.861-1.839-1.753-3.748-2.6-5.6-1.61-23.349-2.148-42.826-1.666-59.537a257.107,257.107,0,0,1,4.89-45.266q.2-.65.395-1.27c.207-.688.406-1.336.643-2.022,1.388,4.562,3.084,11.077,4.882,17.977l0,.019c6.03,23.127,14.286,54.8,24,68.413V572.018Zm-544.391-29.9v0l-1.6-.273a7.956,7.956,0,0,1-5.766-4.185c-1.294-2.457-2.129-6.789,1.241-13.466l8.535-29.938,8.238,14.122-10.649,33.74Zm-10.622-9.7v0l-6.564-10.744-.312-11.691,5.518-7.976,8.61-1.14-7.248,31.551Zm-42.824-13.6v0l-5.582-6.484-1.535-5.072,5.119-26.153,9.148-1.7,2.358,7.674-9.509,31.732Zm-8.546-11.58v-.008L1.388,494.64,0,483.738l3.923-10.2,10.051,1.509L6.616,507.234ZM147.9,351.55l0,0c-4.672-3.831-6.677-10.135-6.308-19.846.335-8.914,2.562-19.846,5.138-32.5.2-.98.4-1.969.609-2.969l.308-1.547.621,54.009a7.323,7.323,0,0,1-.207,1.847l0,.023a5.484,5.484,0,0,0-.154.989ZM613,338.342c-1.365-4.558-3.043-9.091-4.664-13.478l-.015-.028c-1.892-5.134-3.855-10.446-5.27-15.66a73.557,73.557,0,0,1-4.01-19.814,124.967,124.967,0,0,1,.651-23.193c1.839-16,6.443-33.833,13.312-51.572V338.342ZM400.839,215.206a.577.577,0,0,1-.512-.326l1.9-.71C401.723,214.836,401.226,215.206,400.839,215.206ZM74.582,173.849h0l-2.016-.454c-18.322-4.2-22.23-9.372-27.094-17.468l-2.257-3.795,4.341,1.108c8.177,2.088,16.848,4.017,24.856,4.017l4.442-.179-2.268,16.767ZM30.351,121.384v0l-4.939-4.066,1.7-6.18,8.794-9.483,11.92-1.931L30.351,121.38Zm-17.242-.81,0,0L27.647,91.632l11.183,1.577-8.381,13.265-2.8,2.841-5.936,9.206-8.6,2.052Zm389.965-1.521,0-.008c-2.257-3.164-18.747-3.827-32.183-3.827-13.3,0-25.856.65-30.633.929-1.1.09-2.009.138-2.847.138-8.648,0-15.58-3.239-18.89-6.014-2.513-2.108-3.882-7.228-4.187-15.65-.26-7.241.3-15.618.8-23.012v-.047c.132-1.928.229-3.414.32-4.863,1.58-11.829,4.021-28.029,7.034-32.1l3.122,20.523L329.894,73.4l2.588,5.016,4.427,6.787,5.657,6.09c6.82,4.914,13.962,6.256,20.869,7.552l.549.1c.7.134,1.426.269,2.133.409l-6.033-18.7,17.1,10.981-6.507,8.743a32.187,32.187,0,0,1,4.348,1.364c2.125,1.01,4.924,2.042,7.628,3.039l.023.008a87.153,87.153,0,0,1,13.267,5.747c4.476,2.613,6.808,5.4,7.128,8.513ZM580.734,83.048v0l-1.392-1.993-1.576-2.574c-1.651-2.824-3.524-6.026-7.237-7.443l.609-3.54,23.645-.665L580.734,83.046ZM14.959,69.225l.008,0,13-16.677,16.742-11.07L44.9,58.789l-14.907,4.17L14.967,69.224ZM404.7,18.978h0l-.553-.509c-1.222-1.168-1.162-3.346.188-6.657.959-2.333,2.923-6.244,5.27-6.244l22.042,2.286-9.622,10.936Z" transform="translate(0.512 0.951)" fill="#12284a" stroke="rgba(0,0,0,0)" stroke-width="1" opacity="0.05"/>
</svg>
