<svg xmlns="http://www.w3.org/2000/svg" width="653.012" height="1132.542" viewBox="0 0 653.012 1132.542">
  <path id="Subtraction_11" data-name="Subtraction 11" d="M449.89,1129.926v-.006L447.725,1124c-4.621-12.79-4.621-24.622,0-36.176l.752-1.9,11.778,5.181-10.362,38.811Zm-56.347-27.748h0c-2.016,0-4.053-1.922-6.581-6.233-3.137-5.271-8.034-16.54-11.39-28.829a87.39,87.39,0,0,1-3.069-16.387c-.376-5.337.2-9.333,1.7-11.886a6.577,6.577,0,0,1,6.017-3.477c2.477,0,5.453,1.056,8.846,3.135l1.068.675-3.641,25.586,1.476.755,3.121-17.744,2.921-.13,1.048.9c3.461,3.92,3.313,33.52.676,51.932l-.188,1.312Zm-16.855-58.437h0v.08l.072,5.5-.068-5.581Zm129.861,49.35v-.022l2.533-3.623c5.857-8.626,5.7-14.3,5.505-21.48v-.026a75.363,75.363,0,0,1,.384-12.215l.884-1.369,5.309-3.383h.036l6.925,3.94-3.345,18.275,6.461-15.682,8.882,10.1-.388,1.1c-5.213,13.626-14.879,21.6-28.725,23.718l-4.457.667Zm-44.064-4.706h0v0a69.753,69.753,0,0,1-5.065-4.818c-.7-.714-1.388-1.409-2.024-2.022l-.488-.587-.02-.022c-4.033-4.842-6.945-8.335-10.166-8.335-2.909,0-6.025,2.944-10.11,9.547a22.867,22.867,0,0,1-6.689-9.1,14.3,14.3,0,0,1-.38-8.79c1.272-4.66,4.781-9.131,10.15-12.926a45.026,45.026,0,0,1,17.275-7.3l2.721-.806,4.241-11.161c-.2.116-.4.23-.6.341-.1.056-.2.114-.3.168l-.012.006a34.317,34.317,0,0,1-6.121,3.01l-.488.257c-11.61,6.158-15.519,8.239-22.332,8.239a62.8,62.8,0,0,1-7.209-.5c.108,13.76-1.192,15.594-6.017,22.421l-.112.161c-1.092,1.545-2.328,3.295-3.777,5.5l-7.841-.7,2.66-3.868-12.034-33.554-12.2-.6c2.961-10.271,6.969-17.275,12.262-21.414,4.273-3.345,9.486-4.9,16.407-4.9a107.812,107.812,0,0,1,11.59.872l.344.036.22.022.02,0a111.437,111.437,0,0,0,12.074.882c6.377,0,11.474-1.11,16.043-3.491,2.793-1.16,5.213-3.235,7.77-5.427a35.1,35.1,0,0,1-7.83,3.573,42.967,42.967,0,0,1-14.287,2.491,65.241,65.241,0,0,1-14.4-1.972l-.752-.164-.032-.008a56.654,56.654,0,0,0-12.23-1.8,25.643,25.643,0,0,0-11.894,2.86c-4.5,2.263-9.066,5.912-13.967,11.165-6.125-3.146-11.526-4.371-19.28-4.371h-1.1c.288-.253.588-.511.9-.786.224-.2.456-.4.7-.607,4.657-4.05,11.694-10.173,19.088-15.417,8.878-6.3,15.747-9.493,20.42-9.493a8.853,8.853,0,0,1,1.66.152c13.347,2.617,25,3.94,34.623,3.94a86.487,86.487,0,0,0,10.47-.6,40.641,40.641,0,0,0,12.818-3.6,27.931,27.931,0,0,0,8.63-6.567c4.733-5.3,7.858-12.487,11.478-20.808a194.106,194.106,0,0,1,12.138-24.4,142.23,142.23,0,0,1,23.212-28.845c3.281-2.99,12.266-7.648,21.776-12.576l.036-.022c15.287-7.926,32.614-16.91,32.078-21.884-.128-1.239-1.4-2.193-3.769-2.834a119.473,119.473,0,0,1-29.122,18.271c-9.95,4.269-19.668,6.435-28.878,6.435a52.308,52.308,0,0,1-18.215-3.166,50.933,50.933,0,0,1-16.223-9.814c-10.462-9.291-18.335-23.259-23.4-41.516,4.053.24,7.593.669,10.718,1.046l.112.012.024,0a75.459,75.459,0,0,0,8.562.744c4.233,0,6.949-1.088,9.1-3.639,2.368-2.816,4.141-7.545,5.757-15.341-5.157,1.964-9.6,2.96-13.207,2.96-5.409,0-9.1-2.2-11.278-6.732-1.9-3.938-2.4-9.117-2.84-13.688l-.008-.048v-.016c-.388-4.016-.756-7.808-1.992-10.119l-2.745.022c-3.065,14.265-2.16,24.179,2.781,30.3a17.954,17.954,0,0,0,7.677,5.431,34.064,34.064,0,0,0,12.086,1.92h.636c-4.289,1.5-9.91,3.227-15.383,3.227a18.967,18.967,0,0,1-14.427-5.97c-.132-.232-.3-.473-.48-.726l-.04-.06a8.787,8.787,0,0,1-1.116-1.9l-4.993,5.074,6.981,31.713.824,1.5-.776,1.12-9.43,28.077c-2.856-5.96-4.265-12.567-4.429-20.78-.148-7.437.74-15.586,1.672-24.209l.064-.575c.412-3.8.836-7.736,1.2-11.844l-8.59-2.571a109.3,109.3,0,0,1-5.845,42.244A100.69,100.69,0,0,1,396.8,918.255c8.594-16.562,14.795-37.681,17.931-61.07a255.882,255.882,0,0,0,.652-63.225c-1.1-3.269-3.417-26.165-1.716-51.817a201.449,201.449,0,0,1,6.453-40.386c4.017-14.421,9.694-26.019,16.879-34.46,4.209-4.848,8.758-10.549,13.523-16.954,7-8.864,12.426-16.347,17.087-23.55a162.473,162.473,0,0,0,13.227-24.408,110.425,110.425,0,0,0,8.77-55.5l-17.027,49.575c-5.1,14.784-13.715,28.025-22.268,40.128-3.209,4.585-6.6,9.223-9.882,13.706l-.24.323-.028.042c-8.546,11.668-17.383,23.738-24.029,36.206a110.261,110.261,0,0,0-8.174,19.241,77.565,77.565,0,0,0-3.529,20.562c-.3,11.181-.036,24.165.22,36.725l.008.2c.48,23.3.932,45.312-1.96,56.14-2.08,11.489-5.557,21.814-9.79,29.073a30.89,30.89,0,0,1-6.529,8.2,10.865,10.865,0,0,1-6.889,2.918,7.782,7.782,0,0,1-2.532-.439c2.693-11.8,1.52-32.941-.508-42.907l-3.533-1.477a109.413,109.413,0,0,0,.068,16.914l.008.084a129.907,129.907,0,0,1,.256,15.143c-5.085,11.453-9.986,20.215-14.583,26.041-4.549,5.778-8.838,8.73-12.738,8.776a121.733,121.733,0,0,1-1.472-12.942v-.012c-.392-5.808-.52-7.766-5.517-14.561l4.749-26.889-7.017-1.83-7.149,33.023-16.579,22.041-.216.026a1.278,1.278,0,0,1-1.052-.5c-1.492-1.882.152-9.022,1.892-16.578l0-.026.132-.569c.24-1.038.488-2.108.728-3.167,1.76-7.9,3.433-16.574.972-19.654a3.161,3.161,0,0,0-2.592-1.172,8.2,8.2,0,0,0-3.025.7c4.273,15.858-1.356,33.622-17.219,54.308,1.892-2.824,4.329-15.886,3.837-29.931a81.514,81.514,0,0,0-3.549-21.961c-2.488-7.708-6.205-13.838-11.05-18.213a57.022,57.022,0,0,1-.384,31.983,47.182,47.182,0,0,1-7.2,13.976,48.243,48.243,0,0,1-12.086,11.3l-21.292-50.707-6.677-3.762A95.088,95.088,0,0,1,235.2,844.99c-.368,6.048-1.744,10.493-4.1,13.2a9.908,9.908,0,0,1-7.845,3.345c-4.089,0-9.282-1.742-15.435-5.182.376-2.689-1.256-5.649-4.849-8.8-3.653-3.2-9.334-6.613-16.891-10.131.292-.653.576-1.283.856-1.9l.332-.734c3.393-7.581,5.641-12.594,12.282-18.548l-6.265-.3c-1.244,1.245-2.428,2.521-3.577,3.754l-.032.03c-3.585,3.85-6.965,7.485-11.9,10.117l6.429-21.1c-5.549,1.114-8.87,3.615-10.45,7.866-1.42,3.826-1.3,8.738-1.168,13.936l0,.034a92.511,92.511,0,0,1-.156,10.856,85.131,85.131,0,0,1-9.25,12c-3.081,3.521-6.145,5.233-9.362,5.233-4.225,0-8.742-2.894-13.8-8.852l.068-1.056c.48-7.764.748-12.034-.216-15.742s-3.245-6.894-7.649-12.191L113.194,830.96l-5.205-9.143c11.538-9.227,21.5-18.247,32.05-27.8l.84-.76c3.689-3.337,7.5-6.79,11.354-10.211l-3.977-2.277-24.769,24.4-15.931-22.84-25.745,5.7c3.833-3.85,7.825-8.357,12.058-13.133,7.405-8.369,15.067-17.021,23.468-24.061,9.6-8.048,18.387-12.4,26.877-13.289l7.477,7.183c1.044.225,2.1.449,3.137.663l.456.094.024.008c2.36.5,4.593.962,6.629,1.449,8.142,1.651,15.431,3.339,21.864,4.826l.1.022c17.091,3.938,30.59,7.046,45.793,7.046,13.647,0,27.613-2.587,43.952-8.141,1.64-1.239,3.389-2.6,5.193-4,11.87-9.217,26.641-20.686,40.092-22.383,2.632,5.974,5.729,12.06,7.99,16.506.82,1.543,1.66,3.108,2.472,4.617l.284.535.1.182c1.02,1.9,2.056,3.818,3.073,5.752-1.028-1.948-2.072-3.894-3.1-5.8l-.024-.046c-1-1.858-1.9-3.533-2.8-5.237-2.524-4.932-5.429-10.686-8-16.506a27,27,0,0,1,3.249-.2,20.074,20.074,0,0,1,12.022,3.822c3.961,2.888,7.361,7.465,10.106,13.614l2.617-8.094-14.227-13.7-3.7-1.425-5.453-10.067,5.453,10.076-9.682-3.742c-1.46.389-2.757.7-3.957.942v0a76.728,76.728,0,0,1-16.171,1.84c-9.926,0-18.768-2.321-26.281-6.894a48.225,48.225,0,0,1-17.075-18.163A69.816,69.816,0,0,1,248.4,671a95.785,95.785,0,0,1-1.208-24.416,110.779,110.779,0,0,1,4.873-25.217,106.253,106.253,0,0,1,10.786-23.748,59.28,59.28,0,0,1,.5,18.3,36.316,36.316,0,0,1-6.8,16.608,41.059,41.059,0,0,0,17.623-11.469A69.3,69.3,0,0,0,286.31,602.71a77.593,77.593,0,0,0,6.169-19.8c1.036-6.367.944-11.832-.256-15.81.58,1.854,6.677,3.146,14.819,3.146,8.378,0,19.448-1.457,25.393-5.553-17.611-5.2-19.144-11.906-20.912-19.672-.124-.521-.244-1.052-.368-1.579-1.176,6.1-1.1,9.537.292,12.249s4.113,4.675,8.242,7.643l.024.02.608.435c.768.555,1.568,1.132,2.424,1.766-2.8.212-5.265.453-7.441.671l-.108.01c-3.449.341-6.425.637-9.15.637a25.882,25.882,0,0,1-8.434-1.3,49.473,49.473,0,0,1-10.21-5.016l-2.721,1.962a21.093,21.093,0,0,1,3.377,10.634,42.436,42.436,0,0,1-1.244,12.93,49.8,49.8,0,0,1-6.205,14.736c-2.893,4.549-6.293,7.926-9.822,9.764l-2.757-32.574-5.417,1.605a74.681,74.681,0,0,1-7.777,20.235,63.951,63.951,0,0,1-13.7,17.189c3.541-6.668,6.813-14.748,10.278-23.3l.032-.08c5.609-13.856,11.414-28.187,19.356-39.378,4.3-6.07,8.758-10.543,13.623-13.68a32.5,32.5,0,0,1,17.891-5.291c7.914,0,16.8,2.685,26.413,7.976,6.3,2.517,13.03,5.112,19.536,7.622l.808.313.02.008c33.338,12.846,67.813,26.127,76.063,39.677l7.381,62.659,4.993-6.138-4.357-71.988c5.281,2.786,10.294,4.315,14.119,4.315a11.409,11.409,0,0,0,2.4-.232,8.75,8.75,0,0,0,5.893-5.02c1.544-3.383,1.74-8.159.568-14.2a82.816,82.816,0,0,0-6.849-19.48,134.577,134.577,0,0,0-24.981-36.057c-11.486-11.826-23.789-19.79-35.575-23.031a96.064,96.064,0,0,0,14.627-27.021c2.837-8.281,4.645-17.379,5.865-29.5l-4.357-1.537c.7,2.8.552,6.389-.424,10.65a78.226,78.226,0,0,1-5.073,14.267c-4.453,9.89-11.386,22.023-21.188,37.087-3.173-3.812-5.013-9.117-5.641-16.223-.556-6.375-.108-13.6.32-20.594.856-13.79,1.728-28.039-4.561-37.8l-2.689.058c1.772,6.8,2.288,15.307,1.5,24.606a125.562,125.562,0,0,1-5.841,28.157,109.78,109.78,0,0,1-12.318,26c-5.373,8.113-11.4,14.217-17.911,18.137L324,439.917l-5.465-1.064c-.444,4.672-.7,9.315-.944,13.8v.06c-.928,16.953-1.8,32.965-12.406,49.08l.308-43.689-3.593-2.643c-1.032,20.269-8.09,39.394-21.576,58.459l-7.205-42.839-9.07-4.848-1.108,6.137a23.37,23.37,0,0,1,5.193,15.2,39.228,39.228,0,0,1-4.221,16.013c-4.865,10.283-12.8,19.842-19.86,27.993l2.46-22.618-5.485-1.1-3.921,31.8c-1.08-6.71-1.66-12.407-2.176-17.431V522.2c-.768-7.5-1.372-13.423-3.213-19.432-1.992-6.5-5.249-12.429-10.558-19.235l-5.465.1a38,38,0,0,1,5.717,13.211,40.348,40.348,0,0,1,.568,13.071c-.952,8.69-4.229,17.393-7.393,25.812l0,.018c-3.269,8.7-6.649,17.7-7.357,26.476a35.188,35.188,0,0,1-11.75-14.369c-2.548-5.435-4.109-11.465-5.613-17.293l-.024-.1c-1.676-6.5-3.409-13.213-6.505-19.083a34.558,34.558,0,0,0-5.857-8.139,33.326,33.326,0,0,0-8.994-6.481q.6,1,1.188,1.976c7.9,13.1,13.595,22.562,10.97,30.522-1.836,5.557-7.761,10.231-18.648,14.7a12.367,12.367,0,0,0-2.352-4.543c-1.66-2.707-4.545-5.1-8.586-7.1l-1.612,2.5a104.984,104.984,0,0,1-6.757,9.074l4.685-5.619,9.01.481.76,10.223L133.733,560.56l-2.424-2.96,10.2-12.259c-7.429,8.579-15.431,14.149-24.473,17.025l-2.024-3.158,2.12-2.16.02-.018a108.7,108.7,0,0,0,10.53-11.477c3.625-4.822,5.573-9.193,5.957-13.365l.168-1.992,16.911,1.958c-5.657-2.671-12.99-4.082-21.224-4.082a87.174,87.174,0,0,0-15.379,1.449c-2.917-4.98-3.869-8.483-3-11.018,1.016-2.968,4.493-4.365,8.526-5.974l.008,0h0c5.157-2.066,11.574-4.637,15.275-11.554l-33.466,13.015a51.307,51.307,0,0,1,2.713,18.325c-.216,6.507-1.7,12.018-4.153,15.512a9.029,9.029,0,0,1-7.605,4.295,12.244,12.244,0,0,1-4.3-.862l1.444-11.491a126.569,126.569,0,0,0-13.515-15.185l-26.1,9.074c-.008-1.118-.024-2.217-.048-3.335v-.022c-.108-6.139-.2-11.936,1.388-18.482,9.242-4.627,16.6-5.886,25.9-7.479l.232-.038,1.088-5.391c-17.755,2.605-28.865,4.535-33.4,11.075-2.973,4.283-3.289,10.6-1.04,21.111a25.719,25.719,0,0,1-8.806,1.852,11.544,11.544,0,0,1-10.014-5.108L30.07,508.64a36.431,36.431,0,0,0-11.93-6.253,68.383,68.383,0,0,0-13.991-2.994c5.873-.1,11.262-2.609,16.475-7.682,4.5-4.379,8.094-9.888,11.274-14.746,2.661-4.082,4.961-7.6,7.157-9.457a8.285,8.285,0,0,1,5.521-1.956c3.361,0,7.105,1.555,11.442,3.357l.552.225c.476.194.964.4,1.452.6,4.917,2.032,10.714,4.2,17.263,4.2a28.245,28.245,0,0,0,6.465-.734l-.032-4.966-19.648-3.635,5.441-6.545,32.942,11.489a225.776,225.776,0,0,0,58.047-26.7,266,266,0,0,0,36.915-27.185l-6.909-17.9,7.241-54.884-2.356-1.5-12.8,46.5c-3.761-2.543-6.417-6.465-7.893-11.65a49.442,49.442,0,0,1-1.332-16.415c.72-11.794,4.077-24.6,6.521-33.945l0-.018c2.036-7.764,3.5-13.367,2.208-13.808-5.509,13.028-18.712,44.845-22.4,58.824l-.644-57.443c3.973-17.468,8.11-38.416,8.722-61.363l-3.965-1.453-3.381,17.237-1.908,2.74L127.36,321.816l.276,21.814a94.732,94.732,0,0,1-12.874-27.9,92.859,92.859,0,0,1-3.117-26.929c.428-17.626,5.129-34.578,9.666-50.968l.008-.02.012-.042c6.141-22.2,11.946-43.156,6.373-63.028l-6.665.84a13.46,13.46,0,0,1,2.072,6.481,13.189,13.189,0,0,1-1.5,7.028,12.082,12.082,0,0,1-5.049,4.982,19.164,19.164,0,0,1-9.15,2.026c-5.525,0-12.206-1.625-19.868-4.83-3.537-8.543-2.653-13.01-1.948-16.6.856-4.363,1.476-7.513-5.817-15.147l9.142-18.065c-.256-.291-.52-.587-.784-.886-2.909-3.273-5.913-6.648-10.038-6.648h-.152c-8.186,7.377-14.971,11.123-20.172,11.123a8.374,8.374,0,0,1-7.525-4.311c-2.168-3.543-3-9.159-2.352-15.8a54.765,54.765,0,0,1,5.413-18.716L35.543,94.5c3.8-6.776,7.289-11.469,10.646-14.355a13.906,13.906,0,0,1,9.362-3.814c3.745,0,7.565,1.5,11.986,3.241l.632.246c.568.222,1.152.451,1.748.677,5.665,2.162,11.986,4.164,19.856,4.164a54.141,54.141,0,0,0,15.367-2.349c-6.533-1.9-13.671-3.259-20.572-4.569l-.064-.012-.016,0C72.6,75.473,60.3,73.143,50.146,67.908l7.149-24.917c14.9.1,26.421.677,35.223,1.748,8.306,1.01,14.4,2.5,18.612,4.543,8.138,3.94,8.978,9.764,10.054,17.139.8,5.549,1.712,11.828,5.733,19.063,4.677,8.415,12.638,16.353,24.341,24.273-.088-5.91-4.233-10.535-8.626-15.431l-.012-.012c-2.693-3.014-5.485-6.13-7.341-9.628l-1.316-11.537q1.566.322,3.013.617l.88.18c8.362,1.707,13.411,2.738,16.5,4.323a7.6,7.6,0,0,1,4.829,5.708c.64,2.784.552,6.648.416,12.493v.022l-.008.265c-.088,3.84-.2,8.622-.112,14.405,16.119,15.854,28.777,32.584,41.024,48.769l0,.006c22.352,29.532,43.456,57.427,82.092,75.564-4.633,3.146-8.882,5.966-13.559,9.058l-.012.012c-17.515,11.6-30.174,19.977-39.359,32.055-9.482,12.477-14.995,28.688-18.431,54.214l-15.323,31.193,2.1,38.286,7.313-7.385,9.834,38.224,3.957.7a54.829,54.829,0,0,1,3.273-29.039,86.215,86.215,0,0,1,15.887-25.4,137.766,137.766,0,0,1,22.488-20.367,150.177,150.177,0,0,1,23.06-13.95,146.2,146.2,0,0,0-5.713,20.69,175.5,175.5,0,0,0-3.221,24.065c-.82,12.838-.448,31.041,5.965,44.841l3.973,1.2c.708-13.692,3.045-26.043,6.941-36.713,4.789-13.1,11.806-23.171,20.872-29.923-4.7,6.1-8.622,20.979-10.5,39.8-1.76,17.652-1.252,34.256,1.28,42.3l6.693,2.233,10.854-37.354c4.441-4.531,8.462-8.736,12.014-12.447l.012-.014c11.57-12.085,20.708-21.632,31.346-29.326a109.055,109.055,0,0,1,17.751-10.425,168.985,168.985,0,0,1,23.548-8.784l1.188-5.405L371.3,360.146c-12.606,4.3-25.549,13.964-37.431,27.949a151.1,151.1,0,0,0-24.089,39.336,158.741,158.741,0,0,1-1.224-26.632,106.419,106.419,0,0,1,3.177-21.82,81.005,81.005,0,0,1,6.837-17.654,75.291,75.291,0,0,1,9.762-14.129c6.533-7.487,14.835-14.1,25.369-20.231,9.29-5.4,18.944-9.674,28.281-13.8l.04-.018c10.146-4.491,19.724-8.732,27.4-13.832,8.594-5.714,13.711-11.77,16.1-19.065-18.043,16.333-33.89,22.362-53.958,29.989l-.132.054c-7.169,2.728-14.583,5.545-22.884,9.127-6.677,2.79-13.623,7.5-20.636,13.992a143.6,143.6,0,0,0-18.664,21.5c-10.982,15.273-20.244,33.33-24.785,48.3-1.816-8.88-3.653-20.638-1.768-32.849a61.451,61.451,0,0,1,5.465-17.528,70.917,70.917,0,0,1,12.378-17.58c6.705-3.173,13.5-5.852,20.076-8.441l.064-.026c4.9-1.93,9.958-3.926,14.919-6.1-15.615,2.637-27.269,5.257-37.8,8.5a135.518,135.518,0,0,0-33.206,14.9,108.052,108.052,0,0,0-27.873,25.55,135.314,135.314,0,0,0-11.7,18.091,179.968,179.968,0,0,0-10.086,22.351c-.26-21.943,2.721-35.66,9.946-45.863,6.977-9.86,17.679-16.235,32.5-25.053l.048-.026.1-.062c4.769-2.838,10.17-6.052,15.919-9.68-15.815,2.822-27.161,6.91-37.939,13.678-10.17,6.389-19.42,14.728-33.978,28.853a85.365,85.365,0,0,1,11.474-29.44A110.076,110.076,0,0,1,234.1,317.991a171.525,171.525,0,0,1,28.649-20.075,275.575,275.575,0,0,1,34.1-16.177c21.748-8.67,46.661-16.113,76.174-22.752,27.177-6.112,53.21-10.383,72.854-13.419,3.169-.463,6.485-.94,9.85-1.419,17.963-2.579,33.478-4.806,44.476-7.211,7.217-1.453,18.98-7.615,29.958-15.692a118.927,118.927,0,0,0,15.6-13.614,57.24,57.24,0,0,0,10.67-14.948,182.334,182.334,0,0,1-31.722,26.674,114.046,114.046,0,0,1-16.787,9.289,47.279,47.279,0,0,1-14.823,4.18c-18.644,3.611-33.65,6.313-47.233,8.5-13.05,2.136-25.793,4.082-36.035,5.645l-.028,0c-34.106,5.215-63.564,9.72-88.089,17.2-27.793,8.81-52.31,20.608-72.87,35.065a180.376,180.376,0,0,0-30.078,26.285c-1.472,1.6-2.288,2.479-2.54,2.479a.066.066,0,0,1-.064-.034c-.084-.13.072-.683.508-1.8a108.12,108.12,0,0,1,7.609-25.061A99.583,99.583,0,0,1,236.605,280.6a109.657,109.657,0,0,1,16.023-16.528,136.666,136.666,0,0,1,18.728-13.1c26.3-15.449,57.023-23.261,81.7-29.54l.02-.006h.016c4.581-1.168,8.914-2.271,12.987-3.361-.552,1.12-1.048,2.146-1.5,3.086-2.264,4.714-3.409,7.078-5.561,8.345-2.18,1.285-5.441,1.389-11.49,1.477l.78,5.283a43.379,43.379,0,0,0,16.815,3.2,65.73,65.73,0,0,0,21.7-4,94.108,94.108,0,0,0,20.264-10.173,88.332,88.332,0,0,0,16.127-13.584c4.461-4.874,7.67-9.794,9.282-14.231a270.55,270.55,0,0,1-18.431,43.064C423,237,435.235,232.16,445.653,224.481a58.433,58.433,0,0,0,11.65-10.309,48.96,48.96,0,0,0,8.382-14.019l-2.32-3.776a96.11,96.11,0,0,1-17.807,20.472c-5.741,5.022-12.206,9.008-17.743,10.934,3.225-3.916,9.242-18.961,17.415-43.508v-1.156l-6.685-.248A260.434,260.434,0,0,1,411.362,212.2c-8.566,7.728-15.575,12.293-19.728,12.866,6.077-10.074,12.382-21.518,16.811-40.753l-1.972,0c-3.245,9.355-7.738,21.287-13.7,30.548a41.912,41.912,0,0,1-9.458,10.8,18.926,18.926,0,0,1-11.566,4.2,16.412,16.412,0,0,1-3.1-.287c12.642-25.193,27.149-46.475,32.2-52.829A8.255,8.255,0,0,0,398.1,174.1c-4.8,4.108-9.15,10.517-13.355,16.712l-.032.038c-4.581,6.752-9.318,13.732-14.735,17.973a12.707,12.707,0,0,1-8.006,2.571,28.437,28.437,0,0,1-10.254-2.4l-.056-.024c-.328-.128-.6-.242-.82-.317a24.672,24.672,0,0,1-9.686-4.752,17.93,17.93,0,0,1-5.521-7.179,8.689,8.689,0,0,1,.452-8.149c4.957,5.177,10.77,7.8,17.271,7.8,8.574,0,16.583-4.535,21.788-8.343,5.889-4.313,10.65-9.523,12.31-12.441.5-.882.676-1.489.516-1.76.244-.786,1.78-1.17,4.709-1.17,3.945,0,10.1.679,17.227,1.465.56.06,1.124.126,1.692.186l3.044.335a278.708,278.708,0,0,0,29.218,1.98H445.1c7.966-.1,14.491-1.056,19.952-2.914,6.525-3.635,12.082-9.84,16.063-17.951a56.775,56.775,0,0,0,5.773-23.6,39.548,39.548,0,0,0,14.439,7.792,61.7,61.7,0,0,0,18.367,2.744c11.206,0,21.5-2.908,28.978-8.183a31.217,31.217,0,0,0,9.674-10.788,33.594,33.594,0,0,0,3.769-15.742c14.395,18.085-20.38,57.567-45.769,86.392l-.016.016c-1.412,1.6-2.56,2.906-3.6,4.1l12.762-46.471-2.757-1.1-16.511,32.316-24.681,30.945c.18-3.333.308-6.6.428-9.76v-.012c.736-19.251,1.372-35.875,14.563-54.739l-1.28-4.611a54.509,54.509,0,0,0-9.094,11.93A57.17,57.17,0,0,0,481,169.615c-2.42,8.606-3.1,17.764-3.773,26.62-.9,11.9-1.82,24.211-6.841,36.045l6.257-.06,21.948-29.753,5.149-.038,6.453,19.081c1.1-12.283,14.415-28.041,28.521-44.721,10.974-12.988,22.324-26.414,28.641-39.081,3.413-6.854,5.041-12.828,4.985-18.255a22.905,22.905,0,0,0-1.64-8.387,24.911,24.911,0,0,0-5.077-7.728,41.749,41.749,0,0,0-6.233-15.708c-2.66-3.92-7.165-8.6-13.495-8.6h-.152c5.649,6.3,9.2,12.754,10.566,19.2a26.8,26.8,0,0,1-1.7,16.76,30.716,30.716,0,0,1-5.861,8.648,37.823,37.823,0,0,1-8.526,6.664,43.753,43.753,0,0,1-21.584,5.8,36.652,36.652,0,0,1-23.429-8.068,38.363,38.363,0,0,1-9.074-10.828,53.939,53.939,0,0,1-5.841-16.015l-3.941.447c1.608,7.537,2.777,15.079,4.013,23.067l.036.2.184,1.186a50.422,50.422,0,0,1-1.84,20.674,38.242,38.242,0,0,1-7.829,13.968c-5.381,6.072-11.578,8.842-15.323,8.892a83.938,83.938,0,0,1-10.494.9c-8.366-.118-19.44-1.034-30.146-1.918h-.012c-10.374-.86-20.176-1.667-26.553-1.667h-.872c-2.749.034-5.065.381-15.671,3.585,4.117-13.427,8.87-23.135,14.127-28.849.936.295,1.936.619,3.057.988l.056.016c5.985,1.944,12.17,3.952,19.228,3.952,11.162,0,22.7-5.078,36.331-15.974l1.08-.756c7.093-9.509,7.85-25.63,2.232-47.913-.436.232-.84.465-1.232.687l-.14.078a13.836,13.836,0,0,1-2.468,1.231c-11.254,6.08-21,9.036-29.81,9.036-8.934,0-16.907-2.966-25.845-9.616a20.985,20.985,0,0,1-6.069-11.022,43.854,43.854,0,0,1-.712-14.377c1.016-9.892,4.7-19.927,9.406-25.566,13.227-5.022,36.743-6.361,48.553-6.361,1.748,0,3.025.046,3.793.084l1.932-.06-1.9,2.7-3.089,5.8c-.58,4,.476,6.994,3.241,9.163a10.115,10.115,0,0,0,4.509,1.441h.188l5.077-.449c1.124,8.06,5.745,15.427,13.01,20.744a43.648,43.648,0,0,0,25.653,8.09,46.543,46.543,0,0,0,18.5-3.834,51.794,51.794,0,0,0,17.359-12.387l9.478,1.084,1.436-3.846c-6.805-5.1-16.887-9.828-28.405-13.3a128.142,128.142,0,0,0-35.859-5.587,71.206,71.206,0,0,0-21.3,2.916c-.628.04-1.16.058-1.616.058-2.917,0-4.641-.659-5.133-1.964-.648-1.707.724-4.5,4.2-8.529A142.8,142.8,0,0,1,463.624,15.6c15.951.637,32.91,1.263,49.461,1.263a457.6,457.6,0,0,0,52.59-2.689,272.217,272.217,0,0,0,51.238-10.62c1.784-.6,3.489-1.208,5-1.752l.036-.012c1.648-.591,3.345-1.2,5.109-1.788L617.033,14.275l-13.07,19.313,13.223-4,17.171-5.521-16.979,19.7-.368.782h.368L631.1,42.484l-5.413,11.173c-2.461.337-4.437.641-6.525.962l-.06.01-1.576.242c-15.059,1.545-23.924,2.629-31,6.972-6.793,4.17-12,11.217-19.9,26.925l1.612,2.255C578.31,73.88,587.8,64.515,596.45,63.191c6.013-1.16,13.227-2.463,21.152-3.339,11.33-.822,22.58-1.315,34.4-1.5v2.633c-8.514,6.058-20.144,6.8-32.454,7.575l-.92.06c-.3.018-.612.04-.92.058-9.066.487-18.435.99-26.237,3.718l-15.9,15.113.132,7.682a51.349,51.349,0,0,0,12.883-11.269,23.625,23.625,0,0,1,8.418-7c.44-.03.9-.046,1.4-.046a12.048,12.048,0,0,1,8.134,2.878,29.088,29.088,0,0,1,5.049,6.283l.032.048a40.043,40.043,0,0,0,3.557,4.842c-.16,1.523-.272,3.776-.388,6.161-.668,13.505-1.9,38.629-15.1,38.827l-1.164,2.689,2.825,2.667a26.215,26.215,0,0,0,11.982-8.533,29.454,29.454,0,0,0,4.969-11.6,95.519,95.519,0,0,0,1.82-12.028l.008-.082,0-.018c.728-6.742,1.484-13.712,4.557-19.55a23.391,23.391,0,0,1,6.641-7.868,34.24,34.24,0,0,1,11.882-5.569c-4.589,29.045-7.345,45.939-10.63,55.411-3.137,9.054-6.7,11.726-14.027,14.61a85.159,85.159,0,0,1-9.234,3.5l-.108.038c-3.441,2.353-6.557,5.92-9.578,9.363l-.048.058a55.181,55.181,0,0,1-7.033,7.191l-.072.084c-.28,0-.74-3.487-1.512-9.259-1.508-11.331-4.037-30.3-8.5-49.33l-5.089-2.547c.8,6.794,1.692,13.552,2.637,20.7l.168,1.255c3.781,28.592,7.693,58.156,5.641,86.245-1.108,15.179-3.837,28.418-8.342,40.478a109.528,109.528,0,0,1-8.982,18.6,106.068,106.068,0,0,1-12.955,17.133c-11.05,12.067-22.54,23.345-33.654,34.254-16.179,15.89-31.462,30.9-44.469,47.21a190.04,190.04,0,0,0-17.359,25.458,137.8,137.8,0,0,0-12.118,28.284c-5.453,18.648-6.493,38.719-3.181,61.361-10.334-14-16.5-30.855-18.828-51.527-1.968-17.474-1.26-37.564,2.24-63.231L409.242,395a54.889,54.889,0,0,1,1.432-18.812,82.744,82.744,0,0,1,7.489-18.987c6.269-11.772,15.619-24.119,28.581-37.755,20.38-21.167,46.169-41.969,68.925-60.325l.032-.022c9.8-7.908,19.068-15.377,27.553-22.582l-5.133-2.665c-2.1,1.655-5.529,4.142-9.866,7.289l-.28.2-.04.03c-18.448,13.389-52.79,38.312-81.292,67.774a264.009,264.009,0,0,0-21.1,24.847,145.257,145.257,0,0,0-15.507,25.716,75.44,75.44,0,0,0-7.005,25.632,49.2,49.2,0,0,0,4.413,24.584l8.922-9.285c-.036,16.688.476,29.241,1.628,39.51,1.416,12.622,3.825,21.959,7.357,28.554.448.908.992,2.07,1.624,3.417l.2.443c4.5,9.644,12.87,27.59,21.712,33.4a10.362,10.362,0,0,0,5.569,1.473h.248c-2.749-6.643-4.633-14.067-6.113-24.069A148.535,148.535,0,0,1,448.285,457a143.64,143.64,0,0,1,6.481-30.909,164.888,164.888,0,0,1,13.371-30.248,180.689,180.689,0,0,1,19.852-28.291A189.534,189.534,0,0,1,513.9,342.5c15.487-12.4,33.21-27.562,47.193-45.986a149.675,149.675,0,0,0,16.779-27.73A157.86,157.86,0,0,0,589,235.2c2.885-16.405,3.921-35.646,3.253-60.549l6.717,4.942c1.72-2.73,3.221-5.339,4.433-7.433l.028-.054a78.14,78.14,0,0,1,6.6-10.245,21.6,21.6,0,0,1,8.562-6.617,47.982,47.982,0,0,1,10.2-2.794,91.653,91.653,0,0,1-1.4,26.362,135.725,135.725,0,0,1-8.11,26.2,206.111,206.111,0,0,1-10.146,22.283l-.064.122c-.888,1.762-1.9,3.758-2.849,5.684l-7.646,14.277-.36-29.5c-3.609,11.926-3.849,22.512-4.1,33.719-.092,4.036-.188,8.209-.436,12.648-2.2,11.409-7.205,21.78-12.506,32.763l-.008.01-.052.116c-2.612,5.419-5.313,11.026-7.621,16.732-5.509,14.4-9.214,30.526-12.794,46.124l-.02.1c-2.068,8.994-4.209,18.3-6.665,27.143-1.128-2.533-2.168-5.361-3.177-8.09-2.757-7.447-5.873-15.876-11.262-20.838l.276-.659c4.913-11.868,9.994-24.137,9.906-35.055l-5.517,1.972a107.374,107.374,0,0,1-8.454,24.79c-3.8,8.219-8.378,16.427-12.8,24.366l-.024.046c-8.4,15.1-17.087,30.712-20.708,46.585l3.961,2.311,25.261-50.483a360.58,360.58,0,0,1,16.739,42.21c4.177,12.808,7.878,26.277,11.994,43.671l20.764,203.137a81.831,81.831,0,0,0,19.692,29.089,58.384,58.384,0,0,0,11.974,8.594,42.017,42.017,0,0,0,12.178,4.345,36.38,36.38,0,0,0,6.745.649A28.416,28.416,0,0,0,652,695.6v27.131a101.358,101.358,0,0,1-26.841,5.734c-3.125.293-6.305.443-9.466.443a142.788,142.788,0,0,1-36.355-5.261c1.416-.659,3.349-6.774,4.5-14.223,1.4-9.086,1.4-18.131,0-24.812-.912-4.379-2.4-7.824-4.417-10.243a11.6,11.6,0,0,0-8.942-4.291c12.454,17.313,6.389,38.9-.032,61.748-3.353,11.918-6.817,24.235-7.8,36.492a71.341,71.341,0,0,0,.688,18.293,56.377,56.377,0,0,0,6.325,17.912,36.932,36.932,0,0,0,26.377,10.367c11.982,0,22.936-4.716,30.018-8.67a35.025,35.025,0,0,0,6.193-3.846c2.629,2.449,5.161,4.639,7.609,6.756,5,4.317,9.314,8.048,12.142,12.03v21.907c-.6,1.116-1.276,2.291-2.025,3.489-1.056,8.064-.428,14.548,2.025,21.021v64.649a54.017,54.017,0,0,1-7.537-18.935c-1.524-8.016-1.352-16.672.516-26.456a27.412,27.412,0,0,0-7.781,11.642,67.143,67.143,0,0,0-3.629,18.712,197.288,197.288,0,0,1,11.762,44.484,135.813,135.813,0,0,1,1.236,24.624,83.95,83.95,0,0,1-4.141,23.131c-.084-.527-.172-1.232-.272-2.052l-.016-.1,0-.046a95.317,95.317,0,0,0-3.353-16.856c-2.512-7.94-6.153-13.58-10.818-16.764a33.2,33.2,0,0,0-4.361-2.239c1.092-7.515-1.632-16.975-3.353-21.949-2.392-6.91-5.693-13.429-8.022-15.852a324.47,324.47,0,0,1,4.373,53.683c-.164,17.626-2.34,30.123-6.117,35.179.12-8.277.044-14.666-2.088-21.542-2.22-7.141-6.677-14.622-14.443-24.249l-.3-29.492-4.389.022-2.46,21.484-7.469-4.505c.532,3.411,1.168,7.018,1.732,10.2l0,.028c1.868,10.626,3.8,21.616,3.7,32.161a61.5,61.5,0,0,1-1.968,15.421,44.576,44.576,0,0,1-6.621,14.229c-.468-1.8-.94-3.661-1.4-5.467l-.02-.094c-2.4-9.457-4.889-19.237-8.718-28.342-4.337-10.313-9.806-18.159-16.711-23.977l-1.5,11.832c5.265,2.952,9.518,10.68,11.666,21.2a74.417,74.417,0,0,1,1.44,15.516,65.535,65.535,0,0,1-1.9,15.357c-1.584,6.217-4.029,11.181-7.261,14.742a17.524,17.524,0,0,1-13.218,6.066c-1.62-5.244-3.113-9.3-5.141-12.054a9.777,9.777,0,0,0-8.47-4.24c-3.017,0-6.817.914-11.61,2.8l-.108-10.688L509.3,1037.7c-.276,11.089-4.925,18.477-13.835,21.957l-9.518-9.852c-.36,3.158-.448,6.4-.532,9.54v.1c-.244,9.449-.5,19.217-7.982,28.738ZM343.97,780.439a34.533,34.533,0,0,1-2.2,17.512A34.438,34.438,0,0,0,343.97,780.439Zm-34.163-85.193a105.345,105.345,0,0,0,3.669,14.8c.632,1.986,1.236,3.754,1.848,5.381-.688-1.872-1.308-3.68-1.836-5.369A105.688,105.688,0,0,1,309.807,695.246Zm57.535,368.726v0l-2.132-4.788c-6.949-15.518-7.053-28.608-.316-40.017l.552-.956,16-.227-7.349,15.846-3.745,2.868.1,3.4c.228,6.161.472,12.525-1.516,18.888l-1.592,4.986ZM131.225,882.5v0l-10.162-13.343-5.333-9.768-4.157-18.874,6.709-9.557,11.014-3.4-1.356,3.527a32.445,32.445,0,0,0-1.988,16.72l.656-3.563,5.349-13.77,4.625,25.59-5.353,26.438Zm61.788-7.583h0l-15.247-1.221,15.027-8.044.412-3.409-8.81,6.3-23.941,1.693,31.7-23.2,10.282,3.754,2.036,8.952,22.22,4.012-33.682,11.161Zm-98.471-20.8v0l-12.93-28.951c-.4-2.747-.732-4.926-1-6.671-.208-1.329-.348-2.251-.472-3.086-1.412-8.922-1.892-11.924,1.776-22.309l.368-.988,15.111-3.423-4.961,14.4-.728,11.173,11.518-26.64,2.068,2.373c.824.946,1.724,1.892,2.592,2.8l.044.054.18.186.08.088c3.733,3.932,7.593,8,6.973,12.407-.368,2.435-2.076,4.593-5.085,6.417l-7.7,8.882,3.013,10.88-10.846,22.4Zm70.341-114.866h0c-1.948,0-4.681-1.455-11.246-5.982l-2.24-1.537,20.868-15.277-2.921,6.654c-1.556,3.573-1.376,7.213-1.248,9.872v.04l.008.112v.01c.1,2.339.176,4.028-.96,5.211l-.588.6ZM652,608.411c-6.105-16.718-13.931-34.741-21.5-52.168l0-.012-.748-1.724c-2.224-5.118-4.521-10.409-6.721-15.56-5.637-13.728-12.026-29.576-16.619-43.963-4.877-15.269-7.329-27.608-7.489-37.729,4.033,7.625,6.745,13.87,9.37,19.91l.016.028a212.48,212.48,0,0,0,14.319,28.424c.956,1.359,1.924,2.77,2.953,4.265l.276.409c3.009,4.393,6.749,9.864,11.466,15.818A318.674,318.674,0,0,1,622.5,492.97a370.858,370.858,0,0,1-14.955-49.805,251.432,251.432,0,0,1-6.137-51.058c7.365,9.505,14.923,19.814,20.364,30.8,12.554,22.772,20.284,48.366,24.328,80.548l2.369,1.12a177.954,177.954,0,0,0-7.762-50.2c-4.245-14.029-10.158-28.223-19.172-46.016-.6-1.3-1.26-2.71-2.012-4.307l-.012-.024c-.916-1.956-1.864-3.986-2.768-5.958-1.712-24.835-2.284-45.551-1.772-63.325.536-18.245,2.236-34,5.2-48.146q.216-.691.42-1.351c.22-.731.432-1.421.684-2.15,1.476,4.852,3.281,11.782,5.193,19.121l0,.02c6.413,24.6,15.195,58.286,25.529,72.766v233.4ZM72.97,576.609v0l-1.7-.291a8.462,8.462,0,0,1-6.133-4.451c-1.376-2.613-2.264-7.221,1.32-14.323L75.534,525.7,84.3,540.718,72.97,576.6Zm-11.3-10.315v0L54.69,554.862l-.332-12.435,5.869-8.483,9.158-1.212L61.676,566.29ZM16.123,551.83v0l-5.937-6.9-1.632-5.4L14,511.719l9.73-1.806,2.508,8.163L16.123,551.826Zm-9.09-12.317v-.008l-5.557-13.4L0,514.514,4.173,503.67l10.69,1.605-7.825,34.23Zm150.277-165.6,0,0c-4.969-4.074-7.1-10.78-6.709-21.109.356-9.481,2.725-21.109,5.465-34.572.216-1.042.428-2.094.648-3.158l.328-1.645.66,57.445a7.788,7.788,0,0,1-.22,1.964l0,.024a5.834,5.834,0,0,0-.164,1.052ZM652,359.868c-1.452-4.848-3.237-9.67-4.961-14.335l-.016-.03c-2.012-5.461-4.1-11.111-5.605-16.656a78.235,78.235,0,0,1-4.265-21.075,132.913,132.913,0,0,1,.692-24.668c1.956-17.017,6.853-35.985,14.159-54.854V359.868ZM426.341,228.9a.614.614,0,0,1-.544-.347l2.016-.756C427.281,228.5,426.753,228.9,426.341,228.9ZM79.327,184.91h0l-2.144-.483c-19.488-4.463-23.645-9.968-28.817-18.58l-2.4-4.036,4.617,1.178c8.7,2.221,17.919,4.273,26.437,4.273l4.725-.19-2.412,17.834Zm-47.045-55.8v0l-5.253-4.325,1.812-6.573L38.2,108.118l12.678-2.054L32.282,129.1Zm-18.339-.862,0,0L29.406,97.462,41.3,99.14l-8.914,14.109-2.981,3.022-6.313,9.792-9.146,2.182Zm414.775-1.617,0-.008c-2.4-3.365-19.94-4.07-34.23-4.07-14.151,0-27.5.691-32.582.988-1.172.1-2.136.146-3.029.146-9.2,0-16.571-3.445-20.092-6.4-2.673-2.243-4.129-7.688-4.453-16.646-.276-7.7.324-16.612.852-24.476v-.05c.14-2.05.244-3.631.34-5.173C337.2,58.361,339.8,41.13,343,36.8l3.321,21.828,4.561,19.442,2.753,5.335,4.709,7.219,6.017,6.477c7.253,5.227,14.851,6.654,22.2,8.032l.584.11c.748.142,1.516.287,2.268.435l-6.417-19.892,18.191,11.68-6.921,9.3a34.236,34.236,0,0,1,4.625,1.451c2.26,1.074,5.237,2.172,8.114,3.233l.024.008c4.669,1.728,9.97,3.685,14.111,6.112,4.761,2.78,7.241,5.744,7.581,9.054Zm188.964-38.3v0l-1.48-2.12-1.676-2.738c-1.756-3-3.749-6.409-7.7-7.916l.648-3.766,25.149-.707L617.682,88.33ZM15.911,73.63l.008,0L29.75,55.888,47.557,44.114l.2,18.415L31.9,66.964,15.919,73.628ZM430.45,20.185h0l-.588-.541c-1.3-1.243-1.236-3.559.2-7.08,1.02-2.481,3.109-6.642,5.605-6.642l23.444,2.431L448.877,19.985Z" transform="translate(0.512 0.951)" fill="#fff" stroke="rgba(0,0,0,0)" stroke-width="1" opacity="0.039"/>
</svg>
