<svg xmlns="http://www.w3.org/2000/svg" width="309.361" height="536.005" viewBox="0 0 309.361 536.005">
  <path id="Subtraction_1" data-name="Subtraction 1" d="M212.766,533.388v0l-1.024-2.793a23.047,23.047,0,0,1,0-17.077l.356-.9,5.57,2.445-4.9,18.321Zm-26.648-13.1h0c-.954,0-1.917-.907-3.112-2.942a62.205,62.205,0,0,1-5.387-13.609A41.185,41.185,0,0,1,176.167,496c-.178-2.519.095-4.406.806-5.611a3.111,3.111,0,0,1,2.846-1.641A8.431,8.431,0,0,1,184,490.23l.505.319-1.722,12.078.7.357,1.476-8.376,1.381-.062.5.426c1.637,1.85,1.567,15.823.32,24.515l-.089.62ZM178.146,492.7h0v.038l.034,2.6-.032-2.635ZM239.561,516v-.01l1.2-1.71c2.77-4.072,2.7-6.749,2.6-10.14v-.012a35.509,35.509,0,0,1,.182-5.766l.418-.646,2.511-1.6h.017l3.275,1.86-1.582,8.627,3.056-7.4,4.2,4.768-.184.518c-2.465,6.432-7.037,10.2-13.585,11.2l-2.108.315Zm-20.839-2.221h0v0a32.949,32.949,0,0,1-2.4-2.274c-.333-.337-.657-.665-.957-.955l-.231-.277-.009-.01c-1.907-2.286-3.285-3.935-4.808-3.935-1.376,0-2.849,1.39-4.781,4.507a10.8,10.8,0,0,1-3.164-4.3,6.737,6.737,0,0,1-.18-4.149,11.576,11.576,0,0,1,4.8-6.1,21.316,21.316,0,0,1,8.17-3.445l1.287-.38,2.006-5.268c-.1.055-.189.109-.284.161-.047.026-.093.054-.14.079l-.006,0a16.245,16.245,0,0,1-2.895,1.421l-.231.121c-5.491,2.907-7.339,3.889-10.562,3.889a29.759,29.759,0,0,1-3.41-.238c.051,6.5-.564,7.361-2.846,10.584l-.053.076c-.517.729-1.1,1.555-1.786,2.595l-3.708-.33,1.258-1.826-5.691-15.839-5.769-.285c1.4-4.848,3.3-8.155,5.8-10.108a11.978,11.978,0,0,1,7.759-2.315,51.068,51.068,0,0,1,5.481.412l.163.017.1.01.009,0a52.8,52.8,0,0,0,5.71.416,15.89,15.89,0,0,0,7.587-1.648,14.5,14.5,0,0,0,3.674-2.562,16.613,16.613,0,0,1-3.7,1.687,20.354,20.354,0,0,1-6.757,1.176,30.9,30.9,0,0,1-6.81-.931l-.356-.078-.015,0a26.84,26.84,0,0,0-5.784-.848,12.146,12.146,0,0,0-5.625,1.35,24.171,24.171,0,0,0-6.605,5.27,18.281,18.281,0,0,0-9.118-2.063h-.518c.136-.119.278-.241.428-.371.106-.094.216-.189.331-.287,2.2-1.912,5.531-4.8,9.027-7.278,4.2-2.972,7.447-4.481,9.657-4.481a4.192,4.192,0,0,1,.785.072,87.516,87.516,0,0,0,16.374,1.86,40.977,40.977,0,0,0,4.952-.283,19.247,19.247,0,0,0,6.062-1.7,13.208,13.208,0,0,0,4.081-3.1c2.238-2.5,3.716-5.895,5.428-9.823a91.56,91.56,0,0,1,5.741-11.518,67.161,67.161,0,0,1,10.978-13.616c1.552-1.411,5.8-3.61,10.3-5.936l.017-.01c7.23-3.742,15.424-7.983,15.171-10.331-.061-.585-.662-1.035-1.782-1.338a56.519,56.519,0,0,1-13.772,8.625,34.8,34.8,0,0,1-13.657,3.038,24.778,24.778,0,0,1-8.615-1.495,24.1,24.1,0,0,1-7.672-4.633c-4.948-4.386-8.671-10.98-11.069-19.6,1.917.114,3.591.316,5.069.494l.053.006.011,0a35.75,35.75,0,0,0,4.049.351,5.075,5.075,0,0,0,4.3-1.718c1.12-1.329,1.958-3.562,2.723-7.242a18.261,18.261,0,0,1-6.246,1.4,5.4,5.4,0,0,1-5.334-3.178,19.881,19.881,0,0,1-1.343-6.461l0-.023V378.8a14.315,14.315,0,0,0-.942-4.777l-1.3.01c-1.449,6.734-1.022,11.414,1.315,14.3a8.491,8.491,0,0,0,3.631,2.564,16.137,16.137,0,0,0,5.716.906h.3a22.9,22.9,0,0,1-7.275,1.523A8.978,8.978,0,0,1,214,390.517c-.062-.11-.142-.223-.227-.342l-.019-.028a4.145,4.145,0,0,1-.528-.9l-2.361,2.4,3.3,14.97.39.708-.367.529-4.46,13.254a23.056,23.056,0,0,1-2.095-9.809,92.824,92.824,0,0,1,.791-11.428l.03-.272c.195-1.8.4-3.652.568-5.591l-4.062-1.214a51.507,51.507,0,0,1-2.764,19.941,47.531,47.531,0,0,1-14.544,20.737c4.064-7.818,7-17.787,8.48-28.829a120.569,120.569,0,0,0,.308-29.846c-.522-1.543-1.616-12.351-.812-24.461a94.932,94.932,0,0,1,3.052-19.065c1.9-6.808,4.584-12.282,7.983-16.267,1.99-2.288,4.142-4.98,6.4-8,3.309-4.184,5.877-7.717,8.081-11.117a76.648,76.648,0,0,0,6.255-11.522,52.041,52.041,0,0,0,4.147-26.2l-8.053,23.4c-2.412,6.979-6.486,13.229-10.531,18.942-1.517,2.165-3.122,4.354-4.673,6.47l-.114.152-.013.02A146.84,146.84,0,0,0,196.8,324.239a52,52,0,0,0-3.866,9.083,36.553,36.553,0,0,0-1.669,9.706c-.142,5.278-.017,11.407.1,17.336l0,.094c.227,11,.441,21.39-.927,26.5a43.644,43.644,0,0,1-4.63,13.724,14.587,14.587,0,0,1-3.088,3.873,5.143,5.143,0,0,1-3.258,1.377,3.686,3.686,0,0,1-1.2-.207c1.273-5.569.719-15.55-.24-20.255l-1.671-.7a51.554,51.554,0,0,0,.032,7.985l0,.04a61.213,61.213,0,0,1,.121,7.148,59.493,59.493,0,0,1-6.9,12.293c-2.151,2.727-4.18,4.121-6.024,4.143a57.358,57.358,0,0,1-.7-6.109v-.006c-.185-2.742-.246-3.666-2.609-6.874l2.246-12.693-3.319-.864-3.381,15.589L148,415.83l-.1.012a.6.6,0,0,1-.5-.236c-.706-.888.072-4.259.895-7.826l0-.012.062-.269c.114-.49.231-1,.344-1.495.833-3.727,1.623-7.824.46-9.278a1.5,1.5,0,0,0-1.226-.553,3.884,3.884,0,0,0-1.43.33c2.021,7.486-.641,15.872-8.143,25.637.895-1.333,2.047-7.5,1.814-14.129a38.414,38.414,0,0,0-1.678-10.367,19.341,19.341,0,0,0-5.226-8.6,26.87,26.87,0,0,1-.182,15.1,22.258,22.258,0,0,1-3.4,6.6,22.8,22.8,0,0,1-5.716,5.337L113.9,392.143l-3.158-1.776a44.8,44.8,0,0,1,.494,8.515c-.174,2.855-.825,4.953-1.941,6.23a4.69,4.69,0,0,1-3.71,1.579c-1.934,0-4.39-.822-7.3-2.446.178-1.27-.594-2.667-2.293-4.156A34.685,34.685,0,0,0,88,395.307c.138-.308.272-.605.4-.895l.157-.346c1.6-3.579,2.668-5.945,5.809-8.756l-2.963-.141c-.588.587-1.148,1.19-1.692,1.772l-.015.014a21.489,21.489,0,0,1-5.627,4.776l3.041-9.963c-2.624.526-4.195,1.707-4.942,3.713-.672,1.806-.613,4.125-.552,6.579l0,.016a43.592,43.592,0,0,1-.074,5.125,40.2,40.2,0,0,1-4.374,5.663c-1.457,1.662-2.906,2.47-4.427,2.47-2,0-4.134-1.366-6.528-4.179l.032-.5c.227-3.665.354-5.681-.1-7.431s-1.534-3.254-3.618-5.755l-9,4.789-2.462-4.316c5.457-4.356,10.168-8.614,15.157-13.122l.4-.359c1.744-1.575,3.548-3.205,5.37-4.82l-1.881-1.075L58.4,380.086,50.866,369.3l-12.175,2.691c1.813-1.817,3.7-3.945,5.7-6.2a108.566,108.566,0,0,1,11.1-11.358c4.539-3.8,8.7-5.852,12.711-6.273l3.536,3.391c.494.106,1,.212,1.483.313l.216.044.011,0c1.116.235,2.172.454,3.135.684,3.85.78,7.3,1.576,10.34,2.278l.049.01c8.083,1.859,14.467,3.326,21.657,3.326a63.685,63.685,0,0,0,20.786-3.843c.776-.585,1.6-1.226,2.456-1.886,5.614-4.351,12.6-9.765,18.96-10.566,1.245,2.82,2.709,5.693,3.778,7.792.388.728.785,1.467,1.169,2.18l.134.253.047.086c.482.895.973,1.8,1.453,2.715-.486-.92-.98-1.838-1.464-2.74l-.011-.022c-.471-.877-.9-1.668-1.323-2.472-1.194-2.328-2.568-5.044-3.782-7.792a12.8,12.8,0,0,1,1.536-.094,9.5,9.5,0,0,1,5.686,1.8,15.647,15.647,0,0,1,4.779,6.426l1.237-3.821-6.728-6.466L155.6,339.1l-2.579-4.752L155.6,339.1l-4.579-1.766c-.691.184-1.3.328-1.871.445v0a36.35,36.35,0,0,1-7.648.868,23.567,23.567,0,0,1-12.429-3.254A22.782,22.782,0,0,1,121,326.821a32.916,32.916,0,0,1-3.521-10.071,45.133,45.133,0,0,1-.571-11.526,52.209,52.209,0,0,1,2.3-11.9,50.112,50.112,0,0,1,5.1-11.211,27.933,27.933,0,0,1,.237,8.639,17.126,17.126,0,0,1-3.217,7.84,19.422,19.422,0,0,0,8.335-5.414,32.708,32.708,0,0,0,5.741-8.663,36.58,36.58,0,0,0,2.918-9.347,17.254,17.254,0,0,0-.121-7.463c.274.875,3.158,1.485,7.008,1.485,3.962,0,9.2-.688,12.009-2.621-8.329-2.453-9.054-5.62-9.89-9.286-.059-.246-.115-.5-.174-.745-.556,2.88-.518,4.5.138,5.782s1.945,2.207,3.9,3.608l.011.009.288.205c.363.262.742.534,1.147.833-1.323.1-2.49.214-3.519.317l-.051,0c-1.631.161-3.039.3-4.327.3a12.261,12.261,0,0,1-3.988-.612,23.417,23.417,0,0,1-4.829-2.368l-1.287.926a9.944,9.944,0,0,1,1.6,5.02,20,20,0,0,1-.588,6.1,23.482,23.482,0,0,1-2.935,6.956,12.872,12.872,0,0,1-4.645,4.609l-1.3-15.377-2.562.758a35.215,35.215,0,0,1-3.678,9.552,30.2,30.2,0,0,1-6.48,8.114c1.674-3.147,3.222-6.962,4.861-11l.015-.038c2.653-6.541,5.4-13.306,9.154-18.589a23.885,23.885,0,0,1,6.443-6.458,15.393,15.393,0,0,1,8.461-2.5c3.743,0,7.947,1.268,12.491,3.765,2.98,1.188,6.162,2.413,9.239,3.6l.382.148.009,0c15.767,6.064,32.071,12.333,35.972,18.73l3.491,29.579,2.361-2.9-2.06-33.983a15.381,15.381,0,0,0,6.677,2.037,5.407,5.407,0,0,0,1.137-.11,4.136,4.136,0,0,0,2.787-2.37c.73-1.6.823-3.851.269-6.7a39.046,39.046,0,0,0-3.239-9.2,63.525,63.525,0,0,0-11.814-17.021c-5.432-5.583-11.25-9.342-16.824-10.872a45.322,45.322,0,0,0,6.917-12.755,60.647,60.647,0,0,0,2.774-13.927l-2.06-.726a11.08,11.08,0,0,1-.2,5.027,36.882,36.882,0,0,1-2.4,6.735,136.121,136.121,0,0,1-10.02,17.507c-1.5-1.8-2.371-4.3-2.668-7.658a68.422,68.422,0,0,1,.151-9.721c.4-6.51.817-13.236-2.157-17.842l-1.271.027a35.31,35.31,0,0,1,.71,11.615,59.177,59.177,0,0,1-2.762,13.292,51.78,51.78,0,0,1-5.826,12.273,27.46,27.46,0,0,1-8.471,8.562l-3.338-32.151-2.585-.5c-.21,2.205-.331,4.4-.447,6.516v.028c-.439,8-.853,15.561-5.867,23.168l.146-20.624-1.7-1.248c-.488,9.568-3.826,18.6-10.2,27.6l-3.408-20.222-4.289-2.288-.524,2.9a11.019,11.019,0,0,1,2.456,7.174,18.491,18.491,0,0,1-2,7.559c-2.3,4.854-6.053,9.367-9.392,13.214l1.164-10.677-2.594-.517-1.854,15.014c-.511-3.167-.785-5.857-1.029-8.229v-.016a46.813,46.813,0,0,0-1.519-9.173,27.569,27.569,0,0,0-4.993-9.08l-2.585.048a17.923,17.923,0,0,1,2.7,6.236,19.012,19.012,0,0,1,.269,6.17c-.45,4.1-2,8.211-3.5,12.185l0,.008c-1.546,4.106-3.145,8.354-3.48,12.5a16.618,16.618,0,0,1-5.557-6.783,46.709,46.709,0,0,1-2.655-8.163l-.011-.047A41.452,41.452,0,0,0,86.7,241.4a16.314,16.314,0,0,0-2.77-3.842,15.76,15.76,0,0,0-4.253-3.059q.284.473.562.933c3.735,6.185,6.429,10.65,5.188,14.408-.868,2.623-3.671,4.83-8.819,6.941a5.834,5.834,0,0,0-1.113-2.145,9.6,9.6,0,0,0-4.06-3.353l-.763,1.182a49.567,49.567,0,0,1-3.2,4.284l2.216-2.653,4.261.227.359,4.826-11.071,5.468-1.147-1.4,4.823-5.787a25.447,25.447,0,0,1-11.574,8.037l-.957-1.491,1-1.02.009-.008a51.35,51.35,0,0,0,4.98-5.418,12.61,12.61,0,0,0,2.817-6.309l.079-.94,8,.924a23.878,23.878,0,0,0-10.037-1.927,41.3,41.3,0,0,0-7.273.684c-1.379-2.351-1.83-4-1.419-5.2.481-1.4,2.125-2.06,4.032-2.82l0,0h0c2.439-.975,5.474-2.189,7.224-5.454l-15.827,6.144a24.179,24.179,0,0,1,1.283,8.651A13.867,13.867,0,0,1,47.3,258.6a4.272,4.272,0,0,1-3.6,2.027,5.8,5.8,0,0,1-2.032-.407l.683-5.425a59.782,59.782,0,0,0-6.391-7.168l-12.342,4.284c0-.528-.011-1.046-.023-1.574v-.01a32.535,32.535,0,0,1,.657-8.724c4.371-2.184,7.848-2.779,12.249-3.531l.11-.018.515-2.545c-8.4,1.23-13.651,2.141-15.8,5.228-1.406,2.022-1.555,5-.492,9.966a12.182,12.182,0,0,1-4.164.874,5.462,5.462,0,0,1-4.736-2.411l2.28-9.06a17.24,17.24,0,0,0-5.642-2.952,32.391,32.391,0,0,0-6.617-1.413,11.28,11.28,0,0,0,7.792-3.626,40.678,40.678,0,0,0,5.332-6.961,22.472,22.472,0,0,1,3.385-4.464,3.922,3.922,0,0,1,2.611-.923,15.442,15.442,0,0,1,5.411,1.585l.261.106.687.281a21.278,21.278,0,0,0,8.164,1.983,13.383,13.383,0,0,0,3.058-.346l-.015-2.344-9.292-1.716,2.573-3.09,15.579,5.424a106.869,106.869,0,0,0,27.452-12.6,125.792,125.792,0,0,0,17.458-12.833l-3.268-8.449,3.425-25.908-1.114-.708L85.406,183.1a9.516,9.516,0,0,1-3.733-5.5,23.3,23.3,0,0,1-.63-7.749c.341-5.567,1.928-11.611,3.084-16.024l0-.009c.963-3.665,1.656-6.31,1.044-6.518-2.605,6.15-8.849,21.169-10.594,27.768l-.3-27.116A147.077,147.077,0,0,0,78.4,118.984l-1.875-.686-1.6,8.137-.9,1.293L60.232,151.915l.131,10.3a44.681,44.681,0,0,1-6.089-13.172A43.758,43.758,0,0,1,52.8,136.329c.2-8.32,2.426-16.323,4.571-24.06l0-.009.006-.02c2.9-10.477,5.65-20.372,3.014-29.753l-3.152.4a6.346,6.346,0,0,1,.98,3.059,6.216,6.216,0,0,1-.708,3.318,5.709,5.709,0,0,1-2.388,2.352,9.077,9.077,0,0,1-4.327.956,25.261,25.261,0,0,1-9.4-2.28c-1.673-4.033-1.254-6.142-.921-7.836.4-2.06.7-3.547-2.751-7.15l4.323-8.528-.371-.418c-1.376-1.545-2.8-3.138-4.747-3.138h-.072c-3.871,3.482-7.08,5.251-9.54,5.251a3.962,3.962,0,0,1-3.559-2.035c-1.026-1.673-1.419-4.323-1.113-7.459a25.816,25.816,0,0,1,2.56-8.835l-8.4-5.531a25.343,25.343,0,0,1,5.035-6.776,6.583,6.583,0,0,1,4.427-1.8,16.259,16.259,0,0,1,5.669,1.53l.3.116c.269.105.545.213.827.32a25.427,25.427,0,0,0,9.39,1.966,25.649,25.649,0,0,0,7.267-1.109c-3.09-.9-6.465-1.538-9.729-2.157l-.03-.006h-.008c-5.623-1.065-11.439-2.165-16.242-4.637L27.1,20.294a152.566,152.566,0,0,1,16.658.825,28.894,28.894,0,0,1,8.8,2.145c3.848,1.86,4.246,4.609,4.755,8.09a23.974,23.974,0,0,0,2.711,9c2.212,3.972,5.977,7.72,11.511,11.458-.042-2.79-2-4.973-4.079-7.284l-.006-.006a24.171,24.171,0,0,1-3.472-4.545l-.622-5.446,1.425.291.416.085c3.954.806,6.342,1.292,7.8,2.041a3.591,3.591,0,0,1,2.284,2.694,27.12,27.12,0,0,1,.2,5.9v.01l0,.125c-.042,1.813-.093,4.07-.053,6.8,7.623,7.484,13.61,15.382,19.4,23.022l0,0c10.571,13.941,20.552,27.109,38.823,35.67-2.191,1.485-4.2,2.816-6.412,4.276l-.006.006c-8.283,5.474-14.27,9.43-18.614,15.132-4.484,5.89-7.091,13.543-8.717,25.592L92.653,170.9l.991,18.073,3.459-3.486,4.651,18.044,1.871.329a25.838,25.838,0,0,1,1.548-13.708,40.687,40.687,0,0,1,7.513-11.99,65.111,65.111,0,0,1,10.635-9.615,71.049,71.049,0,0,1,10.906-6.585,68.917,68.917,0,0,0-2.7,9.767A82.706,82.706,0,0,0,130,183.089c-.388,6.06-.212,14.653,2.821,21.168l1.879.567a59.553,59.553,0,0,1,3.283-17.33c2.265-6.185,5.584-10.938,9.871-14.125-2.221,2.881-4.077,9.9-4.967,18.789-.833,8.333-.592,16.171.605,19.968l3.165,1.054,5.133-17.633c2.1-2.139,4-4.124,5.682-5.876l.006-.007c5.472-5.7,9.793-10.212,14.824-13.843a51.6,51.6,0,0,1,8.4-4.921,80.015,80.015,0,0,1,11.137-4.146l.562-2.551-16.8,5.809c-5.962,2.031-12.083,6.592-17.7,13.193A71.3,71.3,0,0,0,146.5,201.771a74.8,74.8,0,0,1-.579-12.572,50.15,50.15,0,0,1,1.5-10.3,38.2,38.2,0,0,1,3.234-8.334,35.541,35.541,0,0,1,4.617-6.67,46.818,46.818,0,0,1,12-9.55,134.013,134.013,0,0,1,13.375-6.514l.019-.008a89.563,89.563,0,0,0,12.957-6.53c4.064-2.7,6.484-5.556,7.614-9-8.533,7.71-16.028,10.556-25.518,14.156l-.062.026c-3.391,1.288-6.9,2.618-10.823,4.308a34.117,34.117,0,0,0-9.759,6.605,67.821,67.821,0,0,0-8.827,10.148,83.2,83.2,0,0,0-11.721,22.8,43.994,43.994,0,0,1-.836-15.506,28.969,28.969,0,0,1,2.585-8.274,33.477,33.477,0,0,1,5.854-8.3c3.171-1.5,6.386-2.762,9.494-3.985l.03-.012c2.316-.911,4.709-1.853,7.056-2.882a137.408,137.408,0,0,0-17.874,4.014,64.147,64.147,0,0,0-15.7,7.033,51.066,51.066,0,0,0-13.182,12.061,63.864,63.864,0,0,0-5.534,8.54,84.88,84.88,0,0,0-4.77,10.551c-.123-10.358,1.287-16.834,4.7-21.65,3.3-4.654,8.361-7.664,15.369-11.826l.023-.012.045-.029c2.255-1.34,4.81-2.857,7.529-4.569-7.479,1.332-12.845,3.262-17.943,6.457-4.81,3.016-9.184,6.952-16.069,13.62a40.253,40.253,0,0,1,5.426-13.9,51.989,51.989,0,0,1,9.983-11.561,81.12,81.12,0,0,1,13.549-9.476A130.435,130.435,0,0,1,140.388,133a238.767,238.767,0,0,1,36.025-10.74c12.853-2.885,25.165-4.9,34.455-6.335,1.5-.219,3.067-.444,4.658-.67,8.5-1.218,15.833-2.269,21.034-3.4,3.413-.686,8.976-3.595,14.168-7.407a56.213,56.213,0,0,0,7.379-6.426,27.021,27.021,0,0,0,5.046-7.056,86.191,86.191,0,0,1-15,12.592,53.966,53.966,0,0,1-7.939,4.385,22.392,22.392,0,0,1-7.01,1.973c-8.817,1.7-15.914,2.98-22.338,4.013-6.172,1.008-12.2,1.927-17.042,2.665l-.013,0c-16.13,2.462-30.061,4.588-41.66,8.121a125.986,125.986,0,0,0-34.462,16.553,85.252,85.252,0,0,0-14.225,12.408c-.7.754-1.082,1.17-1.2,1.17a.031.031,0,0,1-.03-.016c-.04-.061.034-.323.24-.849a50.97,50.97,0,0,1,3.6-11.83,46.992,46.992,0,0,1,5.828-9.684,51.808,51.808,0,0,1,7.578-7.8,64.636,64.636,0,0,1,8.857-6.186c12.44-7.293,26.968-10.981,38.64-13.945l.009,0h.008c2.166-.552,4.216-1.072,6.142-1.587-.261.529-.5,1.013-.71,1.457-1.071,2.225-1.612,3.341-2.63,3.939s-2.573.656-5.434.7l.369,2.494a20.548,20.548,0,0,0,7.952,1.509,31.137,31.137,0,0,0,10.263-1.889,44.538,44.538,0,0,0,9.583-4.8,41.755,41.755,0,0,0,7.627-6.412,21.19,21.19,0,0,0,4.39-6.718,127.591,127.591,0,0,1-8.717,20.328c4.225-1.667,10.011-3.95,14.938-7.575a27.617,27.617,0,0,0,5.51-4.866,23.1,23.1,0,0,0,3.964-6.618l-1.1-1.782a45.394,45.394,0,0,1-8.422,9.664,27.2,27.2,0,0,1-8.391,5.162c1.525-1.849,4.371-8.95,8.236-20.538v-.546l-3.162-.117a123.026,123.026,0,0,1-12.855,13.843c-4.051,3.648-7.366,5.8-9.33,6.074A60.268,60.268,0,0,0,193.166,87l-.933,0c-1.534,4.416-3.659,10.049-6.48,14.42a19.8,19.8,0,0,1-4.473,5.1,8.961,8.961,0,0,1-5.47,1.985,7.776,7.776,0,0,1-1.466-.135,170.988,170.988,0,0,1,15.227-24.938,3.9,3.9,0,0,0-1.3-1.248c-2.269,1.939-4.327,4.965-6.316,7.889l-.015.018c-2.166,3.187-4.407,6.482-6.969,8.484a6.017,6.017,0,0,1-3.786,1.214,13.469,13.469,0,0,1-4.849-1.132l-.026-.011c-.155-.061-.286-.114-.388-.149a11.677,11.677,0,0,1-4.581-2.243,8.466,8.466,0,0,1-2.611-3.389,4.1,4.1,0,0,1,.214-3.847,11.05,11.05,0,0,0,8.168,3.681c4.055,0,7.843-2.141,10.3-3.938a23.326,23.326,0,0,0,5.822-5.873c.235-.416.32-.7.244-.831.115-.371.842-.552,2.227-.552,1.866,0,4.777.321,8.147.692.265.028.532.06.8.088l1.44.158a132.048,132.048,0,0,0,13.818.935h.583A30.565,30.565,0,0,0,219.935,82a19.106,19.106,0,0,0,7.6-8.474,26.76,26.76,0,0,0,2.73-11.141,18.714,18.714,0,0,0,6.828,3.678,29.227,29.227,0,0,0,8.686,1.3,23.983,23.983,0,0,0,13.7-3.863,14.745,14.745,0,0,0,4.575-5.093,15.835,15.835,0,0,0,1.782-7.431c6.808,8.537-9.638,27.175-21.645,40.782l-.008.008c-.668.756-1.211,1.372-1.7,1.934l6.036-21.937-1.3-.518L239.4,86.5l-11.672,14.608c.085-1.573.146-3.116.2-4.607v-.006c.348-9.088.649-16.935,6.887-25.84l-.605-2.177a25.737,25.737,0,0,0-4.3,5.632,26.96,26.96,0,0,0-2.439,5.96,64.3,64.3,0,0,0-1.784,12.566c-.424,5.619-.861,11.429-3.235,17.015l2.959-.028L235.8,95.576l2.435-.018,3.052,9.007c.518-5.8,6.817-13.237,13.489-21.111,5.19-6.131,10.558-12.469,13.545-18.449a19.054,19.054,0,0,0,2.358-8.617,10.8,10.8,0,0,0-.776-3.959,11.758,11.758,0,0,0-2.4-3.648,19.687,19.687,0,0,0-2.948-7.415c-1.258-1.85-3.389-4.058-6.382-4.058H258.1a20.02,20.02,0,0,1,5,9.061,12.63,12.63,0,0,1-.8,7.912,14.5,14.5,0,0,1-2.772,4.082,17.883,17.883,0,0,1-4.032,3.146,20.722,20.722,0,0,1-10.208,2.739,17.354,17.354,0,0,1-11.08-3.809,18.118,18.118,0,0,1-4.291-5.111,25.432,25.432,0,0,1-2.762-7.56l-1.864.211c.761,3.558,1.313,7.118,1.9,10.889l.017.1.087.56a23.76,23.76,0,0,1-.87,9.759,18.043,18.043,0,0,1-3.7,6.594c-2.545,2.866-5.476,4.174-7.247,4.2a39.768,39.768,0,0,1-4.963.425c-3.956-.056-9.194-.488-14.257-.905h-.006c-4.906-.406-9.542-.787-12.558-.787h-.412c-1.3.016-2.4.18-7.411,1.692,1.947-6.338,4.195-10.921,6.681-13.618.443.139.916.292,1.446.466l.026.008a28.868,28.868,0,0,0,9.093,1.866c5.279,0,10.738-2.4,17.182-7.541l.511-.357c3.355-4.489,3.712-12.1,1.056-22.618-.206.11-.4.219-.583.324l-.066.037a6.548,6.548,0,0,1-1.167.581c-5.322,2.87-9.933,4.266-14.1,4.266-4.225,0-8-1.4-12.223-4.539a9.9,9.9,0,0,1-2.87-5.2,20.664,20.664,0,0,1-.337-6.787c.481-4.67,2.225-9.406,4.448-12.069,6.255-2.371,17.377-3,22.962-3,.827,0,1.43.022,1.794.04l.914-.028-.9,1.275-1.461,2.736a4.272,4.272,0,0,0,1.533,4.325,4.79,4.79,0,0,0,2.132.68h.089l2.4-.212a14.741,14.741,0,0,0,6.153,9.792,20.669,20.669,0,0,0,12.132,3.819,22.046,22.046,0,0,0,8.749-1.81,24.494,24.494,0,0,0,8.21-5.847l4.482.512.679-1.815a44.662,44.662,0,0,0-13.434-6.28,60.705,60.705,0,0,0-16.959-2.638,33.733,33.733,0,0,0-10.073,1.376c-.3.019-.549.027-.764.027-1.379,0-2.195-.311-2.428-.927-.307-.806.342-2.123,1.985-4.026a67.475,67.475,0,0,1,6.108-5.951c7.544.3,15.564.6,23.392.6a216.808,216.808,0,0,0,24.871-1.27,128.946,128.946,0,0,0,24.232-5.013c.844-.282,1.65-.57,2.363-.827l.017-.006c.78-.279,1.582-.568,2.416-.844l-4.74,6.739-6.181,9.117,6.253-1.887,8.121-2.606-8.03,9.3-.174.369h.174l6.492-.975-2.56,5.274c-1.164.159-2.1.3-3.086.454l-.028,0-.745.114c-7.122.729-11.315,1.241-14.662,3.291-3.213,1.969-5.674,5.295-9.409,12.71l.763,1.064c4.76-8.092,9.248-12.513,13.339-13.139,2.844-.548,6.255-1.163,10-1.576,5.358-.388,10.679-.621,16.268-.71v1.243c-4.026,2.86-9.527,3.208-15.349,3.576l-.435.028-.435.027c-4.287.23-8.719.467-12.408,1.755L272.2,41.308l.062,3.626a24.27,24.27,0,0,0,6.092-5.32,11.167,11.167,0,0,1,3.981-3.3c.208-.014.424-.022.664-.022a5.7,5.7,0,0,1,3.847,1.359,13.734,13.734,0,0,1,2.388,2.966l.015.023a18.906,18.906,0,0,0,1.682,2.286c-.076.719-.129,1.782-.184,2.908-.316,6.375-.9,18.235-7.143,18.328l-.551,1.27,1.336,1.259a12.4,12.4,0,0,0,5.667-4.028,13.891,13.891,0,0,0,2.35-5.474,45.015,45.015,0,0,0,.861-5.678l0-.039,0-.009c.344-3.182.7-6.473,2.155-9.229a11.046,11.046,0,0,1,3.141-3.714,16.206,16.206,0,0,1,5.619-2.629c-2.17,13.711-3.474,21.686-5.027,26.157-1.483,4.274-3.169,5.535-6.634,6.9a40.317,40.317,0,0,1-4.367,1.653l-.051.018a26.406,26.406,0,0,0-4.53,4.42l-.023.027a26.071,26.071,0,0,1-3.326,3.394l-.034.04a24.517,24.517,0,0,1-.715-4.371c-.713-5.349-1.909-14.3-4.019-23.287l-2.407-1.2c.378,3.207.8,6.4,1.247,9.773l.079.592c1.788,13.5,3.638,27.453,2.668,40.713a68.053,68.053,0,0,1-3.945,19.108,51.663,51.663,0,0,1-4.248,8.78,50.077,50.077,0,0,1-6.127,8.088c-5.226,5.7-10.66,11.02-15.916,16.17-7.652,7.5-14.879,14.585-21.03,22.286a89.7,89.7,0,0,0-8.21,12.018,64.987,64.987,0,0,0-5.731,13.351c-2.579,8.8-3.071,18.277-1.5,28.966-4.887-6.608-7.8-14.565-8.9-24.324-.931-8.248-.6-17.732,1.06-29.848l-8.957,11.154a25.865,25.865,0,0,1,.677-8.88,39.017,39.017,0,0,1,3.542-8.963c2.965-5.557,7.387-11.386,13.517-17.822,9.638-9.992,21.835-19.812,32.6-28.477l.015-.01c4.636-3.733,9.018-7.259,13.031-10.66l-2.428-1.258c-1,.781-2.615,1.955-4.666,3.441l-.132.1-.019.014c-8.724,6.32-24.966,18.085-38.445,31.993a124.687,124.687,0,0,0-9.981,11.729,68.545,68.545,0,0,0-7.334,12.14,35.561,35.561,0,0,0-3.313,12.1,23.187,23.187,0,0,0,2.087,11.605l4.219-4.383a166.868,166.868,0,0,0,.77,18.651c.67,5.958,1.809,10.366,3.48,13.479.212.429.469.977.768,1.613l.1.209c2.129,4.552,6.087,13.024,10.268,15.766a4.908,4.908,0,0,0,2.634.7h.117a46.937,46.937,0,0,1-2.891-11.362,69.991,69.991,0,0,1-.146-12.447,67.7,67.7,0,0,1,3.065-14.591,77.763,77.763,0,0,1,6.323-14.279,85.294,85.294,0,0,1,9.388-13.355,89.561,89.561,0,0,1,12.253-11.826c7.324-5.853,15.706-13.011,22.319-21.708a70.629,70.629,0,0,0,7.935-13.09,74.422,74.422,0,0,0,5.262-15.854c1.364-7.744,1.854-16.827,1.538-28.583l3.177,2.333c.814-1.288,1.523-2.52,2.1-3.509l.013-.026a36.879,36.879,0,0,1,3.122-4.836,10.211,10.211,0,0,1,4.049-3.124,22.724,22.724,0,0,1,4.823-1.319,43.188,43.188,0,0,1-.66,12.444,63.982,63.982,0,0,1-3.835,12.367,97.206,97.206,0,0,1-4.8,10.519l-.03.058c-.42.832-.9,1.774-1.347,2.683l-3.616,6.74-.17-13.924c-1.707,5.63-1.82,10.627-1.937,15.917-.044,1.905-.089,3.875-.206,5.97-1.043,5.386-3.408,10.282-5.915,15.466l0,0-.025.055c-1.236,2.558-2.513,5.205-3.6,7.9-2.605,6.8-4.357,14.41-6.051,21.773l-.009.045c-.978,4.246-1.99,8.637-3.152,12.813-.534-1.2-1.025-2.531-1.5-3.819-1.3-3.515-2.778-7.495-5.326-9.837l.131-.311c2.323-5.6,4.726-11.394,4.685-16.548l-2.609.931a50.623,50.623,0,0,1-4,11.7c-1.8,3.88-3.962,7.755-6.055,11.5l-.011.022c-3.973,7.126-8.081,14.5-9.793,21.991l1.873,1.091,11.947-23.831a170.02,170.02,0,0,1,7.916,19.925c1.975,6.046,3.726,12.4,5.672,20.615l9.82,95.892a38.626,38.626,0,0,0,9.313,13.732,27.611,27.611,0,0,0,5.663,4.057,19.9,19.9,0,0,0,5.759,2.051,17.235,17.235,0,0,0,3.19.307,13.452,13.452,0,0,0,9.665-3.9V341.17a48.011,48.011,0,0,1-12.694,2.707c-1.478.138-2.982.209-4.477.209a67.644,67.644,0,0,1-17.193-2.483c.67-.311,1.584-3.2,2.127-6.714a34.747,34.747,0,0,0,0-11.713,10.975,10.975,0,0,0-2.089-4.835,5.49,5.49,0,0,0-4.229-2.026c5.89,8.173,3.022,18.363-.015,29.148-1.586,5.626-3.224,11.44-3.69,17.226a33.616,33.616,0,0,0,.325,8.635,26.581,26.581,0,0,0,2.991,8.456,17.484,17.484,0,0,0,12.474,4.894,30.114,30.114,0,0,0,14.2-4.093,16.569,16.569,0,0,0,2.929-1.815c1.243,1.156,2.441,2.19,3.6,3.189a35.616,35.616,0,0,1,5.742,5.679v10.341c-.282.527-.6,1.081-.957,1.647a19.5,19.5,0,0,0,.957,9.923v30.518a25.472,25.472,0,0,1-3.565-8.938,32.965,32.965,0,0,1,.244-12.489,12.939,12.939,0,0,0-3.68,5.5,31.645,31.645,0,0,0-1.716,8.833,92.993,92.993,0,0,1,5.563,21,64,64,0,0,1,.585,11.624,39.564,39.564,0,0,1-1.958,10.919c-.04-.249-.081-.582-.129-.969l-.008-.048,0-.022a44.919,44.919,0,0,0-1.586-7.957c-1.188-3.748-2.91-6.41-5.116-7.914a15.724,15.724,0,0,0-2.062-1.057c.517-3.548-.772-8.013-1.586-10.361-1.131-3.262-2.692-6.339-3.794-7.483a152.889,152.889,0,0,1,2.068,25.341c-.078,8.32-1.107,14.22-2.893,16.607.057-3.907.021-6.923-.988-10.169-1.05-3.371-3.158-6.9-6.83-11.447l-.14-13.922-2.076.01-1.164,10.141-3.533-2.127c.252,1.61.553,3.313.819,4.814l0,.013a84.573,84.573,0,0,1,1.748,15.182,28.981,28.981,0,0,1-.931,7.28,21.024,21.024,0,0,1-3.131,6.717c-.221-.85-.445-1.728-.662-2.581l-.009-.044a94.441,94.441,0,0,0-4.123-13.379,29.058,29.058,0,0,0-7.9-11.318l-.708,5.585c2.49,1.394,4.5,5.041,5.517,10.006a35.068,35.068,0,0,1,.681,7.324,30.882,30.882,0,0,1-.9,7.249,16.158,16.158,0,0,1-3.434,6.959A8.3,8.3,0,0,1,254.7,501.8a19.788,19.788,0,0,0-2.431-5.69,4.627,4.627,0,0,0-4.006-2,15.763,15.763,0,0,0-5.491,1.32l-.051-5.045-1.86-.535c-.131,5.234-2.329,8.722-6.543,10.365l-4.5-4.651c-.17,1.491-.212,3.023-.252,4.5v.048c-.115,4.461-.235,9.072-3.775,13.566ZM162.673,368.411a16.274,16.274,0,0,1-1.039,8.266A16.229,16.229,0,0,0,162.673,368.411Zm-16.156-40.216a49.653,49.653,0,0,0,1.735,6.985c.3.938.585,1.772.874,2.54-.325-.884-.619-1.737-.868-2.534A49.816,49.816,0,0,1,146.516,328.195Zm27.21,174.059h0l-1.008-2.26c-3.287-7.325-3.336-13.5-.149-18.89l.261-.451,7.568-.107-3.476,7.48-1.771,1.354.045,1.6a25.9,25.9,0,0,1-.717,8.916l-.753,2.354ZM62.06,416.588v0l-4.806-6.3-2.522-4.611-1.966-8.91,3.173-4.512,5.209-1.6-.641,1.665a15.29,15.29,0,0,0-.94,7.893l.31-1.682,2.53-6.5,2.187,12.08-2.532,12.48Zm29.221-3.58h0l-7.211-.576,7.107-3.8.195-1.609L87.206,410l-11.322.8,14.993-10.953,4.863,1.772.963,4.226,10.509,1.894-15.929,5.268Zm-46.57-9.82v0L38.6,389.52c-.189-1.3-.346-2.325-.473-3.149-.1-.627-.165-1.062-.223-1.457-.668-4.212-.895-5.629.84-10.531l.174-.466,7.146-1.616-2.346,6.8-.344,5.274L48.817,371.8l.978,1.12c.39.447.815.893,1.226,1.324l.021.026.085.088.038.042c1.765,1.856,3.591,3.778,3.3,5.857a4.481,4.481,0,0,1-2.4,3.029l-3.642,4.193,1.425,5.136-5.129,10.575Zm33.266-54.223h0c-.921,0-2.214-.687-5.319-2.824l-1.06-.726,9.869-7.212-1.381,3.141a10.062,10.062,0,0,0-.59,4.66v.019l0,.053v0c.049,1.1.083,1.9-.454,2.46l-.278.283ZM308.347,287.2c-2.887-7.892-6.588-16.4-10.17-24.626l0-.006-.354-.814c-1.052-2.416-2.138-4.914-3.179-7.345-2.666-6.48-5.688-13.962-7.86-20.753-2.306-7.208-3.466-13.033-3.542-17.81,1.907,3.6,3.19,6.548,4.431,9.4l.008.013a100.231,100.231,0,0,0,6.772,13.418c.452.641.91,1.307,1.4,2.013l.131.193c1.423,2.074,3.192,4.656,5.423,7.467a150.294,150.294,0,0,1-7-15.644,174.813,174.813,0,0,1-7.073-23.511,118.481,118.481,0,0,1-2.9-24.1,88.711,88.711,0,0,1,9.631,14.542c5.937,10.75,9.593,22.832,11.506,38.023l1.12.529a83.863,83.863,0,0,0-3.671-23.7,131.627,131.627,0,0,0-9.067-21.722c-.286-.614-.6-1.279-.952-2.033l-.006-.011c-.433-.923-.882-1.882-1.309-2.813-.81-11.723-1.08-21.5-.838-29.893A128.864,128.864,0,0,1,293.3,135.3q.1-.326.2-.638c.1-.345.2-.671.324-1.015.7,2.29,1.551,5.562,2.456,9.026l0,.009c3.033,11.612,7.186,27.514,12.073,34.35V287.2ZM34.51,272.191v0l-.8-.137a4,4,0,0,1-2.9-2.1c-.651-1.234-1.071-3.409.624-6.761l4.293-15.032,4.144,7.091L34.51,272.19Zm-5.343-4.869v0l-3.3-5.394-.157-5.87,2.776-4,4.331-.572L29.168,267.32ZM7.625,260.495v0l-2.808-3.255-.772-2.547L6.62,241.56l4.6-.852,1.186,3.853L7.625,260.493Zm-4.3-5.814v0L.7,248.353,0,242.88l1.973-5.119,5.056.758-3.7,16.158ZM74.4,176.509l0,0c-2.35-1.923-3.358-5.089-3.173-9.965.168-4.476,1.289-9.965,2.585-16.32.1-.492.2-.989.307-1.491l.155-.777.312,27.117a3.67,3.67,0,0,1-.1.927l0,.011a2.749,2.749,0,0,0-.078.5Zm233.951-6.632c-.687-2.288-1.531-4.565-2.346-6.767l-.008-.014c-.952-2.578-1.939-5.245-2.651-7.862a36.874,36.874,0,0,1-2.017-9.949,62.628,62.628,0,0,1,.327-11.645,107.148,107.148,0,0,1,6.7-25.894v62.131ZM201.629,108.052a.29.29,0,0,1-.257-.164l.954-.357C202.073,107.867,201.824,108.052,201.629,108.052ZM37.516,87.288h0L36.5,87.06c-9.216-2.107-11.182-4.706-13.629-8.771l-1.135-1.905,2.183.556a52.529,52.529,0,0,0,12.5,2.017l2.235-.09-1.141,8.419ZM15.267,60.946v0L12.783,58.9l.857-3.1,4.424-4.761,6-.97L15.267,60.944Zm-8.673-.407,0,0,7.311-14.529,5.625.792-4.216,6.66-1.41,1.427-2.986,4.622L6.6,60.539Zm196.159-.763,0,0c-1.135-1.588-9.43-1.921-16.189-1.921-6.692,0-13.006.326-15.409.466-.554.045-1.01.069-1.432.069a15.5,15.5,0,0,1-9.5-3.02c-1.264-1.059-1.953-3.629-2.106-7.858-.131-3.636.153-7.842.4-11.554V35.93c.066-.968.115-1.714.161-2.442.795-5.939,2.023-14.073,3.538-16.119l1.57,10.3,2.157,9.177,1.3,2.518,2.227,3.408,2.846,3.058c3.43,2.467,7.023,3.141,10.5,3.792l.276.052c.354.067.717.135,1.073.205l-3.035-9.39,8.6,5.513-3.273,4.39a16.214,16.214,0,0,1,2.187.685c1.069.507,2.477,1.026,3.837,1.526l.011,0a43.882,43.882,0,0,1,6.673,2.885c2.252,1.312,3.425,2.711,3.585,4.274ZM292.119,41.7h0l-.7-1-.793-1.292c-.831-1.418-1.773-3.025-3.64-3.737l.307-1.778,11.894-.334L292.119,41.7ZM7.525,34.757l0,0,6.541-8.373,8.422-5.558.095,8.693-7.5,2.094L7.529,34.756ZM203.572,9.528h0l-.278-.255c-.615-.587-.585-1.68.095-3.342.482-1.171,1.47-3.135,2.651-3.135l11.088,1.148-4.84,5.491Z" transform="translate(0.512 0.95)" fill="#002a4d" stroke="rgba(0,0,0,0)" stroke-width="1" opacity="0.046"/>
</svg>
