<svg xmlns="http://www.w3.org/2000/svg" xmlns:xlink="http://www.w3.org/1999/xlink" width="21.76" height="113.693" viewBox="0 0 21.76 113.693">
  <defs>
    <clipPath id="clip-path">
      <rect id="Rectangle_206" data-name="Rectangle 206" width="28.939" height="21.76" fill="#fff"/>
    </clipPath>
  </defs>
  <g id="Group_2847" data-name="Group 2847" transform="translate(-13.055 -339.696)">
    <g id="Group_2846" data-name="Group 2846" transform="translate(13.055 453.389) rotate(-90)">
      <g id="Group_1796" data-name="Group 1796" transform="translate(0 0)">
        <g id="Group_1795" data-name="Group 1795">
          <g id="Group_1182" data-name="Group 1182" clip-path="url(#clip-path)">
            <path id="Path_12177" data-name="Path 12177" d="M.006,0A5.378,5.378,0,0,0,.265.575l.3.552a2.41,2.41,0,0,1,.241.612.773.773,0,0,1,0,.348.543.543,0,0,1-.178.283.724.724,0,0,0,0-.58A5.486,5.486,0,0,0,.351,1.24,3.8,3.8,0,0,1,.092.647,1.592,1.592,0,0,1,.006,0" transform="translate(11.953 13.017)" fill="#fff"/>
            <path id="Path_12178" data-name="Path 12178" d="M23.249,0a2.222,2.222,0,0,0-1.641.966c-.09.114-.288.378-.564.765-.018.027-.036.057-.054.084l-.033.039c-.162.228-.345.489-.549.786a2.166,2.166,0,0,1-1.53,1.041,2.1,2.1,0,0,1-1.392-.345c-.279-.219-.45-.156-.294.126a2.408,2.408,0,0,0,2.084.642,1.915,1.915,0,0,0,1.014-.549.176.176,0,0,1,.138.048c.189.2.189.735-1.026,1.017a3.009,3.009,0,0,1-2.321-.642s-.219.39-2.1.564a3.718,3.718,0,0,1-2.849-.861,3.645,3.645,0,0,1-2.849.861C7.414,4.37,7.195,3.98,7.195,3.98a3.005,3.005,0,0,1-2.318.642C3.659,4.34,3.659,3.806,3.848,3.605a.167.167,0,0,1,.123-.048A1.957,1.957,0,0,0,5,4.106a2.418,2.418,0,0,0,2.087-.642c.156-.282-.015-.345-.3-.126a2.089,2.089,0,0,1-1.383.345,1.515,1.515,0,0,1-.513-.138,2.494,2.494,0,0,1-1.035-.9c-.678-.99-1.149-1.62-1.236-1.725A2.2,2.2,0,0,0,1.029,0,1.034,1.034,0,0,0,0,.942a.927.927,0,0,0,.951.894.958.958,0,0,0,.762-.363,3.218,3.218,0,0,1,1,1.428A14.1,14.1,0,0,1,3.878,6.142a.7.7,0,0,0,.186,1.377h.081c.123.549.231,1,.294,1.317a4.768,4.768,0,0,0,.279.894s-.186-.738,2.99-1.254a27.125,27.125,0,0,1,8.862,0c3.176.516,2.99,1.254,2.99,1.254a4.207,4.207,0,0,0,.264-.894c.078-.312.186-.768.312-1.332a.68.68,0,0,0,.561-.69.713.713,0,0,0-.312-.594A13.788,13.788,0,0,1,21.552,2.9a3.511,3.511,0,0,1,1-1.428.958.958,0,0,0,.762.363.917.917,0,0,0,.951-.894A1.02,1.02,0,0,0,23.249,0M.672,1.254C.579,1.254.5,1.209.5,1.146c0-.081.078-.126.171-.126s.171.045.171.126c0,.063-.078.108-.171.108m2.615,2.21A17.1,17.1,0,0,0,2.2,1.551,2.179,2.179,0,0,0,.732.723C.672.723,1.029.1,1.76.612a6.009,6.009,0,0,1,1.683,2.24c.171.516.078.831-.156.612M15.464,4.733a2.3,2.3,0,0,0,.66-.15s.006-.009.009-.009,0,0-.009.009c-.036.036-.036.258-.036.258a3.315,3.315,0,0,1-.765.063c-.528,0-.186-.156.141-.171m-2.771-.3c.249.081.717.237.717.237l.108.312-1.245-.015-.078-.69c.093-.045.264.078.5.156m-1.76.252a.2.2,0,0,1,.057-.009,2.284,2.284,0,0,0,.381-.18,2.527,2.527,0,0,0,.264-.219l-.03.7s-.5-.012-.666,0c-.036.012-.009-.288-.006-.3M7.849,4.607a5.761,5.761,0,0,0,.825.156,5.825,5.825,0,0,0,1.745-.048l.045.237a15.525,15.525,0,0,0-2.615.375Zm-2.1,1.754c-.279.126-.762.327-1.137.5-.372.156-.684.267-.732.048-.045-.237.033-.345.249-.456A5.648,5.648,0,0,1,5.248,6.3c.312-.03.609.015.5.063m5.7,1.488c-.7.015-1.341.048-1.931.093L9.033,7.5l-.282.516c-.684.078-1.26.174-1.742.267l.918-.813-1.122-.66a9.3,9.3,0,0,1,1.6-.471l.624.816.546-1.017c.4-.048.825-.078,1.275-.1h1.185L10.653,7l1.23.831a4.245,4.245,0,0,1-.435.015m.684-.219L11.229,7l.9-.642L13.052,7Zm4.175-.36a7.145,7.145,0,0,1,.8.969,7.828,7.828,0,0,0-1.617-.264L15.23,7.5l-.45.408c-.624-.048-1.419-.078-2.384-.078L13.628,7l-1.389-.957c.936.033,1.79.1,2.492.174l.5.939.624-.8c.654.093,1.23.219,1.245.219.672.108-.327.219-.792.69m3.908-.393a.23.23,0,0,1-.312.189s-.078-.048-1-.438a19.367,19.367,0,0,0-6.463-.879A35.444,35.444,0,0,0,6.562,6.2a6.323,6.323,0,0,1,3.017-.8,34.254,34.254,0,0,1,8.47.345,10.1,10.1,0,0,1,1.742.627c.375.2.468.282.423.5m1.853-5.327a20.745,20.745,0,0,0-1.092,1.913c-.234.219-.312-.1-.141-.612A5.882,5.882,0,0,1,22.517.612c.732-.516,1.092.111,1.029.111a2.2,2.2,0,0,0-1.479.828m1.542-.3c-.093,0-.171-.045-.171-.108,0-.081.078-.126.171-.126s.171.045.171.126c0,.063-.078.108-.171.108" transform="translate(2.111 12.03)" fill="#fff"/>
            <path id="Path_12179" data-name="Path 12179" d="M0,.043S.365-.171.513.358A.448.448,0,0,1,.03,1,3.649,3.649,0,0,0,0,.043" transform="translate(12.173 1.374)" fill="#fff"/>
            <path id="Path_12180" data-name="Path 12180" d="M28.939,8.7c-4.307-1.023-7.414-4.214-9.753-4.214-1.985,0-2.378,1.713-3.005,3.632-.474,1.449-1.569,1.122-1.569.306,0-1.611,1.359-2.039,1.359-4.142,0-1.575-.408-2.471-1.4-3.056A2,2,0,0,0,12.986.853a1.516,1.516,0,0,0-1.143-.84c-.18-.039-.54.012-.345.135s.177.165.33.573A2.208,2.208,0,0,1,11.481,1a5.878,5.878,0,0,0-1.542.7c-.507.453-1.629,1.278-2.06,1.569s-.525.36-.2.4c1.856.219,2.306-.3,3.188-.3s.615.147,1.194.147S13.085,2.9,13.478,2.9s.909.03.909,1.362-2.714,3.557-3.47,3.557S9.651,6.86,9.582,5.876c-.075-1.1.117-1.853-.633-1.853-1.194,0-3.623,2.084-4.766,3.461C3.143,8.737,1.239,10.357,0,10.642a1.56,1.56,0,0,0,.9.318,1.547,1.547,0,0,0,.336.063,1.749,1.749,0,0,0,.306-.006,1.5,1.5,0,0,1-.366.12,1.544,1.544,0,0,0,.516.069,1.637,1.637,0,0,0,.516-.1,1.456,1.456,0,0,1-.474.216,1.51,1.51,0,0,0,.522.033,1.637,1.637,0,0,0,.54-.141,2.3,2.3,0,0,0,.222-.123,1.388,1.388,0,0,1-.636.387,1.535,1.535,0,0,0,.525.015,1.682,1.682,0,0,0,.531-.168,2,2,0,0,0,.414-.285.063.063,0,0,0-.012.018,1.391,1.391,0,0,1-.735.558,1.455,1.455,0,0,0,.522-.006,1.677,1.677,0,0,0,.528-.183,1.943,1.943,0,0,0,.468-.363c.018-.018.033-.039.048-.057a.969.969,0,0,1-.075.147,1.408,1.408,0,0,1-.717.579,1.465,1.465,0,0,0,.522-.021,1.62,1.62,0,0,0,.522-.2,1.923,1.923,0,0,0,.456-.375.987.987,0,0,0,.1-.126,1.439,1.439,0,0,1-.1.222,1.4,1.4,0,0,1-.7.6A1.526,1.526,0,0,0,5.2,11.8a1.643,1.643,0,0,0,.516-.216,1.847,1.847,0,0,0,.447-.393,1.217,1.217,0,0,0,.108-.138,1.707,1.707,0,0,1-.1.231,1.411,1.411,0,0,1-.681.621,1.543,1.543,0,0,0,.519-.051,1.763,1.763,0,0,0,.51-.231,1.97,1.97,0,0,0,.432-.4.921.921,0,0,0,.081-.108,1.637,1.637,0,0,1-.078.2,1.4,1.4,0,0,1-.663.645,1.547,1.547,0,0,0,.519-.069,1.738,1.738,0,0,0,.5-.249,1.922,1.922,0,0,0,.42-.42c-.009.027-.021.057-.033.087a1.4,1.4,0,0,1-.633.669,1.468,1.468,0,0,0,.513-.09,1.654,1.654,0,0,0,.492-.27,2.039,2.039,0,0,0,.282-.276,1.411,1.411,0,0,1-.561.624,1.481,1.481,0,0,0,.507-.117,1.589,1.589,0,0,0,.474-.3c.036-.03.069-.063.1-.1a1.429,1.429,0,0,1-.423.471,1.463,1.463,0,0,0,.5-.159,1.578,1.578,0,0,0,.441-.324,1.425,1.425,0,0,1-.333.459,1.476,1.476,0,0,0,.474-.219,1.635,1.635,0,0,0,.354-.324,1.411,1.411,0,0,1-.219.516,1.5,1.5,0,0,0,.411-.321,1.784,1.784,0,0,0,.231-.321,5.95,5.95,0,0,0,.393,2.987c.555.921,1.215,1.14,1.056,1.332A1.212,1.212,0,0,1,10.479,16a2.626,2.626,0,0,0,3.3-1.548,2.163,2.163,0,0,0,1.572,1.632c1.386.3,1.6-.285,1.982-.222.822.138.711-.213,1.125-.111a1.167,1.167,0,0,1-.543-.948c-.111-.756.12-2.444-.984-3.8-.141-.174-.12-.294.009-.375.015.03.027.06.045.09a1.935,1.935,0,0,0,.372.462,1.618,1.618,0,0,0,.471.3,1.465,1.465,0,0,0,.5.126,1.408,1.408,0,0,1-.585-.714,1.206,1.206,0,0,1-.072-.408,1.191,1.191,0,0,0,.051.108,2.7,2.7,0,0,0,.15.255,1.813,1.813,0,0,0,.39.423,1.636,1.636,0,0,0,.486.273,1.5,1.5,0,0,0,.513.1,1.429,1.429,0,0,1-.624-.672c-.015-.042-.03-.081-.045-.12a1.146,1.146,0,0,1-.048-.219c.012.018.021.039.036.06a2.158,2.158,0,0,0,.162.234,1.793,1.793,0,0,0,.909.63,1.62,1.62,0,0,0,.516.069,1.479,1.479,0,0,1-.66-.63c-.018-.039-.036-.078-.051-.117A1.108,1.108,0,0,1,19.4,10.7a.164.164,0,0,1,.021.027,2.421,2.421,0,0,0,.174.219,1.824,1.824,0,0,0,.417.345,1.74,1.74,0,0,0,.516.213,1.629,1.629,0,0,0,.522.045,1.519,1.519,0,0,1-.693-.591c-.021-.036-.042-.072-.06-.111s-.039-.084-.057-.126l.006.006a2.05,2.05,0,0,0,.606.507,1.865,1.865,0,0,0,.528.18,1.63,1.63,0,0,0,.525.018,1.546,1.546,0,0,1-.723-.546c-.021-.033-.045-.069-.066-.1s-.03-.057-.045-.084a2.182,2.182,0,0,0,.171.162,2.052,2.052,0,0,0,.432.273,1.922,1.922,0,0,0,.534.15,1.707,1.707,0,0,0,.525-.006,1.583,1.583,0,0,1-.744-.5c-.027-.033-.051-.066-.075-.1s-.021-.033-.03-.051a1.246,1.246,0,0,0,.156.126,1.8,1.8,0,0,0,.432.24,1.951,1.951,0,0,0,.54.123,1.692,1.692,0,0,0,.525-.03,1.62,1.62,0,0,1-.765-.462c-.027-.033-.054-.063-.078-.1a.127.127,0,0,1-.015-.021,1.184,1.184,0,0,0,.141.1,1.882,1.882,0,0,0,.429.207,1.954,1.954,0,0,0,.546.1,1.69,1.69,0,0,0,.525-.051,1.683,1.683,0,0,1-.783-.423c-.027-.027-.054-.057-.078-.084.039.027.081.051.123.075a2.084,2.084,0,0,0,.426.174,1.932,1.932,0,0,0,.549.072,1.873,1.873,0,0,0,.522-.069,1.749,1.749,0,0,1-.795-.387c-.021-.018-.036-.036-.057-.054a1.078,1.078,0,0,0,.1.051,1.94,1.94,0,0,0,.42.147,2.164,2.164,0,0,0,.552.051,1.978,1.978,0,0,0,.519-.087,1.8,1.8,0,0,1-.807-.357.44.44,0,0,1-.039-.03c.027.012.054.027.084.039a2.219,2.219,0,0,0,.411.12,2.148,2.148,0,0,0,.552.03,1.966,1.966,0,0,0,.519-.1,1.915,1.915,0,0,1-.816-.324l-.009-.009a.462.462,0,0,0,.057.024,2.255,2.255,0,0,0,.954.108,2.028,2.028,0,0,0,.513-.114,1.968,1.968,0,0,1-.78-.276s.006,0,.012,0a2.212,2.212,0,0,0,.387.078,2.285,2.285,0,0,0,.555-.006,2.1,2.1,0,0,0,.513-.126,2.034,2.034,0,0,1-.747-.231,2.357,2.357,0,0,0,.351.051,2.409,2.409,0,0,0,.552-.015,2.225,2.225,0,0,0,.513-.135,2.1,2.1,0,0,1-.621-.159ZM10.9,2.106c-.225-.045-.279-.15-.264-.177a.345.345,0,0,1,.348-.189c.225.051.456.162.543.165s-.4.246-.627.2M2.981,9.868A5.909,5.909,0,0,0,4.055,9a12.445,12.445,0,0,0,.9-1.044c.291-.363.573-.732.885-1.083a5.625,5.625,0,0,1,1.038-.942c-.648.672-1.152,1.44-1.733,2.174a7.772,7.772,0,0,1-.957,1.032,3.814,3.814,0,0,1-1.2.729m.456.645A6.662,6.662,0,0,0,4.859,9.262c.423-.471.81-.975,1.185-1.485S6.787,6.746,7.18,6.239c.2-.252.4-.5.621-.738a4.6,4.6,0,0,1,.354-.33,1.408,1.408,0,0,1,.411-.249,2.556,2.556,0,0,0-.675.657c-.195.249-.375.51-.558.771-.36.525-.717,1.056-1.095,1.572A13.186,13.186,0,0,1,5,9.391a5.058,5.058,0,0,1-1.56,1.122m.966.2A5.685,5.685,0,0,0,5.578,9.631c.345-.4.666-.834.975-1.269s.618-.879.945-1.311c.165-.216.336-.426.519-.627a3.3,3.3,0,0,1,.3-.279,1.1,1.1,0,0,1,.348-.213,2.049,2.049,0,0,0-.555.57c-.159.213-.309.435-.456.66-.294.447-.591.9-.9,1.341A10.861,10.861,0,0,1,5.716,9.76a4.118,4.118,0,0,1-1.314.954m1.467-.072A4.623,4.623,0,0,0,6.721,9.7c.246-.342.474-.7.7-1.065s.447-.729.69-1.086a6.337,6.337,0,0,1,.384-.525,2.359,2.359,0,0,1,.222-.237.86.86,0,0,1,.27-.183.929.929,0,0,0-.219.228,2.7,2.7,0,0,0-.177.264c-.114.18-.216.366-.321.552-.207.375-.417.747-.642,1.116a8.555,8.555,0,0,1-.756,1.053,3.112,3.112,0,0,1-1,.825m1.838-.654a2.362,2.362,0,0,1-.795.666,3.914,3.914,0,0,0,.645-.78c.186-.279.36-.57.531-.864s.345-.588.534-.876a5.167,5.167,0,0,1,.306-.42,2.164,2.164,0,0,1,.177-.192l.1-.087.114-.063a1.531,1.531,0,0,0-.3.408c-.081.147-.159.3-.237.45-.156.3-.318.606-.492.9a6.86,6.86,0,0,1-.588.855M9.4,8.443l-.123.378c-.081.252-.171.5-.273.75a5.07,5.07,0,0,1-.354.726,1.844,1.844,0,0,1-.534.615,3.885,3.885,0,0,0,.366-.7l.3-.732c.1-.246.2-.492.321-.732a3.413,3.413,0,0,1,.192-.357.944.944,0,0,1,.267-.309,1.44,1.44,0,0,0-.162.36m1.683,3.362,0,.162.015.156.024.321c.018.1.033.21.048.318l.024.159.036.156.069.315c.048.213.117.417.168.633-.1-.195-.2-.393-.282-.6a5.491,5.491,0,0,1-.2-.63,4.864,4.864,0,0,1-.15-1.317,4.737,4.737,0,0,1,.231-1.311A3.475,3.475,0,0,1,11.7,9.013a5.366,5.366,0,0,0-.447,1.212,6.176,6.176,0,0,0-.168,1.263c-.006.1,0,.213,0,.318m1.889-1.389a7.785,7.785,0,0,0-.2,1.341,7.875,7.875,0,0,0,.015,1.356c.012.228.054.45.081.678s.09.447.126.678a6.264,6.264,0,0,1-.24-.651,5.974,5.974,0,0,1-.225-2.078,5.627,5.627,0,0,1,.267-1.374A4.369,4.369,0,0,1,13.4,9.115a7.527,7.527,0,0,0-.432,1.3m-.312-1.479a6.208,6.208,0,0,0-.492,1.176c-.033.1-.054.207-.081.309l-.039.156-.027.156-.057.315c-.012.1-.024.213-.036.318l-.018.162-.009.159-.015.324c-.006.216.006.432,0,.651-.045-.213-.093-.429-.117-.645a5.4,5.4,0,0,1-.03-.66,5.012,5.012,0,0,1,.2-1.314,4.545,4.545,0,0,1,.564-1.2,3.433,3.433,0,0,1,.9-.957,5.4,5.4,0,0,0-.744,1.053M14.03,6.713a9.983,9.983,0,0,1-1.476,1.209L12.542,7.9a9.871,9.871,0,0,0,1.4-1.272,5.134,5.134,0,0,0,1-1.566,2.857,2.857,0,0,0,.087-1.787,2.432,2.432,0,0,0-.4-.807,1.929,1.929,0,0,0-.321-.324.916.916,0,0,0-.411-.195V1.923a.881.881,0,0,1,.471.132,1.874,1.874,0,0,1,.387.3,2.216,2.216,0,0,1,.507.846,2.656,2.656,0,0,1,.111.486,3.067,3.067,0,0,1,0,.5,3.32,3.32,0,0,1-.246.948A5.371,5.371,0,0,1,14.03,6.713m4.106,3.4a2.889,2.889,0,0,1-.471-.378,5.472,5.472,0,0,1-.4-.438,2.517,2.517,0,0,0-.4-.42,1.129,1.129,0,0,1,.534.285c.153.129.294.264.432.4a6.891,6.891,0,0,0,.87.768,1.436,1.436,0,0,1-.567-.216m1.5-.429a4.837,4.837,0,0,1-.78-.435c-.243-.168-.477-.345-.7-.528a3.775,3.775,0,0,0-.72-.483,1.961,1.961,0,0,1,.825.33c.255.15.495.318.738.48a9.44,9.44,0,0,0,1.5.873,2.785,2.785,0,0,1-.861-.237m1.212-.327a6.715,6.715,0,0,1-1-.54c-.315-.207-.621-.426-.921-.645a4.507,4.507,0,0,0-.948-.579,2.761,2.761,0,0,1,1.05.42c.327.192.636.4.951.6a10.8,10.8,0,0,0,1.961,1.05,3.872,3.872,0,0,1-1.092-.306M22.41,9.1a10.065,10.065,0,0,1-1.362-.639c-.438-.246-.861-.51-1.284-.771a6.346,6.346,0,0,0-1.317-.675,4.233,4.233,0,0,1,1.41.51c.444.231.873.486,1.308.723a14.482,14.482,0,0,0,2.7,1.221A6.13,6.13,0,0,1,22.41,9.1m1.335-.429a12.586,12.586,0,0,1-1.635-.753c-.528-.285-1.038-.591-1.551-.9-.255-.15-.513-.3-.774-.435a4.559,4.559,0,0,0-.822-.339,5.216,5.216,0,0,1,1.686.609c.534.273,1.053.57,1.575.849a16.834,16.834,0,0,0,3.263,1.41,7.992,7.992,0,0,1-1.742-.444m.5-.915c-.7-.312-1.392-.663-2.081-1a19.142,19.142,0,0,0-2.093-.936,3.68,3.68,0,0,0-1.1-.231,1.306,1.306,0,0,0-.546.087,1.155,1.155,0,0,0-.45.339,1.075,1.075,0,0,1,.423-.4,1.4,1.4,0,0,1,.57-.15,3.439,3.439,0,0,1,1.161.174,14.176,14.176,0,0,1,2.144.894l2.054,1.047a20.305,20.305,0,0,0,2.1.939,12.252,12.252,0,0,1-2.183-.768" transform="translate(0 0)" fill="#fff"/>
          </g>
        </g>
      </g>
    </g>
    <text id="Old_hall" data-name="Old hall" transform="translate(28.189 418.696) rotate(-90)" fill="#fff" font-size="13" font-family="GrandCentral-Light, GrandCentral" font-weight="300" letter-spacing="0.1em"><tspan x="0" y="0">Old hall</tspan></text>
  </g>
</svg>
