<svg xmlns="http://www.w3.org/2000/svg" width="467.797" height="232.454" viewBox="0 0 467.797 232.454">
  <path id="Intersection_3" data-name="Intersection 3" d="M15085.813,2757q-.453-2.808-.679-5.837a96.933,96.933,0,0,1,.509-18.049,166.223,166.223,0,0,1,10.355-40.131V2757Zm-16.134,0a176.176,176.176,0,0,1,3.033-21.319q.16-.507.308-.991c.159-.532.315-1.037.5-1.572,1.079,3.551,2.4,8.62,3.8,13.99l0,.015c.815,3.128,1.683,6.456,2.6,9.877Zm-52.521,0a141.757,141.757,0,0,0,12.333-14.077,109.609,109.609,0,0,0,12.277-20.286,115.714,115.714,0,0,0,8.138-24.569c2.111-12,2.867-26.08,2.381-44.3l4.914,3.619c1.257-2,2.354-3.907,3.242-5.442l.02-.038a57.431,57.431,0,0,1,4.83-7.5,15.817,15.817,0,0,1,6.262-4.842,35.237,35.237,0,0,1,7.462-2.043,67.033,67.033,0,0,1-1.021,19.287,99.257,99.257,0,0,1-5.932,19.165,150.4,150.4,0,0,1-7.424,16.3l-.045.091c-.649,1.287-1.391,2.749-2.085,4.158l-5.594,10.443-.262-21.577c-2.644,8.723-2.818,16.469-3,24.668-.064,2.95-.137,6-.319,9.25-1.61,8.347-5.271,15.938-9.147,23.969l0,.008-.038.087c-1.914,3.965-3.889,8.066-5.578,12.239q-.264.688-.519,1.382Zm-68.678,0c14.458-14.549,32.1-28.785,47.78-41.429l.026-.019c7.169-5.783,13.947-11.248,20.156-16.519l-3.756-1.952c-1.541,1.211-4.044,3.03-7.219,5.332l-.205.148-.03.023c-13.5,9.8-38.619,28.029-59.471,49.583q-2.316,2.433-4.476,4.834H14894.2q2.14-.959,4.26-1.891l.03-.015c7.42-3.285,14.43-6.387,20.043-10.116,6.284-4.181,10.028-8.613,11.779-13.948-13.2,11.947-24.8,16.359-39.478,21.937l-.095.042c-3.321,1.261-6.712,2.551-10.294,3.991h-88.264a128.835,128.835,0,0,1,19.048-13.048,201.9,201.9,0,0,1,24.948-11.836c15.911-6.342,34.135-11.787,55.727-16.644,19.884-4.473,38.931-7.595,53.3-9.816,2.319-.338,4.742-.687,7.207-1.041,13.139-1.887,24.489-3.516,32.54-5.274,5.278-1.063,13.883-5.571,21.914-11.479a87.106,87.106,0,0,0,11.415-9.96,41.82,41.82,0,0,0,7.808-10.937,133.581,133.581,0,0,1-23.21,19.515,83.317,83.317,0,0,1-12.28,6.8,34.527,34.527,0,0,1-10.846,3.057c-13.636,2.643-24.618,4.618-34.552,6.22-9.551,1.564-18.873,2.989-26.365,4.131l-.02,0c-24.952,3.813-46.5,7.109-64.445,12.584-20.335,6.444-38.27,15.076-53.312,25.651a139.129,139.129,0,0,0-14.93,12.076h-6.877a76.319,76.319,0,0,1,3.834-10.7,72.833,72.833,0,0,1,9.015-15.007,80.462,80.462,0,0,1,11.723-12.091,100.006,100.006,0,0,1,13.7-9.588c19.245-11.3,41.718-17.016,59.774-21.611l.016,0h.011c3.354-.854,6.521-1.663,9.5-2.461-.406.82-.767,1.572-1.1,2.26-1.656,3.448-2.5,5.18-4.071,6.106s-3.979,1.014-8.4,1.078l.569,3.866a31.767,31.767,0,0,0,12.3,2.339,48.124,48.124,0,0,0,15.873-2.928,68.99,68.99,0,0,0,14.825-7.443,64.549,64.549,0,0,0,11.8-9.938,32.842,32.842,0,0,0,6.794-10.412,198.3,198.3,0,0,1-13.484,31.507c6.535-2.586,15.485-6.121,23.106-11.741a42.692,42.692,0,0,0,8.521-7.542,35.768,35.768,0,0,0,6.133-10.257l-1.7-2.761a70.4,70.4,0,0,1-13.028,14.977,42.076,42.076,0,0,1-12.979,8c2.357-2.863,6.759-13.868,12.74-31.83v-.847l-4.892-.178a191.02,191.02,0,0,1-19.883,21.451c-6.27,5.654-11.4,9-14.434,9.414a93.543,93.543,0,0,0,12.3-29.813l-1.443,0c-2.373,6.843-5.662,15.573-10.025,22.347a30.677,30.677,0,0,1-6.919,7.9,13.834,13.834,0,0,1-8.464,3.076,11.9,11.9,0,0,1-2.268-.209c9.251-18.432,19.86-34,23.556-38.65a6.08,6.08,0,0,0-2-1.933c-3.513,3-6.7,7.693-9.771,12.224l-.027.031c-3.349,4.94-6.816,10.044-10.776,13.146a9.3,9.3,0,0,1-5.859,1.884,20.854,20.854,0,0,1-7.5-1.754l-.042-.019c-.239-.095-.44-.178-.6-.232a18.054,18.054,0,0,1-7.086-3.478,13.084,13.084,0,0,1-4.041-5.252,6.35,6.35,0,0,1,.331-5.958,17.083,17.083,0,0,0,12.638,5.7c6.272,0,12.132-3.319,15.941-6.1,4.306-3.156,7.788-6.968,9-9.1.365-.646.5-1.09.38-1.287.175-.577,1.3-.858,3.444-.858,2.886,0,7.39.5,12.6,1.071.41.046.82.095,1.238.137.729.083,1.473.163,2.225.247a204.356,204.356,0,0,0,21.376,1.447h.9a47.145,47.145,0,0,0,14.6-2.13c4.773-2.662,8.836-7.2,11.749-13.131a41.547,41.547,0,0,0,4.227-17.271,28.913,28.913,0,0,0,10.561,5.7,45.2,45.2,0,0,0,13.438,2c8.2,0,15.726-2.126,21.2-5.985a22.816,22.816,0,0,0,7.074-7.895,24.524,24.524,0,0,0,2.757-11.514c10.534,13.23-14.908,42.113-33.481,63.2l-.012.011c-1.032,1.169-1.875,2.123-2.639,3l9.338-34-2.017-.8-12.079,23.642-18.057,22.64c.133-2.438.224-4.83.312-7.139v-.011c.539-14.084,1.006-26.244,10.655-40.047l-.938-3.372a39.956,39.956,0,0,0-6.652,8.726,41.852,41.852,0,0,0-3.771,9.239c-1.77,6.3-2.271,12.995-2.761,19.473-.656,8.711-1.332,17.715-5,26.373l4.58-.046,16.056-21.767,3.767-.027,4.72,13.959c.806-8.985,10.546-20.513,20.867-32.718,8.027-9.5,16.332-19.325,20.954-28.59,2.5-5.016,3.687-9.387,3.648-13.355a16.853,16.853,0,0,0-1.2-6.136,18.361,18.361,0,0,0-3.714-5.654,30.6,30.6,0,0,0-4.561-11.491c-1.948-2.867-5.244-6.289-9.874-6.289h-.113c4.135,4.606,6.729,9.33,7.731,14.043a19.591,19.591,0,0,1-1.246,12.262,22.406,22.406,0,0,1-4.287,6.327,27.64,27.64,0,0,1-6.235,4.876,32.014,32.014,0,0,1-15.789,4.245,26.822,26.822,0,0,1-17.142-5.9,28.113,28.113,0,0,1-6.642-7.921,39.58,39.58,0,0,1-4.272-11.715l-2.882.326c1.178,5.514,2.031,11.031,2.936,16.876l.026.148.133.87a36.88,36.88,0,0,1-1.344,15.125,27.969,27.969,0,0,1-5.727,10.219c-3.938,4.443-8.472,6.467-11.21,6.5a61.059,61.059,0,0,1-7.679.657c-6.121-.083-14.221-.756-22.055-1.4h-.008c-7.591-.63-14.761-1.219-19.428-1.219h-.638c-2.013.023-3.706.277-11.464,2.62,3.011-9.824,6.489-16.925,10.332-21.106.688.217,1.421.456,2.237.725l.041.011c4.379,1.42,8.905,2.89,14.066,2.89,8.168,0,16.613-3.714,26.581-11.685l.79-.554c5.191-6.957,5.741-18.751,1.633-35.054-.319.171-.615.342-.9.505l-.1.057a10.108,10.108,0,0,1-1.807.9c-8.233,4.447-15.364,6.611-21.809,6.611-6.535,0-12.368-2.172-18.907-7.037a15.347,15.347,0,0,1-4.439-8.062,32.108,32.108,0,0,1-.523-10.519c.744-7.238,3.443-14.578,6.881-18.706,9.679-3.672,26.881-4.652,35.524-4.652,1.275,0,2.21.034,2.771.061l1.417-.046-1.391,1.979-2.259,4.238c-.426,2.924.35,5.119,2.369,6.706a7.406,7.406,0,0,0,3.3,1.052h.137l3.718-.326a22.829,22.829,0,0,0,9.517,15.174,31.921,31.921,0,0,0,18.767,5.92,34,34,0,0,0,13.534-2.806,37.849,37.849,0,0,0,12.7-9.061l6.934.794,1.048-2.814c-4.979-3.737-12.353-7.192-20.779-9.733a93.769,93.769,0,0,0-26.232-4.086,52.158,52.158,0,0,0-15.584,2.13c-.46.03-.851.046-1.181.046-2.135,0-3.4-.486-3.756-1.439-.475-1.25.527-3.289,3.068-6.239a104.346,104.346,0,0,1,9.447-9.224c11.67.467,24.08.927,36.186.927a334.464,334.464,0,0,0,38.476-1.971,198.859,198.859,0,0,0,37.483-7.77c1.307-.437,2.556-.881,3.657-1.28l.026-.008c1.208-.433,2.445-.881,3.736-1.31l-7.329,10.447-9.565,14.126,9.676-2.924,12.562-4.04-12.421,14.415-.27.57h.27l10.04-1.511-3.956,8.176c-1.8.247-3.247.467-4.773.7l-.046.008c-.38.057-.76.118-1.154.178-11.017,1.128-17.5,1.922-22.678,5.1-4.971,3.049-8.78,8.206-14.56,19.7l1.181,1.652c7.363-12.543,14.309-19.393,20.636-20.365,4.4-.847,9.676-1.8,15.474-2.442,8.29-.6,16.519-.961,25.166-1.1v1.925c-6.229,4.432-14.738,4.971-23.741,5.541l-.677.045c-.22.011-.447.031-.672.042-6.63.357-13.488.725-19.2,2.719l-11.632,11.058.1,5.62a37.612,37.612,0,0,0,9.426-8.244,17.286,17.286,0,0,1,6.155-5.119c.322-.023.657-.034,1.029-.034a8.814,8.814,0,0,1,5.95,2.107,21.277,21.277,0,0,1,3.694,4.595l.023.034a28.923,28.923,0,0,0,2.6,3.543c-.117,1.116-.2,2.761-.284,4.507-.49,9.881-1.394,28.26-11.051,28.4l-.851,1.967,2.066,1.952a19.138,19.138,0,0,0,8.768-6.243,21.5,21.5,0,0,0,3.634-8.483,69.263,69.263,0,0,0,1.333-8.8l0-.061,0-.011c.535-4.933,1.086-10.033,3.334-14.3a17.18,17.18,0,0,1,4.86-5.757,25.176,25.176,0,0,1,8.692-4.075c-3.356,21.25-5.373,33.611-7.776,40.541-2.294,6.623-4.9,8.578-10.261,10.686a62.236,62.236,0,0,1-6.756,2.563l-.079.027a40.71,40.71,0,0,0-7.007,6.851l-.038.042a40.286,40.286,0,0,1-5.146,5.263l-.049.061c-.205,0-.543-2.552-1.109-6.775-1.1-8.29-2.954-22.169-6.216-36.09l-3.726-1.865c.589,4.971,1.242,9.915,1.93,15.148l.125.919c2.765,20.916,5.628,42.546,4.128,63.1a105.815,105.815,0,0,1-6.1,29.612,80.348,80.348,0,0,1-6.573,13.61,77.551,77.551,0,0,1-9.479,12.531c-6.11,6.673-12.4,13.015-18.621,19.162Zm-197.556,0c.278-1.585.278-2.566-.165-2.715-.343.811-.728,1.722-1.144,2.715h-15.7l-.019-1.705c2.909-12.782,5.936-28.108,6.38-44.9l-2.9-1.059-2.477,12.607-1.394,2.005L14714.7,2757h-11.738l0-.015a67.986,67.986,0,0,1-2.278-19.7c.312-12.9,3.752-25.3,7.071-37.29l.007-.011.008-.034c4.492-16.238,8.738-31.571,4.663-46.108l-4.876.611a9.891,9.891,0,0,1,1.516,4.743,9.608,9.608,0,0,1-1.1,5.142,8.831,8.831,0,0,1-3.691,3.646,14,14,0,0,1-6.694,1.481c-4.04,0-8.932-1.188-14.536-3.531-2.586-6.25-1.94-9.52-1.424-12.144.626-3.194,1.082-5.5-4.257-11.081l6.687-13.219c-.186-.213-.38-.429-.569-.646-2.131-2.4-4.329-4.864-7.344-4.864h-.114c-5.988,5.4-10.952,8.138-14.757,8.138a6.125,6.125,0,0,1-5.506-3.156c-1.588-2.59-2.2-6.7-1.721-11.559a40.038,40.038,0,0,1,3.961-13.693l-13-8.571c2.783-4.959,5.331-8.392,7.788-10.5a10.179,10.179,0,0,1,6.851-2.791c2.738,0,5.533,1.1,8.769,2.373l.463.178c.414.163.843.33,1.279.5a36.807,36.807,0,0,0,25.77,1.329c-4.781-1.394-10-2.385-15.053-3.346l-.046-.008h-.012c-8.7-1.652-17.7-3.357-25.127-7.188l5.232-18.227a234.68,234.68,0,0,1,25.77,1.28c6.076.737,10.534,1.826,13.613,3.323,5.954,2.882,6.569,7.143,7.355,12.539.585,4.059,1.254,8.654,4.2,13.944,3.422,6.159,9.247,11.965,17.806,17.76-.064-4.325-3.095-7.709-6.307-11.29l-.012-.008a37.427,37.427,0,0,1-5.369-7.044l-.965-8.442,2.2.452.646.133c6.118,1.25,9.813,2,12.072,3.159a5.572,5.572,0,0,1,3.531,4.177c.467,2.035.4,4.865.3,9.14v.015l0,.194c-.064,2.81-.144,6.307-.083,10.538,11.795,11.6,21.053,23.84,30.015,35.68l0,0c16.352,21.607,31.791,42.014,60.055,55.282-3.387,2.305-6.5,4.367-9.918,6.63l-.008.008c-12.816,8.483-22.078,14.612-28.8,23.449-5.461,7.186-9.121,16.064-11.658,28.625Zm-17.378,0c.034-.166.067-.331.1-.5l.239-1.2.02,1.7Zm196.966-63.8,1.474-.551c-.388.516-.775.805-1.079.805A.44.44,0,0,1,14930.513,2693.205Zm-255.048-32.278c-14.255-3.266-17.3-7.295-21.083-13.595l-1.754-2.954,3.376.862c6.364,1.625,13.112,3.129,19.344,3.129l3.455-.141-1.766,13.048,0,0Zm-32.847-40.476-3.843-3.163,1.325-4.811,6.843-7.378,9.276-1.5-13.6,16.857v0Zm-13.416-.63,11.312-22.519,8.7,1.227-6.521,10.321-2.18,2.214-4.621,7.162-6.69,1.6Zm303.44-1.188c-1.754-2.461-14.586-2.977-25.04-2.977-10.355,0-20.122.509-23.84.725-.854.068-1.561.106-2.214.106-6.729,0-12.125-2.521-14.7-4.682-1.956-1.64-3.02-5.624-3.259-12.178-.2-5.631.239-12.152.623-17.9v-.038c.1-1.5.183-2.654.251-3.782,1.23-9.2,3.129-21.812,5.472-24.983l2.431,15.972,3.338,14.221,2.013,3.9,3.444,5.282,4.4,4.739c5.31,3.824,10.868,4.868,16.242,5.875l.425.083c.547.1,1.109.209,1.659.315l-4.693-14.552,13.31,8.544-5.065,6.8a24.916,24.916,0,0,1,3.384,1.06c1.655.786,3.831,1.591,5.936,2.366l.019,0a68.077,68.077,0,0,1,10.325,4.473c3.482,2.035,5.3,4.2,5.544,6.623v.008Zm137.165-29.563-1.227-2c-1.283-2.2-2.741-4.69-5.631-5.791l.475-2.757,18.4-.516-10.929,12.619Zm-439.163-9.2,10.12-12.976,13.029-8.616.144,13.473-11.6,3.243-11.7,4.876,0,0Zm302.842-39.493c-.953-.911-.908-2.6.144-5.18.748-1.815,2.275-4.861,4.1-4.861l17.152,1.781-7.488,8.506-13.48.148Z" transform="translate(-14628.702 -2525.047)" fill="#fff" stroke="rgba(0,0,0,0)" stroke-width="1" opacity="0.037"/>
</svg>
