<svg xmlns="http://www.w3.org/2000/svg" width="461.952" height="801.462" viewBox="0 0 461.952 801.462">
  <path id="Subtraction_10" data-name="Subtraction 10" d="M318.055,798.816v0l-1.53-4.182c-3.267-9.042-3.267-17.407,0-25.575l.532-1.343,8.327,3.662-7.326,27.438ZM278.22,779.2h0c-1.426,0-2.865-1.359-4.653-4.406a93.262,93.262,0,0,1-8.052-20.381,61.781,61.781,0,0,1-2.169-11.585c-.266-3.773.141-6.6,1.2-8.4a4.649,4.649,0,0,1,4.254-2.458,12.587,12.587,0,0,1,6.254,2.216l.755.477-2.574,18.088,1.044.534,2.206-12.544,2.065-.092.741.638c2.447,2.771,2.342,23.7.478,36.714l-.133.928ZM266.3,737.886h0v.057l.051,3.889-.048-3.946Zm91.807,34.889v-.016l1.79-2.561c4.141-6.1,4.03-10.108,3.892-15.185v-.018a53.279,53.279,0,0,1,.272-8.635l.625-.968L368.443,743h.025l4.9,2.786L371,758.7l4.568-11.087,6.279,7.141-.274.776c-3.685,9.633-10.519,15.272-20.308,16.768l-3.151.472Zm-31.152-3.327h0v0a49.318,49.318,0,0,1-3.581-3.406c-.5-.5-.981-1-1.431-1.43l-.345-.415-.014-.016c-2.851-3.423-4.91-5.892-7.187-5.892-2.056,0-4.26,2.081-7.147,6.75a16.166,16.166,0,0,1-4.729-6.436,10.108,10.108,0,0,1-.269-6.214c.9-3.294,3.38-6.455,7.176-9.138a31.834,31.834,0,0,1,12.213-5.159l1.923-.57,3-7.89c-.144.082-.283.163-.424.241-.071.04-.139.081-.209.119l-.009,0a24.267,24.267,0,0,1-4.327,2.128l-.345.181c-8.208,4.354-10.971,5.824-15.788,5.824a44.4,44.4,0,0,1-5.1-.357c.076,9.728-.843,11.024-4.254,15.851l-.079.113c-.772,1.092-1.646,2.329-2.67,3.886l-5.544-.495,1.881-2.734-8.508-23.722-8.624-.426c2.093-7.261,4.927-12.213,8.669-15.139,3.021-2.365,6.706-3.467,11.6-3.467a76.218,76.218,0,0,1,8.194.616l.243.026.156.016.014,0a78.779,78.779,0,0,0,8.536.623,23.717,23.717,0,0,0,11.342-2.468,21.679,21.679,0,0,0,5.493-3.837,24.816,24.816,0,0,1-5.535,2.526,30.377,30.377,0,0,1-10.1,1.761A46.124,46.124,0,0,1,301,709.51l-.532-.116-.023-.006a40.051,40.051,0,0,0-8.646-1.269,18.129,18.129,0,0,0-8.409,2.022,36.144,36.144,0,0,0-9.874,7.893,27.287,27.287,0,0,0-13.63-3.09h-.775c.2-.179.416-.361.639-.555.158-.14.322-.283.495-.429,3.292-2.863,8.267-7.192,13.494-10.9,6.276-4.452,11.133-6.712,14.436-6.712a6.259,6.259,0,0,1,1.174.108,130.593,130.593,0,0,0,24.477,2.785,61.138,61.138,0,0,0,7.4-.424,28.732,28.732,0,0,0,9.062-2.543,19.746,19.746,0,0,0,6.1-4.643c3.346-3.749,5.555-8.828,8.115-14.711a137.226,137.226,0,0,1,8.581-17.25,100.552,100.552,0,0,1,16.41-20.392c2.319-2.114,8.672-5.406,15.395-8.89l.025-.016c10.807-5.6,23.057-11.955,22.678-15.471-.091-.876-.99-1.55-2.664-2a84.463,84.463,0,0,1-20.588,12.917,51.94,51.94,0,0,1-20.415,4.549,36.98,36.98,0,0,1-12.878-2.238,36.007,36.007,0,0,1-11.469-6.938c-7.4-6.568-12.962-16.444-16.546-29.351,2.865.17,5.368.473,7.577.739l.079.009.017,0a53.338,53.338,0,0,0,6.053.526c2.992,0,4.913-.769,6.432-2.573,1.674-1.991,2.927-5.334,4.07-10.846a27.256,27.256,0,0,1-9.337,2.093c-3.824,0-6.432-1.558-7.973-4.759-1.341-2.784-1.7-6.445-2.008-9.677l-.006-.034v-.011c-.274-2.839-.535-5.52-1.409-7.153l-1.94.016c-2.167,10.085-1.527,17.094,1.966,21.422a12.693,12.693,0,0,0,5.428,3.839,24.083,24.083,0,0,0,8.545,1.357h.45a34.173,34.173,0,0,1-10.875,2.281,13.409,13.409,0,0,1-10.2-4.221c-.093-.164-.212-.334-.339-.513l-.028-.042a6.215,6.215,0,0,1-.789-1.346l-3.53,3.587,4.936,22.42.583,1.06-.549.792-6.667,19.849a34.584,34.584,0,0,1-3.131-14.691,139.27,139.27,0,0,1,1.182-17.115l.045-.407c.291-2.689.591-5.469.849-8.373l-6.073-1.818a77.271,77.271,0,0,1-4.132,29.865,71.184,71.184,0,0,1-21.742,31.057C286.6,637.464,290.979,622.534,293.2,606a180.9,180.9,0,0,0,.461-44.7c-.781-2.311-2.415-18.5-1.213-36.633a142.415,142.415,0,0,1,4.562-28.552c2.84-10.2,6.853-18.394,11.933-24.362,2.976-3.427,6.191-7.458,9.56-11.986,4.947-6.267,8.785-11.557,12.08-16.649a114.863,114.863,0,0,0,9.351-17.255,78.066,78.066,0,0,0,6.2-39.236l-12.038,35.048c-3.606,10.452-9.7,19.813-15.743,28.369-2.268,3.242-4.667,6.52-6.986,9.69l-.17.228-.02.03c-6.041,8.249-12.289,16.782-16.987,25.6a77.948,77.948,0,0,0-5.778,13.6,54.835,54.835,0,0,0-2.495,14.536c-.212,7.9-.025,17.084.156,25.963l.006.14c.339,16.475.659,32.034-1.386,39.689-1.471,8.122-3.929,15.422-6.921,20.554a21.838,21.838,0,0,1-4.616,5.8,7.681,7.681,0,0,1-4.87,2.063,5.5,5.5,0,0,1-1.79-.31c1.9-8.341,1.075-23.288-.359-30.334l-2.5-1.044a77.349,77.349,0,0,0,.048,11.958l.006.06a91.84,91.84,0,0,1,.181,10.705c-3.595,8.1-7.06,14.291-10.309,18.41-3.216,4.085-6.248,6.172-9.006,6.2a86.057,86.057,0,0,1-1.041-9.15v-.009c-.277-4.106-.368-5.49-3.9-10.294l3.357-19.009-4.961-1.294-5.054,23.346-11.721,15.582-.153.018a.9.9,0,0,1-.744-.353c-1.055-1.33.108-6.378,1.338-11.72l0-.018.093-.4c.17-.734.345-1.491.515-2.239,1.244-5.582,2.427-11.717.687-13.895a2.235,2.235,0,0,0-1.833-.829,5.8,5.8,0,0,0-2.138.495c3.021,11.211-.959,23.77-12.173,38.394,1.338-2,3.06-11.231,2.712-21.16a57.628,57.628,0,0,0-2.509-15.525,28.975,28.975,0,0,0-7.812-12.876,40.313,40.313,0,0,1-.272,22.611,33.356,33.356,0,0,1-5.088,9.881,34.106,34.106,0,0,1-8.545,7.992l-15.053-35.848-4.721-2.659a67.224,67.224,0,0,1,.738,12.753c-.26,4.276-1.233,7.418-2.9,9.33a7,7,0,0,1-5.546,2.365c-2.891,0-6.562-1.231-10.912-3.664.266-1.9-.888-3.994-3.428-6.224a51.834,51.834,0,0,0-11.941-7.162c.206-.462.407-.907.605-1.34l.235-.519c2.4-5.36,3.988-8.9,8.683-13.113l-4.429-.211c-.88.88-1.717,1.782-2.529,2.654l-.023.021c-2.534,2.722-4.924,5.292-8.412,7.152l4.545-14.92c-3.923.788-6.271,2.556-7.388,5.561-1,2.7-.916,6.177-.826,9.852l0,.024a65.4,65.4,0,0,1-.11,7.675,60.185,60.185,0,0,1-6.539,8.481c-2.178,2.489-4.344,3.7-6.618,3.7-2.987,0-6.18-2.046-9.758-6.258l.048-.747c.339-5.489.529-8.508-.153-11.129s-2.294-4.874-5.408-8.618l-13.455,7.172-3.68-6.463c8.157-6.523,15.2-12.9,22.658-19.653l.594-.537c2.608-2.359,5.3-4.8,8.027-7.219l-2.811-1.61L87.3,569.226,76.038,553.079l-18.2,4.029c2.71-2.722,5.532-5.908,8.525-9.284,5.235-5.917,10.652-12.033,16.591-17.01,6.785-5.69,13-8.764,19-9.395l5.286,5.078c.738.159,1.488.317,2.217.469l.322.067.017.006c1.669.351,3.247.68,4.687,1.024,5.756,1.168,10.909,2.36,15.457,3.412l.074.016c12.083,2.784,21.626,4.981,32.374,4.981,9.648,0,19.522-1.829,31.073-5.755,1.16-.876,2.4-1.836,3.671-2.825,8.392-6.516,18.834-14.624,28.343-15.824,1.861,4.223,4.05,8.526,5.648,11.669.58,1.091,1.174,2.2,1.748,3.264l.2.378.071.129c.721,1.34,1.454,2.7,2.172,4.066-.727-1.377-1.465-2.753-2.189-4.1l-.017-.033c-.7-1.313-1.341-2.5-1.977-3.7-1.785-3.487-3.838-7.554-5.654-11.669a19.088,19.088,0,0,1,2.3-.14,14.191,14.191,0,0,1,8.5,2.7c2.8,2.042,5.2,5.278,7.144,9.624l1.85-5.722-10.058-9.684-2.613-1.007-3.855-7.117,3.855,7.124-6.845-2.645c-1.032.275-1.949.492-2.8.666v0a54.245,54.245,0,0,1-11.432,1.3,35.178,35.178,0,0,1-18.58-4.874,34.093,34.093,0,0,1-12.072-12.841,49.356,49.356,0,0,1-5.264-15.082,67.715,67.715,0,0,1-.854-17.261,78.316,78.316,0,0,1,3.445-17.828,75.115,75.115,0,0,1,7.625-16.789,41.909,41.909,0,0,1,.354,12.938,25.675,25.675,0,0,1-4.808,11.741,29.027,29.027,0,0,0,12.459-8.108,48.99,48.99,0,0,0,8.581-12.974,54.856,54.856,0,0,0,4.361-14c.733-4.5.667-8.365-.181-11.177.41,1.311,4.721,2.224,10.476,2.224,5.923,0,13.749-1.03,17.952-3.926-12.451-3.674-13.534-8.417-14.784-13.907-.088-.368-.173-.744-.26-1.116-.832,4.313-.775,6.743.206,8.66s2.908,3.305,5.826,5.4l.017.014.43.307c.543.393,1.109.8,1.714,1.248-1.977.15-3.722.32-5.261.475l-.076.007c-2.438.241-4.542.451-6.469.451a18.3,18.3,0,0,1-5.962-.917,34.974,34.974,0,0,1-7.218-3.546l-1.923,1.387a14.912,14.912,0,0,1,2.387,7.518,30,30,0,0,1-.88,9.141,35.2,35.2,0,0,1-4.387,10.418,19.258,19.258,0,0,1-6.944,6.9l-1.949-23.029-3.83,1.135a52.8,52.8,0,0,1-5.5,14.306,45.211,45.211,0,0,1-9.687,12.152c2.5-4.714,4.817-10.426,7.266-16.472l.023-.057c3.965-9.8,8.069-19.927,13.684-27.839a35.738,35.738,0,0,1,9.631-9.671,22.979,22.979,0,0,1,12.649-3.74c5.595,0,11.879,1.9,18.673,5.639,4.455,1.78,9.212,3.614,13.811,5.388l.571.221.014.006c23.569,9.082,47.941,18.471,53.773,28.05l5.218,44.3,3.53-4.34-3.08-50.893c3.733,1.969,7.277,3.05,9.981,3.05a8.067,8.067,0,0,0,1.7-.164,6.186,6.186,0,0,0,4.166-3.549c1.092-2.392,1.23-5.768.4-10.037a58.549,58.549,0,0,0-4.842-13.771,95.141,95.141,0,0,0-17.66-25.491c-8.12-8.361-16.818-13.991-25.15-16.282a67.914,67.914,0,0,0,10.341-19.1,90.973,90.973,0,0,0,4.146-20.857l-3.08-1.087a16.623,16.623,0,0,1-.3,7.529,55.3,55.3,0,0,1-3.586,10.086c-3.148,6.992-8.05,15.569-14.979,26.219-2.243-2.695-3.544-6.445-3.988-11.469a102.658,102.658,0,0,1,.226-14.559c.605-9.749,1.222-19.822-3.224-26.721l-1.9.041a52.977,52.977,0,0,1,1.061,17.4,88.767,88.767,0,0,1-4.129,19.906,77.61,77.61,0,0,1-8.709,18.38c-3.8,5.735-8.058,10.051-12.663,12.822L229.057,311l-3.864-.752c-.314,3.3-.495,6.585-.668,9.759v.042c-.656,11.985-1.276,23.305-8.771,34.7l.218-30.886L213.433,322c-.73,14.33-5.719,27.85-15.254,41.328l-5.094-30.286-6.412-3.427-.783,4.338a16.522,16.522,0,0,1,3.671,10.744,27.732,27.732,0,0,1-2.984,11.32c-3.439,7.27-9.048,14.028-14.04,19.79l1.739-15.99-3.878-.775-2.772,22.485c-.764-4.743-1.174-8.771-1.539-12.323v-.024c-.543-5.3-.97-9.49-2.271-13.737a41.311,41.311,0,0,0-7.464-13.6l-3.864.072a26.867,26.867,0,0,1,4.042,9.34,28.524,28.524,0,0,1,.4,9.24c-.673,6.143-2.99,12.3-5.227,18.248l0,.013c-2.311,6.149-4.7,12.51-5.2,18.717a24.877,24.877,0,0,1-8.307-10.158,70.045,70.045,0,0,1-3.968-12.226l-.017-.071c-1.185-4.592-2.41-9.341-4.6-13.491a24.432,24.432,0,0,0-4.141-5.754,23.561,23.561,0,0,0-6.358-4.582q.424.708.84,1.4c5.583,9.263,9.611,15.95,7.755,21.578-1.3,3.929-5.487,7.233-13.183,10.4a8.743,8.743,0,0,0-1.663-3.212,14.362,14.362,0,0,0-6.07-5.021l-1.14,1.77a74.228,74.228,0,0,1-4.777,6.415l3.312-3.973,6.37.34.537,7.227L94.545,396.3,92.831,394.2l7.21-8.667c-5.252,6.065-10.909,10-17.3,12.036l-1.431-2.233,1.5-1.527.014-.013a76.846,76.846,0,0,0,7.444-8.114c2.563-3.409,3.94-6.5,4.211-9.449l.119-1.408,11.956,1.384a35.637,35.637,0,0,0-15-2.886,61.625,61.625,0,0,0-10.872,1.024c-2.062-3.521-2.735-6-2.121-7.79.718-2.1,3.176-3.086,6.027-4.223l.006,0h0c3.646-1.461,8.183-3.279,10.8-8.168l-23.659,9.2a36.272,36.272,0,0,1,1.918,12.955c-.153,4.6-1.2,8.5-2.936,10.966a6.383,6.383,0,0,1-5.377,3.036,8.655,8.655,0,0,1-3.038-.609l1.021-8.124a89.478,89.478,0,0,0-9.554-10.735l-18.45,6.415c-.006-.791-.017-1.567-.034-2.358V374.9c-.076-4.34-.144-8.439.981-13.066,6.534-3.271,11.732-4.161,18.311-5.288l.164-.027.769-3.811c-12.552,1.842-20.407,3.206-23.611,7.829-2.1,3.028-2.325,7.493-.735,14.925a18.182,18.182,0,0,1-6.225,1.309,8.161,8.161,0,0,1-7.079-3.611l3.408-13.569a25.756,25.756,0,0,0-8.434-4.42,48.344,48.344,0,0,0-9.891-2.117c4.152-.071,7.962-1.845,11.647-5.431a60.91,60.91,0,0,0,7.97-10.425c1.881-2.886,3.507-5.373,5.06-6.686a5.857,5.857,0,0,1,3.9-1.383c2.376,0,5.023,1.1,8.089,2.373l.39.159c.337.137.682.281,1.027.421,3.476,1.437,7.574,2.97,12.2,2.97a19.969,19.969,0,0,0,4.571-.519l-.023-3.511-13.89-2.57,3.847-4.627,23.289,8.123a159.615,159.615,0,0,0,41.037-18.873,188.054,188.054,0,0,0,26.1-19.219L133.268,281.2l5.119-38.8-1.666-1.06-9.051,32.871a14.252,14.252,0,0,1-5.58-8.236,34.953,34.953,0,0,1-.942-11.605c.509-8.338,2.882-17.388,4.61-24l0-.013c1.44-5.489,2.475-9.45,1.561-9.762-3.895,9.211-13.228,31.7-15.836,41.586l-.455-40.61c2.809-12.349,5.733-27.159,6.166-43.381l-2.8-1.027L112,189.352l-1.349,1.937L90.039,227.512l.2,15.422a66.972,66.972,0,0,1-9.1-19.726,65.648,65.648,0,0,1-2.2-19.038c.3-12.461,3.626-24.446,6.833-36.032l.006-.014.008-.03c4.342-15.691,8.446-30.51,4.506-44.559l-4.712.594a9.515,9.515,0,0,1,1.465,4.582,9.324,9.324,0,0,1-1.058,4.969,8.541,8.541,0,0,1-3.569,3.522,13.548,13.548,0,0,1-6.469,1.432c-3.906,0-8.629-1.149-14.046-3.415-2.5-6.04-1.875-9.2-1.377-11.735.605-3.084,1.044-5.312-4.112-10.708l6.463-12.771-.554-.626c-2.056-2.314-4.18-4.7-7.1-4.7h-.107c-5.787,5.215-10.584,7.863-14.261,7.863a5.92,5.92,0,0,1-5.32-3.048c-1.533-2.5-2.121-6.475-1.663-11.172a38.717,38.717,0,0,1,3.827-13.232L25.127,66.81c2.69-4.79,5.153-8.108,7.526-10.149a9.831,9.831,0,0,1,6.618-2.7c2.647,0,5.348,1.061,8.474,2.291l.447.174c.4.157.815.319,1.236.479a37.95,37.95,0,0,0,14.037,2.944A38.276,38.276,0,0,0,74.33,58.193c-4.619-1.346-9.665-2.3-14.544-3.23l-.045-.009H59.73c-8.406-1.6-17.1-3.243-24.279-6.944l5.054-17.615a227.649,227.649,0,0,1,24.9,1.235c5.872.714,10.179,1.767,13.158,3.212,5.753,2.785,6.347,6.9,7.108,12.117.566,3.923,1.211,8.362,4.053,13.477C93.031,66.383,98.66,72,106.933,77.594c-.062-4.178-2.992-7.448-6.1-10.909l-.008-.009a36.191,36.191,0,0,1-5.19-6.806l-.931-8.157,2.13.436.622.128c5.911,1.207,9.481,1.935,11.664,3.056a5.375,5.375,0,0,1,3.414,4.035c.453,1.968.39,4.7.294,8.832v.016l-.006.187c-.062,2.715-.139,6.1-.079,10.184,11.4,11.208,20.345,23.036,29,34.478l0,0c15.8,20.878,30.722,40.6,58.036,53.421-3.275,2.224-6.279,4.218-9.585,6.4l-.008.009c-12.383,8.2-21.332,14.123-27.826,22.662-6.7,8.821-10.6,20.282-13.03,38.327L138.5,255.945l1.482,27.067,5.17-5.221,6.952,27.023,2.8.493a38.762,38.762,0,0,1,2.314-20.53A60.951,60.951,0,0,1,168.45,266.82a97.4,97.4,0,0,1,15.9-14.4,106.168,106.168,0,0,1,16.3-9.862,103.361,103.361,0,0,0-4.039,14.627,124.078,124.078,0,0,0-2.277,17.013c-.58,9.076-.317,21.945,4.217,31.7l2.809.849a89.334,89.334,0,0,1,4.907-25.954c3.386-9.263,8.347-16.381,14.756-21.154-3.321,4.314-6.1,14.831-7.425,28.139-1.244,12.479-.885,24.217.905,29.9l4.732,1.578,7.673-26.408c3.14-3.2,5.982-6.176,8.494-8.8l.008-.01c8.18-8.543,14.64-15.293,22.16-20.732a77.1,77.1,0,0,1,12.55-7.37,119.467,119.467,0,0,1,16.648-6.21l.84-3.821-25.116,8.7c-8.912,3.042-18.062,9.872-26.462,19.759A106.821,106.821,0,0,0,219,302.178a112.226,112.226,0,0,1-.866-18.828,75.233,75.233,0,0,1,2.246-15.426,57.268,57.268,0,0,1,4.834-12.481,53.228,53.228,0,0,1,6.9-9.989,70.01,70.01,0,0,1,17.935-14.3,200.174,200.174,0,0,1,19.994-9.756l.028-.013c7.173-3.175,13.944-6.173,19.369-9.779,6.075-4.039,9.693-8.321,11.381-13.478-12.756,11.547-23.959,15.809-38.147,21.2l-.093.038c-5.068,1.928-10.31,3.92-16.178,6.452a51,51,0,0,0-14.589,9.892,101.519,101.519,0,0,0-13.194,15.2c-7.764,10.8-14.312,23.563-17.522,34.146-1.284-6.278-2.582-14.59-1.25-23.223a43.443,43.443,0,0,1,3.864-12.391,50.136,50.136,0,0,1,8.751-12.428c4.74-2.243,9.546-4.137,14.193-5.968l.045-.018c3.462-1.364,7.04-2.776,10.547-4.316a205.09,205.09,0,0,0-26.72,6.012,95.806,95.806,0,0,0-23.476,10.533,76.388,76.388,0,0,0-19.705,18.063,95.663,95.663,0,0,0-8.273,12.79,127.232,127.232,0,0,0-7.13,15.8c-.184-15.513,1.923-25.211,7.031-32.424,4.933-6.971,12.5-11.478,22.975-17.712l.034-.018.068-.044c3.371-2.006,7.19-4.279,11.254-6.843-11.181,1.995-19.2,4.885-26.822,9.67-7.19,4.517-13.729,10.412-24.022,20.4a60.35,60.35,0,0,1,8.112-20.813A77.82,77.82,0,0,1,165.5,224.808a121.261,121.261,0,0,1,20.254-14.192,194.824,194.824,0,0,1,24.106-11.436c15.375-6.129,32.988-11.391,53.853-16.085,19.213-4.321,37.618-7.34,51.5-9.487,2.24-.327,4.585-.664,6.964-1,12.7-1.823,23.668-3.4,31.443-5.1,5.1-1.027,13.418-5.384,21.179-11.094a84.076,84.076,0,0,0,11.031-9.624,40.466,40.466,0,0,0,7.543-10.568,128.9,128.9,0,0,1-22.426,18.858,80.627,80.627,0,0,1-11.868,6.567A33.424,33.424,0,0,1,348.6,164.6c-13.18,2.553-23.79,4.463-33.392,6.01-9.226,1.51-18.235,2.886-25.475,3.991l-.02,0c-24.112,3.687-44.937,6.872-62.276,12.162-19.649,6.228-36.981,14.569-51.516,24.79a127.518,127.518,0,0,0-21.264,18.583c-1.041,1.129-1.618,1.753-1.8,1.753a.047.047,0,0,1-.045-.024c-.059-.092.051-.483.359-1.271a76.437,76.437,0,0,1,5.38-17.717,70.4,70.4,0,0,1,8.711-14.5A77.523,77.523,0,0,1,178.6,186.693a96.617,96.617,0,0,1,13.24-9.264c18.6-10.922,40.313-16.445,57.761-20.884l.014,0h.011c3.239-.826,6.3-1.605,9.181-2.376-.39.792-.741,1.517-1.061,2.182-1.6,3.332-2.41,5-3.931,5.9-1.541.908-3.847.982-8.123,1.044l.552,3.735a30.667,30.667,0,0,0,11.888,2.26,46.469,46.469,0,0,0,15.341-2.829,66.531,66.531,0,0,0,14.326-7.192,62.447,62.447,0,0,0,11.4-9.6A31.741,31.741,0,0,0,305.76,139.6a191.269,191.269,0,0,1-13.03,30.444c6.316-2.5,14.965-5.915,22.33-11.344a41.31,41.31,0,0,0,8.236-7.288,34.612,34.612,0,0,0,5.925-9.911l-1.64-2.669A67.946,67.946,0,0,1,314.992,153.3a40.645,40.645,0,0,1-12.544,7.73c2.28-2.768,6.534-13.4,12.312-30.759v-.818l-4.726-.176a184.117,184.117,0,0,1-19.216,20.732c-6.056,5.463-11.011,8.691-13.947,9.1A90.346,90.346,0,0,0,288.756,130.3l-1.394,0c-2.294,6.614-5.47,15.049-9.687,21.6a29.631,29.631,0,0,1-6.686,7.634,13.38,13.38,0,0,1-8.177,2.972,11.6,11.6,0,0,1-2.192-.2c8.938-17.811,19.194-32.856,22.763-37.348a5.836,5.836,0,0,0-1.94-1.869c-3.391,2.9-6.469,7.435-9.441,11.815l-.023.027c-3.239,4.773-6.587,9.708-10.417,12.706a8.984,8.984,0,0,1-5.66,1.818,20.1,20.1,0,0,1-7.249-1.7l-.04-.017c-.232-.091-.427-.171-.58-.224a17.442,17.442,0,0,1-6.848-3.359,12.676,12.676,0,0,1-3.9-5.075,6.143,6.143,0,0,1,.32-5.761,16.505,16.505,0,0,0,12.21,5.513c6.061,0,11.724-3.206,15.4-5.9,4.163-3.049,7.529-6.733,8.7-8.8.351-.623.478-1.053.365-1.244.173-.555,1.259-.827,3.329-.827,2.789,0,7.142.48,12.179,1.036.4.043.795.089,1.2.132l2.152.237a197.037,197.037,0,0,0,20.656,1.4h.871a45.612,45.612,0,0,0,14.105-2.06c4.613-2.57,8.542-6.957,11.356-12.69a40.138,40.138,0,0,0,4.081-16.686,27.959,27.959,0,0,0,10.208,5.509,43.616,43.616,0,0,0,12.985,1.94c7.922,0,15.2-2.056,20.486-5.785a22.069,22.069,0,0,0,6.839-7.627,23.749,23.749,0,0,0,2.664-11.129c10.177,12.785-14.408,40.7-32.357,61.076l-.011.011c-1,1.132-1.81,2.054-2.548,2.9l9.023-32.853-1.949-.776-11.673,22.846-17.448,21.877c.127-2.356.218-4.667.3-6.9v-.009c.52-13.61.97-25.362,10.3-38.7l-.905-3.26a38.536,38.536,0,0,0-6.429,8.434,40.417,40.417,0,0,0-3.646,8.926c-1.711,6.084-2.195,12.559-2.667,18.819-.634,8.416-1.287,17.116-4.837,25.483l4.424-.042,15.517-21.034,3.64-.027,4.562,13.489c.775-8.684,10.191-19.824,20.164-31.616,7.758-9.182,15.782-18.674,20.248-27.629,2.413-4.845,3.564-9.069,3.524-12.906a16.193,16.193,0,0,0-1.16-5.929,17.612,17.612,0,0,0-3.589-5.463,29.516,29.516,0,0,0-4.407-11.1c-1.881-2.771-5.066-6.077-9.54-6.077h-.107c3.994,4.452,6.5,9.017,7.47,13.57a18.948,18.948,0,0,1-1.2,11.849,21.715,21.715,0,0,1-4.144,6.114,26.74,26.74,0,0,1-6.027,4.711,30.932,30.932,0,0,1-15.259,4.1,25.912,25.912,0,0,1-16.563-5.7,27.122,27.122,0,0,1-6.415-7.655,38.133,38.133,0,0,1-4.129-11.322l-2.786.316c1.137,5.329,1.963,10.66,2.837,16.307l.025.145.13.839a35.646,35.646,0,0,1-1.3,14.616,27.035,27.035,0,0,1-5.535,9.875c-3.8,4.293-8.185,6.251-10.833,6.286a59.338,59.338,0,0,1-7.419.636c-5.914-.084-13.743-.731-21.312-1.356h-.008c-7.334-.608-14.264-1.179-18.772-1.179h-.617c-1.943.024-3.581.269-11.079,2.535,2.91-9.493,6.271-16.356,9.987-20.395.662.208,1.369.438,2.161.7l.04.011c4.231,1.374,8.6,2.794,13.593,2.794,7.891,0,16.051-3.59,25.685-11.293l.764-.534c5.015-6.723,5.549-18.12,1.578-33.873-.308.164-.594.329-.871.486l-.1.055a9.781,9.781,0,0,1-1.745.87c-7.956,4.3-14.849,6.388-21.074,6.388-6.316,0-11.953-2.1-18.271-6.8a14.835,14.835,0,0,1-4.291-7.792,31,31,0,0,1-.5-10.164c.718-6.993,3.326-14.087,6.65-18.074,9.351-3.551,25.976-4.5,34.325-4.5,1.236,0,2.138.033,2.681.06l1.366-.043-1.341,1.91-2.184,4.1c-.41,2.825.337,4.945,2.291,6.478a7.151,7.151,0,0,0,3.188,1.019h.133l3.589-.317a22.081,22.081,0,0,0,9.2,14.665,30.857,30.857,0,0,0,18.136,5.72,32.9,32.9,0,0,0,13.078-2.71,36.616,36.616,0,0,0,12.272-8.757l6.7.766,1.015-2.719c-4.811-3.609-11.939-6.948-20.082-9.4a90.592,90.592,0,0,0-25.351-3.95,50.34,50.34,0,0,0-15.058,2.061c-.444.028-.82.041-1.143.041-2.062,0-3.281-.466-3.629-1.388-.458-1.207.512-3.179,2.967-6.03a100.952,100.952,0,0,1,9.13-8.912c11.277.451,23.266.893,34.967.893a323.507,323.507,0,0,0,37.179-1.9,192.447,192.447,0,0,0,36.223-7.508c1.261-.422,2.466-.854,3.533-1.238l.025-.009C440.858.846,442.058.414,443.3,0L436.22,10.092l-9.24,13.654,9.348-2.827,12.139-3.9-12,13.927-.26.553h.26l9.7-1.461-3.827,7.9c-1.739.238-3.137.453-4.613.68l-.042.007-1.114.171c-10.646,1.092-16.914,1.859-21.917,4.929-4.8,2.948-8.482,7.93-14.066,19.035l1.14,1.594c7.116-12.119,13.825-18.74,19.94-19.677,4.251-.82,9.351-1.741,14.954-2.36,8.01-.581,15.963-.929,24.319-1.063v1.862C454.921,47.4,446.7,47.916,438,48.468l-.651.042-.651.041c-6.409.344-13.033.7-18.549,2.628l-11.24,10.684L407,67.294a36.3,36.3,0,0,0,9.107-7.967,16.7,16.7,0,0,1,5.951-4.946c.311-.021.634-.033.993-.033a8.518,8.518,0,0,1,5.75,2.035,20.564,20.564,0,0,1,3.569,4.442l.023.034a28.31,28.31,0,0,0,2.514,3.423c-.113,1.077-.192,2.669-.274,4.355-.472,9.548-1.346,27.309-10.677,27.449l-.823,1.9,2,1.886a18.533,18.533,0,0,0,8.471-6.033,20.823,20.823,0,0,0,3.513-8.2,67.538,67.538,0,0,0,1.287-8.5l.006-.058,0-.013c.515-4.766,1.049-9.694,3.222-13.821a16.536,16.536,0,0,1,4.7-5.562,24.206,24.206,0,0,1,8.4-3.937c-3.244,20.534-5.193,32.477-7.515,39.173-2.217,6.4-4.738,8.29-9.916,10.329a60.2,60.2,0,0,1-6.528,2.475l-.076.027a39.509,39.509,0,0,0-6.771,6.619l-.034.041a39.012,39.012,0,0,1-4.972,5.084l-.051.059c-.2,0-.523-2.465-1.069-6.546-1.066-8.011-2.854-21.422-6.008-34.875l-3.6-1.8c.566,4.8,1.2,9.58,1.864,14.637l.119.887c2.673,20.214,5.439,41.114,3.988,60.972a102.081,102.081,0,0,1-5.9,28.617,77.433,77.433,0,0,1-6.35,13.149,74.984,74.984,0,0,1-9.158,12.112c-7.812,8.531-15.935,16.5-23.792,24.216-11.438,11.234-22.242,21.843-31.438,33.376a134.352,134.352,0,0,0-12.272,18,97.422,97.422,0,0,0-8.567,20c-3.855,13.183-4.59,27.373-2.249,43.38-7.306-9.9-11.661-21.813-13.31-36.428-1.392-12.353-.891-26.557,1.584-44.7l-13.39,16.7a38.8,38.8,0,0,1,1.013-13.3,58.5,58.5,0,0,1,5.295-13.423c4.432-8.322,11.042-17.051,20.206-26.691,14.408-14.964,32.64-29.671,48.728-42.647l.023-.016c6.93-5.591,13.48-10.871,19.479-15.965l-3.629-1.884c-1.488,1.17-3.909,2.929-6.975,5.153l-.2.143-.028.021c-13.042,9.466-37.321,27.085-57.47,47.914a186.652,186.652,0,0,0-14.92,17.566,102.693,102.693,0,0,0-10.963,18.18,53.333,53.333,0,0,0-4.952,18.121,34.782,34.782,0,0,0,3.12,17.38l6.307-6.564a250.358,250.358,0,0,0,1.151,27.932c1,8.923,2.7,15.524,5.2,20.187.317.642.7,1.464,1.148,2.416l.144.313c3.182,6.818,9.1,19.505,15.35,23.611a7.325,7.325,0,0,0,3.937,1.041h.175a70.4,70.4,0,0,1-4.322-17.016,105.012,105.012,0,0,1-.218-18.641,101.548,101.548,0,0,1,4.582-21.851,116.568,116.568,0,0,1,9.452-21.384,127.74,127.74,0,0,1,14.034-20,133.993,133.993,0,0,1,18.317-17.712c10.949-8.766,23.478-19.485,33.364-32.51a105.814,105.814,0,0,0,11.862-19.6,111.6,111.6,0,0,0,7.866-23.743c2.039-11.6,2.772-25.2,2.3-42.806l4.749,3.494c1.216-1.93,2.277-3.774,3.134-5.255l.02-.038a55.242,55.242,0,0,1,4.667-7.243,15.267,15.267,0,0,1,6.053-4.678,33.922,33.922,0,0,1,7.21-1.975,64.8,64.8,0,0,1-.987,18.637,95.95,95.95,0,0,1-5.733,18.521,145.7,145.7,0,0,1-7.173,15.753l-.045.086c-.628,1.245-1.341,2.657-2.014,4.018l-5.405,10.093-.255-20.853c-2.551,8.431-2.721,15.915-2.9,23.838-.065,2.853-.133,5.8-.308,8.941-1.559,8.066-5.094,15.4-8.842,23.162l-.006.007-.037.082c-1.847,3.831-3.756,7.8-5.388,11.829-3.895,10.18-6.514,21.581-9.045,32.608l-.014.068c-1.462,6.359-2.976,12.935-4.712,19.189-.8-1.791-1.533-3.79-2.246-5.72-1.949-5.265-4.152-11.224-7.962-14.732l.2-.466c3.473-8.39,7.065-17.064,7-24.783l-3.9,1.394a75.911,75.911,0,0,1-5.976,17.526c-2.687,5.81-5.923,11.614-9.051,17.226l-.017.033c-5.94,10.673-12.08,21.713-14.64,32.934l2.8,1.634,17.858-35.689a254.912,254.912,0,0,1,11.834,29.841c2.953,9.055,5.569,18.577,8.48,30.874l14.679,143.61A57.852,57.852,0,0,0,424.649,488a41.276,41.276,0,0,0,8.465,6.075,29.7,29.7,0,0,0,8.61,3.072,25.719,25.719,0,0,0,4.769.459,20.089,20.089,0,0,0,14.448-5.842v19.181A71.655,71.655,0,0,1,441.964,515c-2.209.207-4.458.313-6.692.313a100.945,100.945,0,0,1-25.7-3.719c1-.466,2.367-4.789,3.179-10.055a52.133,52.133,0,0,0,0-17.542,16.45,16.45,0,0,0-3.123-7.241,8.2,8.2,0,0,0-6.321-3.033c8.8,12.24,4.517,27.5-.023,43.653-2.37,8.426-4.82,17.133-5.515,25.8a50.433,50.433,0,0,0,.487,12.933,39.856,39.856,0,0,0,4.472,12.663,26.109,26.109,0,0,0,18.648,7.329c8.471,0,16.215-3.334,21.221-6.129a24.763,24.763,0,0,0,4.378-2.719c1.858,1.731,3.649,3.28,5.38,4.776,3.533,3.052,6.585,5.69,8.584,8.505v15.487c-.421.789-.9,1.619-1.431,2.467a29.261,29.261,0,0,0,1.431,14.861v45.7a38.188,38.188,0,0,1-5.329-13.386,49.459,49.459,0,0,1,.365-18.7,19.38,19.38,0,0,0-5.5,8.23,47.467,47.467,0,0,0-2.565,13.229,139.478,139.478,0,0,1,8.315,31.449,96.013,96.013,0,0,1,.874,17.408,59.349,59.349,0,0,1-2.927,16.353c-.059-.373-.122-.871-.192-1.451l-.011-.072,0-.033a67.39,67.39,0,0,0-2.37-11.917c-1.776-5.613-4.35-9.6-7.648-11.852a23.483,23.483,0,0,0-3.083-1.583c.772-5.313-1.154-12-2.37-15.517-1.691-4.885-4.025-9.494-5.671-11.207a229.388,229.388,0,0,1,3.091,37.952c-.116,12.461-1.655,21.3-4.325,24.871.085-5.851.031-10.368-1.476-15.229-1.57-5.048-4.721-10.337-10.21-17.143l-.209-20.85-3.1.016L414.851,684.8l-5.281-3.185c.376,2.411.826,4.962,1.225,7.21l0,.02c1.321,7.512,2.687,15.282,2.613,22.737a43.478,43.478,0,0,1-1.392,10.9,31.513,31.513,0,0,1-4.681,10.059c-.331-1.274-.665-2.589-.99-3.865l-.014-.067c-1.7-6.686-3.456-13.6-6.163-20.036-3.066-7.291-6.932-12.838-11.814-16.951l-1.058,8.365c3.722,2.087,6.729,7.55,8.248,14.986a52.613,52.613,0,0,1,1.018,10.969,46.331,46.331,0,0,1-1.341,10.857,24.214,24.214,0,0,1-5.134,10.422,12.389,12.389,0,0,1-9.345,4.289c-1.146-3.708-2.2-6.575-3.634-8.522a6.912,6.912,0,0,0-5.988-3,23.526,23.526,0,0,0-8.208,1.977l-.076-7.556-2.78-.8c-.2,7.839-3.482,13.063-9.781,15.523l-6.729-6.965c-.255,2.233-.317,4.527-.376,6.744v.072c-.173,6.68-.351,13.586-5.643,20.317ZM243.174,551.742a24.413,24.413,0,0,1-1.553,12.38A24.346,24.346,0,0,0,243.174,551.742Zm-24.152-60.229a74.471,74.471,0,0,0,2.594,10.46c.447,1.4.874,2.654,1.307,3.8-.486-1.323-.925-2.6-1.3-3.8A74.718,74.718,0,0,1,219.022,491.513ZM259.7,752.189h0L258.19,748.8c-4.913-10.97-4.986-20.225-.223-28.291l.39-.676,11.314-.16-5.2,11.2-2.647,2.027.068,2.4c.161,4.355.334,8.855-1.072,13.353l-1.126,3.525ZM92.771,623.893v0l-7.184-9.433-3.77-6.906-2.939-13.343,4.743-6.757,7.787-2.4-.959,2.494a22.938,22.938,0,0,0-1.406,11.82l.464-2.519,3.782-9.735,3.27,18.091-3.784,18.69Zm43.682-5.361h0l-10.779-.863,10.623-5.687.291-2.41-6.228,4.454-16.925,1.2,22.412-16.4,7.269,2.654,1.44,6.329,15.709,2.836-23.812,7.89ZM66.838,603.825v0L57.7,583.355c-.283-1.942-.518-3.482-.707-4.716-.147-.939-.246-1.591-.334-2.182-1-6.308-1.338-8.43,1.256-15.772l.26-.7,10.683-2.42-3.507,10.183-.515,7.9,8.143-18.834,1.462,1.677c.583.669,1.219,1.337,1.833,1.982l.031.038.127.132.057.062c2.639,2.78,5.368,5.657,4.93,8.771-.26,1.721-1.468,3.247-3.595,4.537l-5.445,6.279,2.13,7.692-7.668,15.837Zm49.729-81.206h0c-1.377,0-3.309-1.029-7.951-4.229l-1.584-1.087,14.753-10.8-2.065,4.7a15.1,15.1,0,0,0-.882,6.979v.028l.006.079v.007c.074,1.653.124,2.848-.679,3.684l-.416.424Zm344.371-92.495c-4.316-11.819-9.849-24.56-15.2-36.881l0-.008-.529-1.218c-1.573-3.618-3.2-7.359-4.752-11-3.985-9.705-8.5-20.909-11.749-31.081-3.448-10.795-5.182-19.518-5.295-26.673,2.851,5.391,4.769,9.806,6.624,14.076l.011.02a150.216,150.216,0,0,0,10.123,20.095c.676.961,1.36,1.958,2.087,3.015l.2.289c2.127,3.106,4.772,6.973,8.106,11.183a225.288,225.288,0,0,1-10.471-23.428,262.18,262.18,0,0,1-10.573-35.21,177.754,177.754,0,0,1-4.339-36.1c5.207,6.72,10.55,14.008,14.4,21.778,8.875,16.1,14.34,34.193,17.2,56.944l1.674.792a125.808,125.808,0,0,0-5.487-35.487c-3-9.918-7.181-19.953-13.554-32.531-.427-.919-.891-1.916-1.423-3.045l-.009-.017c-.648-1.383-1.318-2.818-1.957-4.212-1.211-17.557-1.615-32.2-1.253-44.768a193.331,193.331,0,0,1,3.677-34.037q.153-.489.3-.955c.156-.517.305-1,.484-1.52,1.044,3.43,2.319,8.329,3.671,13.518l0,.014c4.534,17.39,10.742,41.206,18.048,51.443v165ZM51.587,407.641v0l-1.2-.205a5.982,5.982,0,0,1-4.336-3.147c-.973-1.848-1.6-5.1.933-10.126L53.4,371.648l6.194,10.619-8.007,25.371ZM43.6,400.349v0l-4.936-8.079-.235-8.791,4.149-6,6.474-.857L43.6,400.346ZM11.4,390.124v0l-4.2-4.875-1.154-3.814L9.9,361.766l6.879-1.277,1.773,5.771-7.15,23.86Zm-6.426-8.708v-.006l-3.929-9.47L0,363.743l2.95-7.666,7.557,1.135-5.532,24.2Zm106.24-117.071,0,0c-3.513-2.88-5.02-7.621-4.743-14.923.252-6.7,1.926-14.923,3.864-24.441.153-.737.3-1.481.458-2.233l.232-1.163.467,40.611a5.506,5.506,0,0,1-.156,1.389l0,.017a4.124,4.124,0,0,0-.116.744Zm349.725-9.932c-1.027-3.427-2.288-6.836-3.507-10.134l-.011-.021c-1.423-3.861-2.9-7.855-3.963-11.775a55.309,55.309,0,0,1-3.015-14.9,93.967,93.967,0,0,1,.489-17.439,160.708,160.708,0,0,1,10.01-38.779v93.049Zm-159.53-92.591a.434.434,0,0,1-.385-.245l1.425-.534C302.072,161.544,301.7,161.822,301.407,161.822Zm-245.326-31.1h0l-1.516-.341c-13.777-3.155-16.716-7.047-20.373-13.135l-1.7-2.853,3.264.833c6.149,1.57,12.668,3.021,18.69,3.021l3.34-.135-1.706,12.608ZM22.822,91.274v0l-3.714-3.057,1.281-4.647L27,76.435l8.963-1.452L22.822,91.271ZM9.857,90.664l0,0L20.789,68.9,29.2,70.088l-6.3,9.974L20.789,82.2l-4.463,6.923L9.86,90.664Zm293.231-1.143,0-.006c-1.7-2.379-14.1-2.878-24.2-2.878-10,0-19.442.489-23.034.7-.829.068-1.51.1-2.141.1-6.5,0-11.715-2.435-14.2-4.522-1.889-1.585-2.919-5.435-3.148-11.768-.2-5.445.229-11.744.6-17.3V53.81c.1-1.449.173-2.567.24-3.657,1.188-8.895,3.024-21.076,5.289-24.14l2.348,15.432,3.224,13.744,1.946,3.772,3.329,5.1,4.254,4.579c5.128,3.7,10.5,4.7,15.692,5.679l.413.078c.529.1,1.072.2,1.6.307l-4.537-14.063L283.622,68.9l-4.893,6.574A24.2,24.2,0,0,1,282,76.5c1.6.759,3.7,1.536,5.736,2.285l.017.006a65.534,65.534,0,0,1,9.976,4.321c3.366,1.965,5.119,4.061,5.36,6.4ZM436.678,62.447h0l-1.046-1.5-1.185-1.935c-1.242-2.124-2.65-4.531-5.442-5.6l.458-2.662,17.779-.5L436.678,62.446ZM11.249,52.054l.006,0,9.778-12.54,12.589-8.324.141,13.019L22.554,47.341l-11.3,4.711ZM304.312,14.27h0l-.416-.383c-.919-.878-.874-2.516.141-5.006.721-1.754,2.2-4.7,3.963-4.7l16.574,1.719-7.235,8.223Z" transform="translate(0.512 0.951)" fill="#fff" stroke="rgba(0,0,0,0)" stroke-width="1" opacity="0.056"/>
</svg>
